<svg version="1.1" id="Layer_1" xmlns="http://www.w3.org/2000/svg" xmlns:xlink="http://www.w3.org/1999/xlink" x="0px" y="0px"
	 width="100%" viewBox="0 0 648 910" enable-background="new 0 0 648 910" xml:space="preserve">
<path fill="#FFFFFF" opacity="1.000000" stroke="none" 
	d="
M649.000000,360.000000 
	C649.000000,542.500000 648.986572,724.500000 649.093750,906.499939 
	C649.095947,910.249268 648.249207,911.095398 644.499939,911.093567 
	C431.500000,910.988525 218.500000,910.988525 5.500046,911.093567 
	C1.750775,911.095398 0.905554,910.249146 0.906819,906.499939 
	C1.008163,606.166687 1.008163,305.833344 0.906819,5.500031 
	C0.905554,1.750876 1.750774,0.904630 5.500046,0.906479 
	C218.500000,1.011504 431.500000,1.011504 644.499939,0.906479 
	C648.249207,0.904631 649.098083,1.750461 649.094421,5.500092 
	C648.979309,123.499977 649.000000,241.500000 649.000000,360.000000 
z"/>
<path fill="#F2C67B" opacity="1.000000" stroke="none" 
	d="
M329.270233,792.516235 
	C316.687714,792.893799 304.382446,792.990112 292.077148,792.992126 
	C240.683548,793.000671 189.289948,792.980896 137.427979,792.917725 
	C134.677567,790.130371 135.412125,786.834900 135.410431,783.749695 
	C135.367508,706.038635 135.359528,628.327637 135.391891,550.616577 
	C135.398743,534.144226 135.158722,517.670532 135.610352,500.778809 
	C136.423737,496.944275 138.232590,497.418427 140.239899,499.196625 
	C143.365860,501.965790 145.731308,505.423340 148.380798,508.609894 
	C150.433319,511.078461 152.067429,510.920807 154.057770,508.752472 
	C156.755844,505.813019 159.227432,502.681580 161.769775,499.615662 
	C164.039886,496.877991 166.095505,497.077911 168.469116,499.331665 
	C171.252411,501.974426 173.596008,505.027222 175.947983,508.001465 
	C178.698044,511.479034 180.637894,510.725952 182.933685,507.845428 
	C185.211334,504.987671 187.616028,502.233398 189.956421,499.427032 
	C191.561783,497.502014 193.314987,496.789734 195.889511,498.343353 
	C198.617111,501.890717 201.194794,505.133606 203.918945,508.258026 
	C204.966583,509.459564 205.697861,511.183960 208.066498,510.622101 
	C208.670059,510.170746 208.989960,509.876343 209.528152,509.321106 
	C212.641174,506.088074 215.093338,502.735626 217.804535,499.602783 
	C219.390610,497.770081 220.992661,496.709076 223.668488,498.219940 
	C224.500320,498.851685 224.912628,499.405914 225.541428,500.218323 
	C227.321182,502.343018 228.504028,504.515015 230.571289,506.407715 
	C231.276581,507.124420 231.753830,507.605438 232.099045,508.169617 
	C234.070374,511.391876 236.000992,511.810577 238.513748,508.541046 
	C240.229172,506.309021 242.058014,504.136200 243.911270,502.001312 
	C249.112579,496.009521 249.261932,496.016907 255.156860,502.155701 
	C256.029144,503.342682 256.584229,504.336212 257.604004,505.410675 
	C263.349670,512.542053 263.402527,512.584534 269.052673,505.557617 
	C271.131561,502.972137 273.338745,500.506927 275.775909,497.772430 
	C276.532135,497.397034 277.009918,497.333862 277.857727,497.447144 
	C282.431091,500.160675 284.746796,504.564117 288.026672,508.063354 
	C291.375610,511.636292 291.389038,511.713470 294.831055,508.011719 
	C297.210907,505.452240 299.115387,502.488220 301.642120,500.063446 
	C302.559570,499.182983 303.343964,497.664520 304.853973,498.170410 
	C306.428040,498.697876 306.825165,500.325256 307.031830,501.836182 
	C307.480865,505.118744 306.910583,508.506470 308.131287,512.123657 
	C310.148743,539.497314 312.764069,566.414124 314.630951,593.391357 
	C315.455078,605.300110 317.043274,617.151733 317.369934,629.524658 
	C317.255798,632.809509 315.481171,634.868347 313.934387,637.014893 
	C301.264587,654.597168 294.778503,674.308228 295.459717,695.880676 
	C296.231873,720.334839 304.869537,741.894836 322.061768,759.705078 
	C324.348877,762.074524 327.140503,764.074829 328.200134,767.874512 
	C329.572205,773.119385 329.146820,778.144531 329.909729,783.465271 
	C330.350342,785.828064 330.397736,787.796509 330.243896,790.196289 
	C330.075806,791.184448 329.860931,791.708313 329.270233,792.516235 
z"/>
<path fill="#EDA25C" opacity="1.000000" stroke="none" 
	d="
M136.694351,497.875977 
	C137.014816,595.976074 137.006119,693.962219 136.978516,792.406128 
	C121.315681,792.909363 105.671577,792.925842 90.028046,793.029053 
	C87.463867,793.045959 86.276070,792.810059 86.525620,789.493652 
	C87.560814,775.736206 88.189117,761.947388 88.911079,748.167236 
	C91.033562,707.655151 93.110252,667.140564 95.243011,626.629028 
	C96.510315,602.556763 97.846344,578.488037 99.157387,554.418091 
	C100.142929,536.324158 101.134872,518.230652 102.141754,500.137939 
	C102.175339,499.534485 102.402412,498.941772 102.540627,498.338226 
	C104.925842,498.382385 105.492760,500.735016 107.868774,501.202209 
	C108.648499,501.253571 108.801468,501.344849 109.150162,501.620544 
	C109.454651,501.948547 109.563431,502.092102 109.825226,502.461426 
	C110.085182,502.837189 110.192116,502.987091 110.477242,503.355835 
	C110.786613,503.715942 110.917793,503.857178 111.261154,504.210388 
	C111.623795,504.565582 111.774261,504.708832 112.157928,505.072266 
	C119.343971,512.142090 119.230995,512.015930 126.249161,505.732544 
	C129.433258,502.881775 132.368042,499.618591 136.694351,497.875977 
z"/>
<path fill="#7D7E7F" opacity="1.000000" stroke="none" 
	d="
M224.202606,498.970459 
	C221.830704,498.002991 220.315933,497.912811 218.658234,500.282776 
	C216.328354,503.613617 213.388306,506.517670 210.411499,509.731323 
	C205.711655,505.168640 202.615677,499.566071 199.097076,493.828918 
	C200.780869,486.419159 202.886490,479.458862 203.642914,471.827454 
	C204.665894,469.144714 204.845184,466.853485 203.351883,464.278107 
	C200.678040,450.106781 193.735596,438.820007 183.154297,429.189667 
	C182.230591,426.552246 181.666794,424.227783 181.647461,421.388428 
	C182.147781,413.583282 184.384674,410.551208 191.027512,408.736145 
	C194.867294,408.535034 197.700775,409.909058 200.400833,411.940063 
	C203.372482,414.175323 206.078537,416.892273 210.203140,417.946716 
	C215.245209,418.689209 216.206009,417.838593 216.287872,412.536682 
	C214.521255,407.050964 210.567368,403.643433 206.606384,399.811310 
	C203.930969,397.007233 201.419144,394.533569 198.458740,392.000214 
	C195.578949,386.831085 192.341965,382.155914 192.870270,375.820862 
	C193.587921,372.167206 195.716446,369.835297 198.164520,367.795105 
	C201.688141,364.858673 205.509964,364.183441 209.694153,366.528503 
	C212.167801,367.914948 214.373047,369.696686 216.806122,371.125824 
	C218.569748,372.161743 220.562531,373.014832 222.353149,371.416962 
	C224.323273,369.658936 223.066544,367.712830 222.068481,366.011719 
	C220.722946,363.718414 219.090698,361.602234 217.326752,359.612976 
	C213.127045,354.876831 209.464401,349.740875 205.723892,344.253418 
	C205.408707,343.818665 205.279190,343.650940 204.956711,343.238495 
	C204.632660,342.836304 204.501556,342.678833 204.173065,342.288269 
	C203.857147,341.890167 203.738586,341.725128 203.510406,341.275696 
	C204.168869,339.114410 202.700348,337.929901 202.040253,336.476868 
	C201.016479,334.223267 199.763397,332.002808 199.197815,329.627716 
	C198.184738,325.373505 198.618088,321.239594 202.555176,318.455048 
	C206.405701,315.731781 210.058167,317.019440 213.621109,319.374084 
	C215.787827,320.806030 218.116837,322.857330 220.830399,320.936279 
	C223.572342,318.995209 222.990204,316.020233 222.383591,313.188385 
	C221.135696,307.362885 219.669327,301.568481 218.767776,295.688446 
	C217.609436,288.133484 219.522339,281.550995 226.544601,276.989288 
	C229.268433,274.330780 232.366165,274.557495 235.885620,274.930847 
	C238.387772,275.612122 240.082199,276.961792 242.245453,278.267761 
	C247.785416,283.290924 249.924072,289.452240 250.257553,296.328094 
	C250.467102,300.648315 250.111664,304.989685 250.384003,309.307129 
	C250.911194,317.665375 255.340317,320.084076 262.693665,316.150909 
	C263.721008,315.601471 264.691315,314.941223 265.753510,314.463379 
	C269.184082,312.920074 272.769073,311.644043 276.143982,314.232971 
	C279.660889,316.930786 280.560547,320.939026 279.719757,325.037659 
	C277.889587,333.959259 274.441467,342.203430 268.238281,349.075317 
	C266.786194,350.683929 265.278625,352.247742 264.265259,354.183350 
	C263.410126,355.816803 262.448456,357.579041 263.833557,359.303009 
	C265.221039,361.029907 267.133118,360.521759 268.903656,359.937561 
	C270.799744,359.311920 272.544647,358.292999 274.459259,357.703094 
	C279.904022,356.025635 284.554596,359.015411 285.182800,364.715424 
	C285.570312,368.231476 285.037048,371.634949 283.842346,375.012939 
	C280.285278,385.070282 274.251099,393.579834 267.678772,401.813690 
	C265.118073,405.021759 262.050385,408.333832 265.244751,413.288788 
	C266.058289,415.470337 265.136597,416.842285 264.026550,418.130310 
	C253.843430,429.946289 246.351105,443.351288 240.580002,457.775970 
	C240.086731,459.008911 239.577988,460.239380 238.313568,461.434509 
	C233.779984,463.328094 233.845032,460.567963 234.321121,457.861633 
	C235.638184,450.374695 237.077438,442.912842 238.310135,435.406799 
	C239.300751,429.374969 239.926422,423.297455 240.910263,417.267365 
	C241.306168,414.840820 242.073837,412.965057 243.642334,411.078735 
	C249.672928,403.825836 254.689163,395.868774 257.728241,390.673157 
	C255.704620,394.401855 251.317001,400.651031 246.928268,406.885437 
	C246.068161,408.107269 245.160431,410.317932 243.309280,409.760284 
	C241.353333,409.170990 241.941833,406.905182 242.058762,405.361053 
	C242.573318,398.565277 243.347275,391.790192 243.026398,384.951355 
	C242.909393,382.457458 243.337494,379.901306 242.952148,377.462799 
	C240.973755,364.943298 245.762741,354.735962 253.521072,345.477905 
	C254.273911,344.579529 254.714127,343.472229 255.160980,342.984833 
	C252.603928,346.567932 249.848465,350.629242 247.181396,354.754272 
	C246.502563,355.804199 245.816864,357.338348 244.204010,356.825836 
	C242.949997,356.427368 242.927963,354.965820 242.773651,353.839630 
	C241.783478,346.613525 241.289581,339.339600 240.224365,332.105377 
	C238.562180,320.816833 235.908752,309.788208 234.054672,302.562653 
	C237.283676,313.107056 239.684616,327.806244 241.797714,342.548431 
	C242.361099,346.478882 242.048248,350.527100 242.613052,354.493256 
	C242.799042,355.799347 243.153259,357.394989 241.548050,357.918335 
	C240.295059,358.326813 239.625397,357.033875 238.848694,356.134766 
	C234.616867,351.236053 230.383759,346.339722 226.347473,341.276215 
	C231.304031,347.465179 236.453140,353.493042 241.594864,359.526428 
	C242.901718,361.059937 243.010880,362.828125 242.993149,364.686768 
	C242.861389,378.492371 243.529312,392.315857 242.000229,406.090607 
	C241.830093,407.623291 241.839645,409.240906 240.210190,409.910034 
	C238.359238,410.670074 237.576996,409.157654 236.733582,407.902496 
	C232.290680,401.290558 227.231277,395.160339 221.874863,389.261902 
	C228.084503,395.933838 233.458588,403.244385 238.645584,410.708862 
	C240.236801,412.998749 241.334671,415.300781 240.894226,418.126617 
	C238.782944,431.672119 237.034958,445.277893 234.066086,458.681519 
	C233.698730,460.339996 233.670151,462.400696 231.888062,462.828003 
	C229.829788,463.321533 229.464935,461.008270 228.599411,459.716278 
	C222.432770,450.511505 216.279068,441.299500 209.548233,434.296997 
	C216.919800,442.280731 223.828476,452.361969 230.340836,462.742218 
	C231.541458,464.655945 232.598053,466.622406 232.084045,468.812866 
	C229.732437,478.834412 228.345810,489.105133 224.202606,498.970459 
z"/>
<path fill="#F3ADAB" opacity="1.000000" stroke="none" 
	d="
M183.777100,428.565308 
	C194.695557,437.868896 201.821121,449.005310 204.040192,463.414856 
	C204.851273,465.866913 205.175919,467.976837 204.823883,470.570923 
	C204.267746,478.608948 202.960007,486.091614 199.881592,493.568665 
	C199.513855,494.543060 199.697968,495.208313 199.459991,496.134094 
	C198.631516,497.534332 197.949799,498.658875 196.360901,499.164276 
	C193.709976,498.178162 192.083969,498.103271 190.338745,500.764984 
	C187.915054,504.461456 184.552795,507.539429 181.620270,510.906494 
	C179.865570,512.921265 178.616394,513.433411 176.702606,510.697906 
	C174.157394,507.059967 170.928284,503.903290 168.027832,500.510071 
	C166.090881,498.244049 164.640991,497.266327 162.456879,500.641174 
	C160.233521,504.076660 157.061188,506.884613 154.452393,510.087860 
	C151.986740,513.115479 150.343338,513.424927 147.726242,509.823883 
	C144.742142,505.717682 141.652664,501.538879 137.327667,498.126587 
	C131.821198,502.279572 126.500725,506.488312 122.135071,511.629852 
	C120.159554,513.956421 119.069458,513.886597 117.235336,511.821991 
	C115.376541,509.729614 113.297791,507.832611 111.169800,505.565155 
	C110.842621,504.947021 110.623489,504.640259 110.159027,504.168762 
	C109.946320,503.981018 110.010841,503.993195 110.005051,504.025513 
	C109.599388,503.587433 109.531944,502.984192 109.148186,502.209534 
	C108.948425,501.991516 109.007751,501.993500 109.003143,502.022827 
	C108.794327,501.792725 108.575867,501.545898 108.144821,501.164001 
	C107.946487,501.016296 107.998703,501.035919 107.984192,501.059448 
	C107.505730,497.886749 105.455536,495.395905 104.141808,492.582764 
	C99.071732,481.725891 98.155502,470.494110 100.889755,458.495605 
	C99.945862,452.910614 103.139374,449.146393 105.668327,444.794891 
	C108.356255,443.306122 110.825508,443.858582 113.307594,444.159821 
	C120.012932,444.973663 122.193146,443.681732 125.165443,437.754333 
	C127.714249,432.671448 128.401474,426.901154 131.482361,421.642944 
	C136.352646,418.534729 141.628555,418.148712 147.134308,417.015839 
	C155.018295,417.471741 162.723068,416.587067 169.991852,420.795837 
	C171.614502,421.660370 172.876984,422.277588 174.443054,422.935669 
	C175.380630,422.953552 176.007614,422.991608 176.916656,423.303833 
	C177.813782,423.679413 178.386047,423.990021 179.242218,424.480103 
	C180.899353,425.839508 182.480606,426.792755 183.777100,428.565308 
z"/>
<path fill="#F6C582" opacity="1.000000" stroke="none" 
	d="
M72.932457,314.056641 
	C85.326332,310.347839 95.575539,314.632599 105.109322,321.656311 
	C111.220940,326.158813 115.912346,331.954224 119.405777,338.631226 
	C128.088104,355.225861 137.174057,371.615845 144.964066,389.025116 
	C143.920792,389.898346 142.977081,389.554443 142.005066,389.307709 
	C136.647995,387.947968 136.456299,388.069946 134.606323,393.920105 
	C130.127655,397.852875 124.504547,398.440338 119.542892,400.565979 
	C115.305191,402.381409 110.779419,403.501282 106.440987,405.097198 
	C104.967590,405.639221 102.813591,406.091400 103.468452,408.290649 
	C104.080711,410.346832 106.107155,410.626038 108.015549,410.281860 
	C111.112740,409.723358 113.971497,408.324005 117.020004,407.576050 
	C117.992493,407.337494 118.973137,407.225464 120.196114,407.958466 
	C121.520905,410.722076 120.255959,413.022247 119.850319,415.385468 
	C119.048004,420.059631 118.862427,424.761261 118.991928,429.880188 
	C118.162193,432.367371 116.576912,433.742981 114.494583,435.154358 
	C108.343697,433.384583 104.119461,429.138397 99.355225,425.062500 
	C92.585976,411.453979 85.692413,398.338257 78.894714,385.173340 
	C72.792900,373.356110 65.659470,361.961945 63.300026,348.567322 
	C61.726799,339.636047 63.003399,330.966736 66.438126,322.638519 
	C67.777702,319.390442 69.768906,316.489105 72.932457,314.056641 
z"/>
<path fill="#ECB1AF" opacity="1.000000" stroke="none" 
	d="
M327.380310,768.258240 
	C326.881134,765.543091 324.863312,764.361694 323.340607,762.916260 
	C307.689331,748.058838 298.581665,729.615051 295.271393,708.615723 
	C290.955139,681.234985 297.875427,656.335266 314.404480,634.100037 
	C314.989227,633.313477 315.467224,632.447510 316.056030,631.265198 
	C322.122742,621.580994 330.778839,615.155212 339.977356,609.395996 
	C360.259064,596.697449 382.531891,592.981812 406.415039,595.182373 
	C408.729370,596.772583 411.097015,597.039612 413.351196,597.509827 
	C452.290741,605.632812 483.905914,639.993347 489.257751,679.551697 
	C493.035980,707.478943 486.093658,732.498169 469.026947,754.532959 
	C455.025909,772.609558 436.482239,784.241943 414.172028,789.672668 
	C413.842316,789.752869 413.513184,789.766968 413.184113,789.712952 
	C413.282654,789.792419 413.381165,789.871887 413.790741,789.911987 
	C431.505676,789.113647 448.919586,789.502747 466.326996,789.562500 
	C474.402496,789.590210 482.228455,789.063843 489.508972,785.189636 
	C490.534729,784.643860 491.680939,784.370300 493.294067,784.667603 
	C493.335022,788.157043 490.355927,788.733704 488.110382,789.621948 
	C482.702515,791.761230 477.074127,792.970703 471.148560,792.961487 
	C424.074677,792.887817 377.000641,792.918335 329.459839,792.878784 
	C329.017639,792.398987 329.042267,791.957214 329.102722,791.184814 
	C330.336639,789.752075 331.841614,789.608276 333.343689,789.617126 
	C346.633820,789.695312 359.933777,789.148132 373.210693,790.105408 
	C373.869141,790.306641 373.102539,790.923218 373.337494,790.299316 
	C366.447388,789.217468 359.642639,787.820679 352.922302,784.667847 
	C343.911316,779.716614 335.113617,775.152893 327.380310,768.258240 
z"/>
<path fill="#2E2E40" opacity="1.000000" stroke="none" 
	d="
M237.302429,276.074768 
	C233.859543,275.879028 230.747574,275.619141 227.297012,276.920349 
	C226.866165,263.665527 226.766205,250.342850 226.843140,237.021194 
	C226.959976,216.792175 244.002792,199.073181 264.246735,199.014664 
	C334.023041,198.813019 403.800751,198.792419 473.576843,199.026627 
	C493.691711,199.094131 510.474304,216.669235 511.019104,237.196304 
	C511.222260,244.851624 511.080566,252.516113 511.173615,260.646606 
	C511.235657,261.416077 511.220215,261.715302 510.869415,262.316254 
	C507.887695,263.692871 505.224640,263.575439 502.162384,262.482056 
	C501.596161,261.982056 501.418915,261.729919 501.071198,261.047424 
	C500.026886,254.482178 500.596283,248.313400 500.508057,242.161575 
	C500.440643,237.460770 499.872925,232.838440 498.577026,228.349335 
	C494.953430,215.796829 483.714325,207.558517 470.038727,207.541260 
	C425.067963,207.484528 380.097076,207.521271 335.126251,207.519684 
	C313.806732,207.518936 292.472748,208.002655 271.172394,207.363708 
	C254.738174,206.870728 239.117554,217.488510 238.574600,239.397156 
	C238.331192,249.219330 238.551575,259.050262 238.506271,268.877045 
	C238.495590,271.193115 238.737671,273.559753 237.302429,276.074768 
z"/>
<path fill="#505153" opacity="1.000000" stroke="none" 
	d="
M177.243317,423.749481 
	C176.340668,423.858093 175.733292,423.686340 174.936279,423.245544 
	C175.134308,417.001129 175.424164,411.017181 175.945404,405.053436 
	C176.270981,401.328156 175.370422,399.243988 171.348618,397.766541 
	C158.572571,393.073029 148.882828,384.435730 142.064529,372.637817 
	C140.387314,369.735718 139.128113,366.653076 139.071152,363.236908 
	C138.977051,357.593567 141.955429,355.582336 147.070969,357.908905 
	C157.355392,362.586334 163.086136,371.564789 168.431610,380.850189 
	C171.408783,386.021698 173.477036,391.601501 175.549744,397.282684 
	C176.730164,389.861816 176.393524,382.435852 176.161011,375.006500 
	C176.099899,373.053619 174.613953,373.387848 173.501572,372.823761 
	C160.434601,366.198029 151.260956,356.297211 147.959534,341.674866 
	C147.585754,340.019348 146.731293,337.719147 148.659210,336.633972 
	C150.550018,335.569733 152.558228,336.826172 154.200439,337.948242 
	C162.828781,343.843933 168.787094,351.903381 172.931458,361.393738 
	C173.327698,362.301117 173.627533,363.250519 174.053482,364.540283 
	C174.606003,365.549377 175.014481,366.232025 175.241516,367.008850 
	C175.445389,367.706390 175.620209,368.408051 175.432617,368.780243 
	C175.549973,369.806519 176.378372,368.716705 175.828369,369.093475 
	C175.325134,367.904297 175.208481,366.666992 175.475784,365.078491 
	C174.669189,358.512451 173.751160,352.263763 172.842682,346.013733 
	C172.500000,343.656128 171.557907,342.373108 168.803055,342.011078 
	C163.437164,341.305939 158.773544,338.619598 154.460648,335.427612 
	C152.857651,334.241211 151.474548,332.782288 150.683685,330.864990 
	C150.099899,329.449677 149.476761,327.983185 150.661774,326.659149 
	C151.895645,325.280548 153.368866,325.879974 154.782761,326.495544 
	C158.604904,328.159485 162.230530,330.135834 165.447464,332.831635 
	C166.422592,333.648804 167.341141,334.733337 169.144638,334.570862 
	C169.115356,330.778900 168.100662,327.600189 165.177322,324.965607 
	C158.582977,319.022552 154.229782,311.659912 152.005112,303.063873 
	C151.512558,301.160675 150.670013,298.959259 152.937225,297.700836 
	C154.876389,296.624420 156.416138,298.179535 157.794296,299.312744 
	C163.724823,304.189270 167.189957,310.560333 168.033188,318.106689 
	C168.763519,324.642700 171.050568,330.655975 173.218933,337.332642 
	C176.690430,331.854065 180.378555,327.070831 185.548859,323.734650 
	C187.873627,322.234619 190.758209,319.706024 193.134537,321.608765 
	C195.991196,323.896149 194.189438,327.578217 192.887695,330.354645 
	C190.077850,336.347626 184.600281,339.338348 178.701782,341.352203 
	C175.310104,342.510162 174.583755,344.050354 175.328506,347.490479 
	C176.619400,353.453339 177.293732,359.549683 178.334320,366.287231 
	C181.477081,360.682983 183.599884,355.093597 187.369278,350.527618 
	C191.396576,345.649231 195.342682,340.556458 203.018127,340.859039 
	C203.400757,340.991302 203.364731,340.986145 203.395508,340.988708 
	C203.853394,341.105835 204.238983,341.300537 204.799454,341.828613 
	C205.022125,342.069702 205.020462,341.980835 204.976151,341.977295 
	C206.561707,344.125031 206.053101,346.353271 205.141846,348.577179 
	C200.866745,359.010315 195.026413,368.083099 183.896225,372.352509 
	C181.104233,373.423462 180.264587,375.287659 180.248062,378.107239 
	C180.223495,382.298462 180.785400,386.526398 179.634308,391.177094 
	C182.007843,385.278290 185.907730,380.998199 189.443649,376.479614 
	C190.367874,375.298523 191.574493,374.365204 193.589157,374.458313 
	C193.158707,380.736206 196.381378,385.680206 198.930054,391.175842 
	C197.448151,395.891296 193.140625,397.240601 189.716721,398.085907 
	C180.968124,400.245850 178.141388,405.259338 179.170258,413.790497 
	C179.550217,416.941071 178.728409,420.346863 177.243317,423.749481 
z"/>
<path fill="#2E2D3E" opacity="1.000000" stroke="none" 
	d="
M493.732483,784.788635 
	C484.156097,790.399719 473.765808,791.427429 462.929932,791.160461 
	C446.115692,790.746033 429.287872,790.881470 412.254395,790.409546 
	C421.889648,788.192261 431.087830,783.979492 441.375244,782.182983 
	C452.625977,782.653931 463.474945,782.972412 474.235535,782.192993 
	C485.995758,781.341125 493.697571,774.220581 497.923553,763.480103 
	C500.200439,757.693237 500.462769,751.488281 500.460449,745.287598 
	C500.433868,674.221619 500.439148,603.155701 500.456879,532.089722 
	C500.457611,529.107422 500.143829,526.089722 501.284821,522.733643 
	C503.977844,519.939636 506.899963,520.501038 510.266968,521.230347 
	C510.957611,521.663757 511.197540,521.891418 511.624298,522.578613 
	C512.106567,525.023987 511.991119,527.023743 511.991302,529.017456 
	C511.997925,601.879822 511.999237,674.742249 511.984833,747.604614 
	C511.984406,749.756836 512.236206,751.933105 511.376160,754.481201 
	C511.042572,755.390991 510.965424,755.876099 510.897156,756.730591 
	C510.569031,764.871155 507.603638,771.542725 502.141602,777.506714 
	C500.574951,778.903137 499.321075,780.093445 497.890717,781.556396 
	C497.000122,783.128540 495.915863,783.994141 494.204254,784.606934 
	C493.859039,784.684753 493.753662,784.734375 493.732483,784.788635 
z"/>
<path fill="#D74282" opacity="1.000000" stroke="none" 
	d="
M510.882385,404.396790 
	C526.048706,404.188904 540.847107,404.267029 555.645630,404.319305 
	C569.710388,404.368988 577.376892,411.696381 577.622925,425.630432 
	C577.760925,433.442993 577.567932,441.261353 577.372803,449.516296 
	C575.350098,451.855621 572.914307,451.373962 570.640747,451.462280 
	C563.847717,451.726166 557.029663,450.988129 549.853088,452.123779 
	C548.015503,452.599487 546.855957,451.942657 545.822937,451.111542 
	C537.421631,444.352600 527.579529,442.368744 517.123047,442.359833 
	C515.154602,442.358154 513.155945,442.486450 510.964600,441.339172 
	C509.630310,439.554901 509.636749,437.906433 510.184082,435.839081 
	C511.721130,433.576141 513.662720,434.562592 515.394165,434.510498 
	C519.527832,434.386108 521.606323,432.572906 521.610962,429.035858 
	C521.615601,425.487244 519.542419,423.620026 515.449036,423.504608 
	C513.831055,423.458984 512.134460,424.147217 510.418945,422.625488 
	C508.991333,416.995361 509.491486,411.668549 509.927490,405.907227 
	C510.209747,405.202454 510.362091,404.936951 510.882385,404.396790 
z"/>
<path fill="#D53F82" opacity="1.000000" stroke="none" 
	d="
M510.479401,262.477814 
	C510.831390,261.903137 510.899567,261.737213 511.109436,261.344055 
	C526.050171,261.188507 540.849121,261.277374 555.648254,261.326935 
	C569.757446,261.374176 577.301941,268.626373 577.626160,282.618317 
	C577.714661,286.439423 577.560669,290.266144 577.362488,294.526306 
	C575.017029,297.063171 572.232910,296.534973 569.638733,296.545166 
	C553.525146,296.608459 537.411194,296.548401 521.297424,296.588989 
	C514.871643,296.605164 514.641113,296.886292 514.579590,303.379852 
	C514.532349,308.362946 514.744873,313.352448 514.458984,318.327026 
	C514.342773,320.349701 514.659180,322.878204 511.183411,323.218445 
	C509.504913,321.509552 509.437836,319.668365 509.429657,317.851013 
	C509.353790,300.982330 509.362457,284.113525 509.422272,267.244781 
	C509.427582,265.754608 509.512634,264.263641 510.479401,262.477814 
z"/>
<path fill="#E06673" opacity="1.000000" stroke="none" 
	d="
M576.877441,488.676147 
	C578.056763,494.603760 578.075012,500.248260 577.240234,505.821167 
	C575.750732,515.764832 568.411072,522.008728 558.359070,522.055847 
	C543.588562,522.125061 528.817444,522.083984 513.586792,522.116577 
	C512.721497,522.414978 512.278198,522.509644 511.542419,522.181030 
	C511.287750,521.934998 510.965546,521.978455 510.803131,521.971802 
	C509.389801,520.224121 509.370270,518.194946 509.440521,516.206360 
	C509.716034,508.410797 508.649719,500.576691 510.342773,492.395142 
	C512.682861,490.161621 515.260742,490.473907 517.718262,490.462189 
	C529.682739,490.405121 541.647644,490.457764 553.612183,490.423828 
	C556.088196,490.416809 558.633057,490.620392 561.214294,488.772095 
	C566.570435,487.003235 571.540710,487.001740 576.877441,488.676147 
z"/>
<path fill="#DA497A" opacity="1.000000" stroke="none" 
	d="
M511.000305,323.366638 
	C513.685852,322.346161 512.950928,320.381683 512.966736,318.859009 
	C513.034180,312.376099 513.176392,305.885376 512.931152,299.411163 
	C512.795410,295.828247 514.143433,294.915771 517.539062,294.937500 
	C537.155212,295.063110 556.772644,294.993713 576.798340,294.976379 
	C578.128784,304.659943 577.536133,314.373199 577.353149,324.518250 
	C575.812317,326.478821 573.930481,326.524017 572.109680,326.532684 
	C553.282593,326.622162 534.455322,326.632965 515.628113,326.536255 
	C514.455078,326.530243 513.305908,326.337891 511.753784,325.736725 
	C510.784973,325.032104 510.572388,324.446503 511.000305,323.366638 
z"/>
<path fill="#DE5772" opacity="1.000000" stroke="none" 
	d="
M511.012665,325.211243 
	C533.016663,324.998047 554.699829,324.993195 576.790344,324.972107 
	C578.152527,333.981903 577.533508,343.026459 577.366943,352.502136 
	C575.036194,355.070190 572.244812,354.530701 569.650208,354.541107 
	C553.517761,354.605927 537.384888,354.545746 521.252258,354.585358 
	C514.834106,354.601105 514.775757,354.870422 514.528809,361.410828 
	C514.317200,367.014771 515.538086,372.712524 513.280640,378.588165 
	C512.631531,379.049835 512.272888,379.139771 511.645813,379.148315 
	C511.112488,378.897278 510.847626,378.727661 510.338654,378.154785 
	C508.791534,371.370575 509.577484,364.916473 509.506805,358.499878 
	C509.425018,351.075134 509.187286,343.640717 509.776062,335.803680 
	C510.853607,332.882660 512.761536,330.485931 510.656128,327.265503 
	C510.426117,326.396759 510.484985,325.899445 511.012665,325.211243 
z"/>
<path fill="#EDA35D" opacity="1.000000" stroke="none" 
	d="
M72.784668,313.784485 
	C71.875732,317.746490 68.400124,320.406891 66.965614,324.397247 
	C62.018280,338.159332 63.293808,351.517761 69.726845,364.330597 
	C78.809395,382.420502 88.316582,400.296967 97.598305,418.287354 
	C98.577072,420.184448 99.881721,421.982300 100.050034,424.609497 
	C98.916183,425.611725 97.751183,425.303680 96.765305,424.739502 
	C91.672630,421.825073 85.842857,421.223053 80.177811,419.078308 
	C71.695099,402.639404 62.963543,386.753967 55.313713,370.363647 
	C47.865501,354.405365 47.309769,338.221619 58.130428,323.152893 
	C61.591602,318.332886 66.364052,314.992920 72.784668,313.784485 
z"/>
<path fill="#E26672" opacity="1.000000" stroke="none" 
	d="
M513.458008,379.004547 
	C512.995911,371.968628 513.214478,364.968536 512.924683,357.989594 
	C512.760620,354.038086 514.005127,352.876251 517.976013,352.914246 
	C537.449768,353.100555 556.926331,352.989929 576.809326,352.962280 
	C578.351135,359.901306 577.854919,366.591003 573.155518,372.247162 
	C569.353027,376.823761 564.377441,379.126678 558.300781,379.094238 
	C543.509460,379.015259 528.717529,379.056427 513.458008,379.004547 
z"/>
<path fill="#4E4E4F" opacity="1.000000" stroke="none" 
	d="
M79.558037,418.815277 
	C86.984428,419.003754 93.343246,421.390106 99.712036,424.930481 
	C104.479233,428.265930 108.889542,431.545593 113.614426,434.945221 
	C116.491257,435.723999 117.892799,437.694885 119.358170,440.007568 
	C119.897423,440.798615 119.331894,440.120941 119.749893,440.640289 
	C119.726723,440.471100 119.581955,440.371460 119.384140,439.936981 
	C118.230110,437.066772 117.114967,434.506592 117.743576,431.314178 
	C117.424332,423.483276 117.572189,416.022705 120.339325,408.432861 
	C122.116699,401.907593 125.015320,400.611298 130.714050,403.912354 
	C133.504486,409.854279 134.487900,415.573364 131.994476,421.784485 
	C130.008881,428.107971 128.246796,434.099243 125.594368,439.867096 
	C123.831017,443.701630 121.474960,445.624359 117.324532,445.419342 
	C113.850388,445.247742 110.375031,445.100769 106.465263,444.979828 
	C100.989594,445.928009 96.633438,444.210541 92.242798,441.230438 
	C88.402458,438.818817 84.823082,436.729248 81.316635,434.523743 
	C78.451477,432.721588 76.212456,430.274323 74.651062,427.261200 
	C72.092537,422.323914 73.596764,419.561066 79.558037,418.815277 
z"/>
<path fill="#DD5276" opacity="1.000000" stroke="none" 
	d="
M577.379639,488.548767 
	C572.532898,488.994934 567.836853,488.994171 562.690308,488.989685 
	C559.106873,487.768280 555.851929,487.512939 552.513916,487.530823 
	C541.601379,487.589386 530.688416,487.567078 519.775574,487.543365 
	C517.794983,487.539062 515.798828,487.603455 513.478271,486.655884 
	C511.801941,485.164093 511.730652,483.640686 512.280823,481.607422 
	C514.459290,479.130798 517.071777,479.596619 519.501648,479.581421 
	C530.284668,479.513947 541.068359,479.582733 551.851562,479.541382 
	C558.346985,479.516510 559.366882,478.267181 558.091797,471.767456 
	C557.156799,467.001190 555.326660,462.576233 552.621765,458.512146 
	C551.342041,456.589294 549.757080,454.836639 549.036621,452.130188 
	C549.773926,449.094238 551.956116,450.061676 553.584167,450.041077 
	C561.189453,449.944885 568.796570,449.992035 576.812256,449.971710 
	C578.161560,462.664124 577.525635,475.385590 577.379639,488.548767 
z"/>
<path fill="#4E4E4F" opacity="1.000000" stroke="none" 
	d="
M134.233398,394.292419 
	C134.231766,386.431061 136.825150,385.167908 144.542206,389.279480 
	C155.523895,397.911407 164.811081,407.496216 170.241776,420.680725 
	C163.022263,419.359375 155.608444,418.284149 147.687439,417.837097 
	C141.706955,414.231476 138.819092,408.667206 135.810486,402.757629 
	C135.055237,399.847626 133.531143,397.457733 134.233398,394.292419 
z"/>
<path fill="#ECB1AF" opacity="1.000000" stroke="none" 
	d="
M511.120789,522.383667 
	C511.698090,521.966736 512.108398,521.998474 512.822876,522.086731 
	C513.031555,524.298401 512.853210,526.453491 512.852783,528.608643 
	C512.838318,602.120544 512.848389,675.632446 512.797729,749.144348 
	C512.796448,751.022339 513.663391,753.154175 511.504059,754.848083 
	C511.030731,753.753479 510.864014,752.601196 510.863831,751.448853 
	C510.851807,676.240417 510.852814,601.032043 510.857605,525.823608 
	C510.857666,524.826477 510.920410,523.829407 511.120789,522.383667 
z"/>
<path fill="#F7D1BB" opacity="1.000000" stroke="none" 
	d="
M163.720856,190.635590 
	C163.987335,197.763550 161.420471,202.101883 156.092117,204.114365 
	C151.005341,206.035583 145.650986,204.747925 142.502304,200.788742 
	C139.150131,196.573639 138.879837,191.780823 141.075821,187.195221 
	C143.376968,182.390091 147.655746,180.350342 153.066849,180.967743 
	C158.750870,181.616333 161.818604,185.198334 163.720856,190.635590 
z"/>
<path fill="#F7D1BB" opacity="1.000000" stroke="none" 
	d="
M189.677246,213.749756 
	C195.869095,201.063797 195.781235,201.254593 208.338684,207.037338 
	C212.701508,209.046432 213.719406,211.006943 211.074539,215.114380 
	C209.477539,217.594513 208.341446,220.437149 207.385818,223.248627 
	C206.067474,227.127167 203.793961,227.390717 200.576431,225.704895 
	C197.782959,224.241241 195.014389,222.661728 192.074341,221.562637 
	C187.964142,220.026138 186.942078,217.756271 189.677246,213.749756 
z"/>
<path fill="#DA4982" opacity="1.000000" stroke="none" 
	d="
M503.468140,167.278076 
	C505.352020,158.178391 513.096924,152.351547 521.573914,153.162720 
	C530.987488,154.063522 537.280518,161.009140 537.814331,171.579834 
	C536.125977,173.540146 534.199524,173.352020 531.869934,172.852631 
	C530.009888,171.870438 529.978027,170.282776 529.543274,168.895798 
	C528.319336,164.990814 525.898926,162.157227 521.763306,161.501801 
	C517.670105,160.853058 514.388611,162.596497 511.982880,165.956406 
	C511.312683,166.892426 510.701538,167.877914 509.332214,168.653442 
	C507.040100,169.210739 505.300934,168.788239 503.468140,167.278076 
z"/>
<path fill="#E26677" opacity="1.000000" stroke="none" 
	d="
M530.977905,172.130280 
	C533.182678,171.988419 535.057068,171.989685 537.331299,171.985779 
	C536.878784,180.532593 531.940735,186.393967 524.150940,188.100128 
	C515.969299,189.892120 509.173492,186.655930 504.244690,178.311462 
	C505.325378,176.146530 507.131317,175.917053 509.417725,175.980087 
	C511.119324,176.315079 512.142029,177.156967 513.242249,177.871780 
	C520.223816,182.407806 525.327942,181.166565 529.566223,173.911179 
	C529.897827,173.343506 530.204895,172.765320 530.977905,172.130280 
z"/>
<path fill="#332A3B" opacity="1.000000" stroke="none" 
	d="
M511.170959,403.643890 
	C511.158112,404.274933 511.065948,404.427765 510.871277,404.827820 
	C508.272461,407.013458 505.539856,406.482269 502.387695,405.611969 
	C501.777679,405.149170 501.576385,404.912231 501.179321,404.253113 
	C500.107910,396.225433 500.438995,388.608856 500.889099,380.546143 
	C501.138519,379.823303 501.271576,379.546570 501.713501,378.928528 
	C504.632782,377.303528 507.285553,377.356873 510.308502,378.635437 
	C510.649323,378.935486 511.004517,379.051575 511.190948,379.059265 
	C511.282135,387.099854 511.186890,395.132751 511.170959,403.643890 
z"/>
<path fill="#DA4982" opacity="1.000000" stroke="none" 
	d="
M224.884750,172.221985 
	C223.879395,163.206146 229.482971,156.372482 237.688293,155.983246 
	C246.433716,155.568420 252.573425,161.725739 252.734772,171.572876 
	C251.351166,173.346634 249.755569,173.241135 247.759186,172.794128 
	C246.284378,171.998978 246.028702,170.864655 245.845795,169.726532 
	C245.188919,165.638977 242.832016,163.014725 238.726212,162.832153 
	C234.497925,162.644150 232.274765,165.485382 231.171631,169.305420 
	C231.035049,169.778427 230.849884,170.234985 230.440979,171.000153 
	C228.751114,172.586487 227.127594,173.256332 224.884750,172.221985 
z"/>
<path fill="#DC5187" opacity="1.000000" stroke="none" 
	d="
M465.200073,128.234375 
	C463.298645,125.184555 463.634857,123.315582 467.301910,122.923927 
	C469.601105,122.678368 471.868866,122.087662 474.170105,121.922752 
	C478.077606,121.642731 480.044342,120.084412 478.723358,115.924988 
	C478.623047,115.609138 478.543213,115.284538 478.482697,114.958649 
	C476.564362,104.632713 476.753601,104.532799 487.258820,103.769341 
	C489.652618,103.595375 490.066559,104.471428 490.368896,106.328178 
	C491.031097,110.394783 490.475159,115.925674 492.894226,118.092110 
	C495.425415,120.358955 500.648865,117.593773 504.684906,117.000656 
	C507.292908,116.617416 508.655121,117.713448 508.544556,120.052017 
	C508.390045,123.319374 511.454926,126.905457 507.371063,129.836029 
	C506.651123,129.437134 506.344696,129.011658 505.986786,128.168182 
	C505.099609,120.830956 505.040161,120.783974 498.306946,121.820847 
	C490.174835,123.073158 489.044342,122.256096 487.842438,114.247444 
	C487.645508,112.935089 487.621124,111.595428 487.241547,110.312256 
	C486.815765,108.872993 485.959198,107.994530 484.341370,108.219521 
	C482.614899,108.459625 481.605438,109.405045 481.703613,111.216774 
	C481.820557,113.374260 482.245850,115.499916 482.576935,117.629890 
	C483.213135,121.722755 481.391418,123.871292 477.498169,124.753304 
	C474.152039,125.511360 470.440979,125.227470 467.399841,128.152939 
	C466.569061,128.547516 466.054871,128.574341 465.200073,128.234375 
z"/>
<path fill="#E26C82" opacity="1.000000" stroke="none" 
	d="
M506.549377,127.518791 
	C506.908722,128.205109 506.947388,128.664764 507.004822,129.469788 
	C503.137634,131.165588 497.691772,129.546432 495.374817,132.807678 
	C493.235168,135.819351 495.792877,140.462753 496.309509,144.359085 
	C496.678925,147.145264 495.889221,147.683182 493.391266,148.063522 
	C483.807434,149.522720 483.362518,149.663315 482.418701,139.906952 
	C481.904388,134.590698 480.139618,133.340027 475.449310,134.880096 
	C474.678558,135.133163 473.787598,134.994324 472.983490,135.175522 
	C465.133179,136.944504 465.470978,136.595612 464.847046,128.453949 
	C465.280579,128.010040 465.693542,128.000671 466.415924,127.984360 
	C469.389771,131.523788 472.837341,131.606659 476.889679,130.844284 
	C483.930145,129.519714 484.462952,130.087402 485.753662,137.056717 
	C486.055389,138.685944 486.210632,140.347916 486.709351,141.935165 
	C487.212128,143.535431 488.256836,144.508957 490.020752,144.295212 
	C492.177582,144.033844 491.954193,142.392731 491.831390,140.885254 
	C491.642761,138.569366 491.017792,136.311584 490.869019,133.989944 
	C490.690521,131.205078 491.609985,128.845245 494.494324,128.264175 
	C498.339478,127.489571 502.198273,126.106842 506.549377,127.518791 
z"/>
<path fill="#E26677" opacity="1.000000" stroke="none" 
	d="
M247.104797,172.027679 
	C248.933868,171.986206 250.414200,171.983948 252.262146,171.974609 
	C251.417969,179.484192 246.147430,184.374771 238.956055,184.655441 
	C232.241806,184.917496 226.461258,180.123093 224.539459,172.297745 
	C226.161133,172.191422 227.596741,171.779892 229.304596,171.043274 
	C230.134537,171.074539 230.518723,171.354782 230.817841,171.756927 
	C236.721039,179.693298 240.308258,179.763428 247.104797,172.027679 
z"/>
<path fill="#E05D79" opacity="1.000000" stroke="none" 
	d="
M182.728958,143.634979 
	C184.167679,144.736893 185.250473,145.488770 186.307968,146.274734 
	C188.316864,147.767792 190.887085,148.615967 188.263351,152.190765 
	C185.831390,155.504257 184.110962,154.415665 182.124924,152.415466 
	C179.328033,149.598633 177.528458,150.496170 175.811981,153.569962 
	C174.561676,155.808960 173.347488,157.558517 170.181229,155.139633 
	C167.242050,152.894241 168.094971,151.414459 169.680176,149.129517 
	C170.564285,147.855164 173.002792,146.886215 171.129974,144.311127 
	C174.613907,141.528061 178.478683,142.269623 182.728958,143.634979 
z"/>
<path fill="#E05D79" opacity="1.000000" stroke="none" 
	d="
M470.688446,166.087646 
	C471.488068,165.638779 471.967834,165.449738 472.450897,165.440964 
	C480.097565,165.302002 480.098175,165.307281 479.998413,172.836029 
	C479.987427,173.664719 479.962341,174.493240 479.948883,175.321899 
	C479.822266,183.121307 479.822601,183.121307 471.435913,182.848419 
	C468.377380,177.415405 469.319122,171.925415 470.688446,166.087646 
z"/>
<path fill="#DA4982" opacity="1.000000" stroke="none" 
	d="
M183.190491,143.651749 
	C179.358505,143.980667 175.620712,143.991714 171.417603,144.010208 
	C164.847641,140.787933 164.592865,140.057953 167.747391,136.542419 
	C169.141937,134.988281 170.090424,134.561874 171.756302,136.157608 
	C175.124863,139.384369 178.097427,139.566589 180.328369,134.756546 
	C180.809753,133.718628 181.690796,132.090424 183.348007,133.047516 
	C184.898834,133.943161 186.424789,135.052795 187.580750,136.396072 
	C188.257202,137.182129 187.087769,138.157639 186.539169,138.934494 
	C185.487183,140.424149 184.373032,141.869904 183.190491,143.651749 
z"/>
<path fill="#DA4982" opacity="1.000000" stroke="none" 
	d="
M167.951508,269.388336 
	C166.089447,265.353821 167.393631,262.303436 170.430359,259.973358 
	C173.010910,257.993317 175.988266,257.693665 178.875336,259.258087 
	C182.459686,261.200378 184.000427,264.289215 183.121399,268.679138 
	C178.201294,271.561035 173.319824,270.927277 167.951508,269.388336 
z"/>
<path fill="#DA4982" opacity="1.000000" stroke="none" 
	d="
M470.576538,165.597351 
	C471.002380,171.118942 470.998016,176.493896 470.989624,182.320282 
	C460.283813,183.053452 462.030426,183.396805 462.663788,174.469818 
	C462.722107,173.648315 462.704803,172.821686 462.731873,171.997742 
	C462.964203,164.920288 462.964813,164.920303 470.576538,165.597351 
z"/>
<path fill="#EDA35D" opacity="1.000000" stroke="none" 
	d="
M91.993187,441.322784 
	C96.411758,442.199799 100.873199,443.441162 105.682480,444.849640 
	C104.739059,449.262543 102.001007,452.945038 101.086014,457.743103 
	C97.030624,453.146484 95.034271,447.144501 91.993187,441.322784 
z"/>
<path fill="#DD5276" opacity="1.000000" stroke="none" 
	d="
M517.712891,209.065964 
	C516.428894,205.792023 517.403625,203.554276 519.947876,201.951080 
	C521.987366,200.665939 524.035645,200.864120 525.967468,202.274704 
	C527.939819,203.714890 528.404358,205.736252 528.029541,208.000839 
	C527.667358,210.189392 526.259399,211.549850 524.171753,212.049469 
	C521.491943,212.690781 519.268921,211.967163 517.712891,209.065964 
z"/>
<path fill="#E26677" opacity="1.000000" stroke="none" 
	d="
M167.579254,269.543396 
	C172.335617,269.118195 177.176620,269.053772 182.481171,268.980469 
	C182.208878,272.838623 179.401184,274.491608 175.932068,274.908813 
	C172.055893,275.375031 169.216614,273.562653 167.579254,269.543396 
z"/>
<path fill="#DD5276" opacity="1.000000" stroke="none" 
	d="
M510.464905,176.569275 
	C508.421112,176.905609 506.634888,177.101501 504.574402,177.927734 
	C502.554749,174.709473 502.131683,171.292542 503.070129,167.362732 
	C504.949371,167.344040 506.718170,167.687286 508.880066,168.056290 
	C510.729645,170.619553 510.949677,173.371567 510.464905,176.569275 
z"/>
<path fill="#ECB1AF" opacity="1.000000" stroke="none" 
	d="
M502.174164,777.796753 
	C505.699158,771.431580 509.606842,765.166138 510.626648,757.330811 
	C512.075623,757.606445 512.110596,758.701111 511.870941,759.606934 
	C510.081696,766.367920 508.494385,773.254944 502.174164,777.796753 
z"/>
<path fill="#AEAFAF" opacity="1.000000" stroke="none" 
	d="
M175.339569,364.771210 
	C176.412048,366.456024 176.055038,368.187195 175.757370,370.956177 
	C175.006210,368.553314 174.549683,367.092987 174.114014,365.266418 
	C174.464401,364.934937 174.784698,364.895142 175.339569,364.771210 
z"/>
<path fill="#ECB1AF" opacity="1.000000" stroke="none" 
	d="
M494.221130,784.810425 
	C494.939880,783.754456 496.020721,782.824097 497.407898,781.861450 
	C498.075928,784.281006 496.563354,784.844177 494.221130,784.810425 
z"/>
<path fill="#F3CAD4" opacity="1.000000" stroke="none" 
	d="
M407.528320,596.401245 
	C382.886230,594.505310 359.753265,598.007507 338.801575,611.560669 
	C330.518463,616.918762 323.664124,623.825134 316.405823,630.780212 
	C314.441681,610.630554 312.720367,590.352905 311.106720,570.066650 
	C309.991150,556.042297 309.160797,541.993896 307.920868,527.981262 
	C307.452820,522.691956 306.848816,517.430542 306.977722,511.662506 
	C307.947815,507.545044 311.311554,505.926331 313.641937,503.431091 
	C317.707214,499.078308 321.764862,494.726715 325.488708,490.065155 
	C326.713898,488.531433 327.989441,486.143707 330.793640,488.718506 
	C332.000183,494.533600 331.343842,500.029846 331.468262,505.499695 
	C331.661041,513.975403 336.532532,520.331604 344.735413,522.579224 
	C346.994293,523.198242 349.297424,523.489563 351.635376,523.493347 
	C376.233337,523.533264 400.831268,523.520813 425.429230,523.500977 
	C427.599792,523.499268 429.737915,523.250549 431.844727,522.710999 
	C440.200104,520.571106 445.235901,514.479187 445.459595,505.886688 
	C445.680115,497.414276 445.425659,488.935699 445.550751,479.999725 
	C445.289795,467.115540 445.445557,454.691132 445.497986,441.783905 
	C445.516418,439.335999 445.393372,437.357849 446.558289,435.100800 
	C450.957458,432.730988 455.167053,433.207336 459.810669,434.477356 
	C462.896973,441.012543 461.060822,447.578857 461.496979,454.473389 
	C461.687836,466.405121 461.556335,477.856049 461.508118,489.761169 
	C461.472961,494.353516 461.758148,498.522003 461.380554,502.623535 
	C460.366699,513.635925 470.260956,520.508545 478.491211,520.524597 
	C482.298035,520.532043 486.105865,520.502930 489.912201,520.575806 
	C492.050781,520.616760 494.247925,520.463623 496.394318,522.244263 
	C497.613922,524.467346 497.591492,526.481934 497.592682,528.475159 
	C497.619293,573.584656 497.627808,618.694153 497.593292,663.803650 
	C497.592407,664.969299 497.539734,666.133423 497.294128,667.718994 
	C496.581116,669.651733 495.931854,671.237244 494.243591,669.040588 
	C493.315308,667.832764 493.097900,666.299316 492.627289,664.882324 
	C481.750916,632.133911 459.387390,611.239868 426.696533,600.991882 
	C420.517548,599.054810 414.104828,598.158569 407.528320,596.401245 
z"/>
<path fill="#4B4C4E" opacity="1.000000" stroke="none" 
	d="
M330.070862,486.785767 
	C322.546204,495.068756 316.105011,503.927765 307.284424,511.037781 
	C305.032410,507.220703 306.926880,502.600586 304.759918,498.014069 
	C300.952881,502.549835 297.259888,506.733429 293.830078,511.122650 
	C291.978485,513.492126 290.758484,513.457153 288.930511,511.120514 
	C285.547607,506.796265 281.928009,502.657196 278.219421,498.162231 
	C278.566284,495.264282 280.949524,495.558716 282.707611,495.074188 
	C286.221924,494.105682 289.911560,493.847046 293.333313,492.411469 
	C285.663055,493.125366 278.298859,495.521973 270.709259,496.639954 
	C267.880463,497.056641 264.252411,499.480072 262.324890,496.707947 
	C260.536224,494.135498 263.530426,491.159210 264.844757,488.581116 
	C268.928833,480.569946 273.460571,472.802643 278.100281,465.097137 
	C279.789856,462.291168 282.006104,461.022278 285.320587,460.599915 
	C295.362000,459.320374 305.510742,458.995331 315.493530,457.207062 
	C308.340576,457.307739 301.254883,458.216248 294.146149,458.822418 
	C293.154694,458.906982 292.172241,459.216278 291.175812,459.188568 
	C288.915527,459.125732 286.145325,459.978912 284.811859,457.532928 
	C283.607056,455.322968 285.535461,453.445221 286.689178,451.682831 
	C291.980743,443.599518 297.845642,435.916748 303.350800,427.983795 
	C305.972137,424.206482 309.214203,422.306671 313.862976,422.685089 
	C319.155060,423.115845 324.259552,421.509827 329.483307,421.070465 
	C325.029907,420.903503 320.630951,421.306091 316.244293,421.950958 
	C314.444000,422.215637 312.238068,422.719604 311.192505,420.912323 
	C310.129028,419.074066 311.816467,417.451538 312.911346,416.076172 
	C320.586273,406.434540 328.605255,397.091400 337.302307,388.344482 
	C338.932770,386.704681 340.772797,385.245270 341.874023,383.108093 
	C334.420410,389.056946 328.579681,396.577972 322.230469,403.593750 
	C318.770813,407.416626 315.443726,411.366852 312.239166,415.415527 
	C311.234650,416.684601 310.196960,418.467560 308.287109,417.861694 
	C306.527985,417.303650 306.374847,415.310181 305.940582,413.720856 
	C305.389343,411.703461 305.388977,409.534058 303.849457,407.536316 
	C309.303772,418.807220 303.969177,427.138794 297.117340,435.285339 
	C293.159760,439.990753 289.994385,445.330963 286.552826,450.442200 
	C285.387604,452.172699 284.417145,454.777863 281.848694,454.260040 
	C279.294281,453.745087 279.483276,450.910522 278.930511,448.918823 
	C277.596283,444.111267 276.917297,439.139771 275.198761,434.411255 
	C276.088440,440.686035 277.513519,446.866699 279.098328,452.988678 
	C280.307190,457.658478 279.733002,461.654755 277.057434,465.758789 
	C271.965454,473.569153 267.518433,481.774628 263.277161,490.088165 
	C262.254333,492.093048 261.189514,495.087860 258.667358,494.771729 
	C255.960281,494.432404 256.293030,491.148193 255.811951,489.006561 
	C254.279602,482.184753 253.127151,475.280853 251.299774,468.511444 
	C252.655106,477.707245 254.690506,486.780609 256.385254,495.915253 
	C256.830078,498.312836 257.846954,500.835297 255.260315,503.105865 
	C248.901123,497.531158 248.899170,497.529541 243.458496,504.096008 
	C241.982529,505.877380 240.539093,507.685913 239.051544,509.457458 
	C235.240295,513.996399 235.233902,513.990784 231.469879,509.233948 
	C231.058990,508.714691 230.645844,508.197205 230.097321,507.368591 
	C228.238525,501.314148 229.597809,495.561615 230.154037,489.868896 
	C230.927734,481.950928 233.120285,474.258850 234.741241,466.041443 
	C235.111298,463.828003 236.354248,462.652008 237.833771,461.136719 
	C244.295258,443.910950 253.115982,428.537323 265.018738,414.597534 
	C267.109009,408.881714 271.827484,405.748383 275.782379,402.153290 
	C292.163818,387.262085 311.029022,376.958344 333.289459,372.439331 
	C337.200775,371.412903 340.845459,371.513885 344.418427,370.999359 
	C350.988525,370.053223 352.558472,371.280457 353.765076,377.778534 
	C353.974762,378.907745 354.200256,380.034363 354.354919,381.618988 
	C354.055725,390.015167 356.061462,397.959076 354.465454,406.356659 
	C354.682129,417.854614 352.772827,428.649200 350.312714,439.786133 
	C346.836090,453.430328 342.441742,466.290741 335.590088,478.611877 
	C333.581970,481.409454 332.458252,484.340698 330.070862,486.785767 
z"/>
<path fill="#808288" opacity="1.000000" stroke="none" 
	d="
M254.982208,503.550903 
	C255.818405,501.585571 255.985428,499.962067 255.569427,498.001709 
	C253.504333,488.270477 251.664001,478.491608 249.736633,468.731049 
	C249.469940,467.380432 248.158615,465.518097 250.570190,465.167236 
	C252.435760,464.895813 252.710693,466.742615 253.012253,468.289093 
	C254.708466,476.987701 256.473724,485.672821 258.383362,495.200439 
	C263.369202,488.603485 265.713165,481.571564 269.740021,475.531097 
	C270.290741,474.704926 270.491608,473.598145 271.148865,472.897552 
	C279.561768,463.930481 279.325256,453.770264 275.527100,443.001099 
	C274.537964,440.196503 273.989136,437.231079 273.326141,434.319489 
	C273.042633,433.074371 272.475647,431.408600 274.420227,431.101929 
	C276.061615,430.843018 276.597687,432.271667 276.898590,433.653931 
	C278.343292,440.290283 279.793640,446.925446 281.216309,453.443695 
	C283.363190,454.028931 283.689331,452.424988 284.373657,451.406677 
	C290.310394,442.572205 296.045013,433.566925 302.920990,425.438690 
	C306.466064,421.247955 303.893188,417.223907 303.773590,413.128632 
	C303.716370,411.169220 303.134918,409.201874 302.611237,407.287262 
	C302.249023,405.962982 302.309113,404.794098 303.709900,404.480835 
	C305.142395,404.160400 305.692627,405.350800 305.930298,406.586853 
	C306.616699,410.156738 307.294495,413.728271 308.055267,417.716461 
	C311.198181,415.804993 312.652802,412.930542 314.592987,410.610229 
	C322.812378,400.780518 331.231781,391.142181 340.368011,382.150452 
	C341.458557,381.077179 342.743042,378.900574 344.395905,380.591461 
	C346.058563,382.292450 343.798920,383.526398 342.735199,384.582581 
	C332.807800,394.439484 323.540070,404.884186 314.746063,415.755188 
	C313.614838,417.153656 312.587921,418.636597 310.805786,421.029541 
	C316.410553,420.507904 321.046051,420.092407 325.677185,419.632690 
	C326.663239,419.534790 327.631287,419.137238 328.611267,419.122589 
	C330.197144,419.098907 332.420197,418.629883 332.493958,421.001495 
	C332.556274,423.005432 330.514648,422.833313 329.054932,422.931305 
	C323.256348,423.320679 317.459717,423.859680 311.654846,423.979919 
	C309.038391,424.034088 307.194641,424.838043 305.741760,426.903931 
	C299.428558,435.880768 293.083099,444.834991 286.794678,453.829102 
	C286.068024,454.868439 284.775269,456.030212 285.545105,457.365173 
	C286.324677,458.717072 287.990540,458.094086 289.225769,457.983612 
	C297.814270,457.215485 306.399597,456.399170 314.970459,455.457397 
	C316.572693,455.281372 318.330811,454.891815 318.558929,456.817627 
	C318.798340,458.838989 316.806366,458.818451 315.319214,458.963684 
	C304.921631,459.979248 294.529938,461.063416 284.121399,461.950226 
	C282.211090,462.112976 281.057007,462.827484 280.122406,464.349396 
	C273.769379,474.694611 267.689545,485.187744 262.032654,497.077118 
	C271.420990,495.164642 280.027954,493.312958 288.680969,491.709503 
	C291.221680,491.238678 295.660400,489.000763 296.079346,491.573090 
	C296.695557,495.356598 291.732788,494.124329 289.196167,494.927399 
	C285.734558,496.023346 282.094940,496.556946 278.281708,497.607574 
	C277.640045,497.920349 277.248291,497.957184 276.560669,498.003601 
	C274.260071,499.653076 271.786194,500.030518 269.369324,500.337830 
	C264.849548,500.912537 260.790405,502.262207 257.499878,506.004120 
	C256.423737,505.271423 255.732971,504.559845 254.982208,503.550903 
z"/>
<path fill="#AEAFAF" opacity="1.000000" stroke="none" 
	d="
M237.769913,460.874359 
	C238.107330,462.308594 237.187088,463.380646 236.302490,464.837585 
	C233.274719,470.106354 232.845306,475.792755 231.611450,481.212646 
	C230.400131,486.533539 229.132294,491.839355 227.832306,497.137909 
	C227.481232,498.568787 227.172333,500.068604 225.442581,501.019928 
	C224.687759,500.595551 224.336304,500.173431 223.942703,499.471497 
	C226.028992,489.985077 228.000351,480.737854 230.365143,471.592407 
	C231.279068,468.057953 230.815735,465.260742 228.869324,462.204742 
	C222.071854,451.532257 214.535187,441.431183 206.302719,431.836090 
	C205.774429,431.220367 205.086426,430.677460 205.657990,428.524658 
	C216.064789,438.951660 223.910660,450.531616 232.110199,463.369995 
	C233.856735,454.097351 235.514847,445.874390 236.927429,437.609497 
	C238.042450,431.085632 238.798492,424.501099 239.834686,417.962677 
	C240.178650,415.792145 239.361038,414.191620 238.304062,412.406036 
	C233.021378,403.481750 226.120239,395.831543 219.448074,387.993652 
	C218.866821,387.310883 217.727249,386.759888 218.928558,384.812927 
	C227.076523,392.074036 232.867401,401.047302 239.170929,409.435242 
	C240.766968,409.311981 240.814056,408.216187 240.906036,407.267212 
	C242.304840,392.837097 242.054916,378.364807 242.027206,363.896515 
	C242.023697,362.067078 241.240875,360.801514 240.109650,359.486938 
	C234.479416,352.944122 228.924988,346.336060 223.345016,339.750000 
	C222.822739,339.133514 222.146408,338.576874 222.762909,336.732788 
	C230.226715,342.659790 234.774857,350.787140 241.461929,357.381561 
	C241.030945,335.815186 236.278061,315.177246 231.699387,294.495148 
	C239.456375,314.305634 242.220734,335.107758 244.182968,356.841400 
	C249.333923,350.412750 252.531387,343.423553 258.673035,337.343597 
	C258.639099,341.304779 256.580841,343.189972 255.102417,345.118591 
	C251.650360,349.621796 248.806915,354.493286 245.851700,359.301270 
	C244.900925,360.848145 244.039764,362.450897 244.027756,364.400909 
	C243.936646,379.192230 244.697464,394.002747 243.187912,408.950897 
	C250.375351,401.256714 255.313995,392.079437 260.994568,382.898590 
	C262.649384,385.020782 261.273865,386.399780 260.622345,387.642914 
	C256.835083,394.868988 252.416122,401.732361 247.304031,408.062317 
	C243.878677,412.303680 241.598434,416.717621 241.110443,422.204712 
	C240.023483,434.426422 237.595673,446.448425 235.281830,458.481537 
	C234.942780,460.244690 234.459183,462.073486 237.769913,460.874359 
z"/>
<path fill="#2E2D3E" opacity="1.000000" stroke="none" 
	d="
M351.532257,782.987671 
	C360.213745,786.288269 368.747070,788.502625 377.341553,790.986511 
	C361.575653,790.986511 345.809753,790.986511 329.591187,790.920349 
	C329.063416,788.853149 328.988281,786.852173 328.962952,784.424683 
	C335.715179,781.017578 342.711121,782.870239 349.586914,782.769043 
	C350.068878,782.761902 350.569794,782.917786 351.532257,782.987671 
z"/>
<path fill="#433E52" opacity="1.000000" stroke="none" 
	d="
M351.799164,782.722900 
	C347.257172,785.136169 342.262207,783.546082 337.400787,783.962891 
	C334.933685,784.174500 332.433472,784.000000 329.480499,783.999146 
	C327.441681,779.056091 328.440094,773.820679 327.205566,768.408386 
	C329.612762,767.824524 330.874664,769.864258 332.525513,771.101990 
	C338.483826,775.569580 344.843414,779.332703 351.799164,782.722900 
z"/>
<path fill="#4E4E4F" opacity="1.000000" stroke="none" 
	d="
M257.215820,506.301941 
	C260.770508,497.751038 268.977997,499.918060 275.827637,497.998535 
	C272.577026,502.619751 268.873077,507.213440 265.209534,511.839142 
	C263.761200,513.667786 262.582245,513.265625 261.335388,511.614349 
	C260.048523,509.910187 258.660767,508.282196 257.215820,506.301941 
z"/>
<path fill="#7D7E7F" opacity="1.000000" stroke="none" 
	d="
M225.164948,501.318420 
	C228.723785,490.910278 230.289154,480.262817 232.889221,469.879944 
	C233.357010,468.011902 233.724030,466.374847 235.784866,465.230255 
	C235.226105,473.348846 232.277649,481.182129 231.641037,489.456207 
	C231.211060,495.044495 230.585114,500.617676 230.003876,506.627991 
	C227.847198,505.723511 226.796875,503.475647 225.164948,501.318420 
z"/>
<path fill="#7D7E7F" opacity="1.000000" stroke="none" 
	d="
M196.058197,499.445740 
	C196.823700,498.138763 197.607864,497.173187 198.675903,496.073242 
	C203.974243,499.653503 206.336212,505.269562 209.242279,510.773163 
	C208.107391,514.039978 206.552811,513.242249 205.229950,511.496094 
	C202.237457,507.545959 198.375076,504.275574 196.058197,499.445740 
z"/>
<path fill="#AEAFAF" opacity="1.000000" stroke="none" 
	d="
M209.360062,510.961487 
	C205.851517,506.267273 202.561325,501.411743 199.115463,496.247498 
	C199.113022,495.400848 199.266235,494.862885 199.631119,494.137512 
	C203.597794,498.775818 207.152649,503.734772 210.046753,509.518311 
	C209.935349,510.172333 209.756882,510.486237 209.360062,510.961487 
z"/>
<path fill="#FFFFFF" opacity="1.000000" stroke="none" 
	d="
M108.829109,502.306824 
	C109.303741,502.470184 109.659065,502.948883 110.006821,503.742676 
	C109.569435,503.579285 109.139618,503.100708 108.829109,502.306824 
z"/>
<path fill="#FFFFFF" opacity="1.000000" stroke="none" 
	d="
M110.047455,504.252563 
	C110.251221,504.218597 110.556129,504.456207 110.942627,504.987030 
	C110.732346,505.028229 110.440468,504.776184 110.047455,504.252563 
z"/>
<path fill="#FFFFFF" opacity="1.000000" stroke="none" 
	d="
M107.899979,501.350403 
	C108.242683,501.190125 108.538887,501.363922 108.916809,501.794922 
	C108.616852,501.929565 108.235168,501.807007 107.899979,501.350403 
z"/>
<path fill="#EFBFD7" opacity="1.000000" stroke="none" 
	d="
M333.080353,373.341125 
	C305.875732,379.370209 284.105988,393.848541 265.397095,414.116882 
	C260.303467,411.174866 262.041382,407.408508 264.344757,403.965302 
	C268.401245,397.901398 273.708466,392.726898 277.131866,386.194275 
	C280.367249,380.020416 284.002136,373.965942 284.079651,366.696472 
	C284.155518,359.578918 279.911102,356.711182 273.375793,359.350159 
	C271.228271,360.217316 269.187439,361.512878 266.964111,361.992493 
	C262.878601,362.873779 260.665741,360.166992 261.810486,356.114990 
	C262.515259,353.620422 264.140961,351.736786 265.874603,349.941254 
	C272.547119,343.030487 276.392883,334.700317 278.313812,325.386658 
	C279.135956,321.400482 278.746277,317.583282 275.325134,315.035309 
	C272.002991,312.561066 268.678558,314.441376 265.547729,316.041534 
	C264.662842,316.493805 263.871368,317.125275 263.003204,317.614471 
	C255.086746,322.075226 249.430313,318.888184 249.018280,309.711334 
	C248.757584,303.905548 249.626587,298.073273 248.637543,292.283051 
	C247.832535,287.570435 245.494431,283.586273 242.416855,279.666168 
	C240.337891,277.413635 240.274078,274.852661 240.626129,272.390656 
	C242.167511,261.610901 241.334976,250.779602 241.482025,239.973175 
	C241.690643,224.640823 251.552002,214.593262 266.839905,214.524567 
	C284.321289,214.445999 301.803345,214.461395 319.284851,214.523285 
	C329.433533,214.559204 333.058350,217.480667 335.404297,227.206497 
	C336.844116,233.175690 339.235352,235.348068 345.518433,235.422333 
	C361.499908,235.611252 377.485138,235.627884 393.466278,235.414963 
	C399.958588,235.328461 402.148376,233.228531 403.691620,226.732178 
	C405.835815,217.706070 409.690399,214.576233 419.193665,214.531845 
	C437.008026,214.448654 454.823273,214.432861 472.637451,214.533096 
	C486.019287,214.608383 496.363098,224.237610 497.305115,237.757248 
	C497.801636,244.882919 497.785400,252.061676 497.057129,259.646729 
	C496.786835,260.350037 496.644562,260.615875 496.177673,261.192322 
	C492.011932,263.148773 487.964966,262.314453 484.011261,262.399475 
	C480.152771,262.482452 476.338989,262.764191 472.691772,264.015167 
	C466.292297,266.210175 461.650208,272.901154 461.491089,280.266693 
	C461.307739,288.753479 461.494171,297.244690 461.437378,306.184540 
	C461.704590,318.509430 461.531494,330.384674 461.507385,342.706238 
	C461.421082,348.635284 461.325134,354.119476 461.454559,359.599762 
	C461.710114,370.416901 468.560638,377.243713 479.309113,377.571960 
	C484.449585,377.728943 489.608704,377.174103 495.146729,378.132690 
	C495.805054,378.463654 496.048401,378.637177 496.538147,379.188904 
	C498.098938,387.066956 497.461365,394.602600 497.078949,402.565186 
	C496.826569,403.263794 496.693451,403.528656 496.256592,404.112457 
	C493.317261,405.846283 490.446625,405.338501 487.661285,405.385437 
	C483.521423,405.455231 479.390106,405.340790 475.301819,406.289276 
	C467.270599,408.152496 461.865448,414.636475 461.402374,422.877106 
	C461.182159,426.795380 462.263153,430.844574 459.981140,434.811737 
	C455.856659,435.007782 452.105377,435.006042 447.926514,435.005615 
	C444.769958,433.374542 445.377228,430.574768 445.563904,428.273499 
	C446.603638,415.456573 437.003784,408.194458 425.404175,408.406097 
	C404.093323,408.794800 382.770111,408.531189 361.452148,408.499603 
	C358.979645,408.495941 356.430664,408.834473 353.815735,407.164581 
	C353.329895,398.816162 353.154236,390.806244 353.017548,382.324646 
	C355.373413,380.027435 358.125580,380.508636 360.739990,380.502930 
	C380.356842,380.460144 399.973816,380.482147 419.590759,380.478638 
	C421.751556,380.478241 423.911102,380.472992 426.071014,380.339844 
	C439.292389,379.524872 446.452545,372.111664 445.546204,359.107483 
	C445.189026,353.982880 445.388062,348.805847 445.536072,343.185730 
	C445.288544,330.626373 445.452637,318.533875 445.490936,305.980286 
	C445.442200,298.029846 445.609558,290.539429 445.478333,283.051727 
	C445.296478,272.674164 438.713745,265.700287 428.253540,265.598053 
	C401.791443,265.339539 375.325134,265.352509 348.862793,265.591675 
	C338.434509,265.685944 331.652710,272.998230 331.508728,283.499756 
	C331.417480,290.156158 331.580994,296.814026 331.452698,303.932709 
	C331.711487,316.437500 331.543884,328.481201 331.505157,340.986694 
	C331.543823,347.216644 331.655487,352.992676 331.425232,358.750092 
	C331.230957,363.608643 332.350922,368.221191 333.080353,373.341125 
z"/>
<path fill="#3F3B50" opacity="1.000000" stroke="none" 
	d="
M496.452515,261.304596 
	C496.066559,253.829865 496.098724,246.666122 495.970734,239.505249 
	C495.723358,225.665527 486.168579,215.933624 472.304291,215.792984 
	C453.979370,215.607101 435.650970,215.686630 417.324554,215.768951 
	C410.042908,215.801666 406.019623,219.665604 405.171356,226.980667 
	C404.413788,233.513443 401.608154,236.845001 395.019440,236.968353 
	C378.036102,237.286331 361.039612,237.287689 344.055634,236.994598 
	C337.457092,236.880707 334.533844,233.512787 333.760040,227.080307 
	C332.851562,219.528015 328.841309,215.791672 321.206940,215.763107 
	C302.880432,215.694550 284.552246,215.614136 266.227081,215.786270 
	C252.368195,215.916428 242.910294,225.635925 242.755936,239.580109 
	C242.612091,252.572937 242.590622,265.567139 242.330658,279.032593 
	C240.585526,278.607819 239.025024,277.711151 237.224472,276.611694 
	C236.993347,263.754395 236.656570,251.087845 237.098618,238.448517 
	C237.651764,222.631989 245.745392,210.569382 261.946136,206.570908 
	C263.690857,206.140305 265.552063,206.027893 267.359344,206.027191 
	C335.460602,206.000702 403.561859,205.995850 471.663116,206.011597 
	C486.134003,206.014938 499.043701,217.867966 501.109772,232.131851 
	C502.457855,241.439163 501.602234,250.712753 501.989288,260.456055 
	C500.417053,262.325012 498.674561,262.469208 496.452515,261.304596 
z"/>
<path fill="#FAFAFA" opacity="1.000000" stroke="none" 
	d="
M194.095520,374.282776 
	C187.405853,379.141296 184.012619,386.279022 178.562134,392.471100 
	C178.562134,386.462616 178.579559,380.454010 178.552704,374.445648 
	C178.543304,372.343658 180.141129,372.325958 181.552765,371.847656 
	C193.815643,367.692657 200.133972,358.070160 204.426315,346.677368 
	C204.867661,345.505951 204.606598,344.069855 204.801651,342.365173 
	C210.921524,349.630310 217.005402,357.216217 222.836472,364.991730 
	C224.344864,367.003143 226.166779,369.702576 223.732101,372.172974 
	C221.119720,374.823761 218.237762,373.416840 215.588516,371.813385 
	C214.882980,371.386383 214.251587,370.837585 213.581787,370.350708 
	C204.553284,363.788544 200.345032,364.582581 194.095520,374.282776 
z"/>
<path fill="#FAFAFA" opacity="1.000000" stroke="none" 
	d="
M177.138672,424.288727 
	C177.328506,417.558136 177.899307,411.089447 178.003265,404.613281 
	C178.050125,401.694214 179.248901,400.682953 181.814865,399.902466 
	C187.711548,398.108917 193.226028,395.399109 198.647049,391.729858 
	C202.429398,392.770355 204.135834,396.086853 206.864655,398.621460 
	C202.810226,403.482666 197.201477,405.994019 192.111847,409.798523 
	C185.927292,410.462433 183.660324,412.906921 182.838043,420.129333 
	C182.233780,422.263794 181.696106,424.160797 179.469666,425.179749 
	C178.514938,424.973846 177.922134,424.760712 177.138672,424.288727 
z"/>
<path fill="#4E4E4F" opacity="1.000000" stroke="none" 
	d="
M192.208771,409.959595 
	C195.610550,405.004822 201.005798,402.166107 206.600601,399.050629 
	C211.295609,402.207062 215.220642,405.821198 216.925354,411.617249 
	C216.444519,415.169830 214.927628,417.671692 211.574966,419.128662 
	C205.936951,419.438995 203.105713,415.142273 199.340485,412.669342 
	C197.222198,411.278107 195.267578,409.849579 192.208771,409.959595 
z"/>
<path fill="#F3CAD4" opacity="1.000000" stroke="none" 
	d="
M211.416885,419.406342 
	C213.400345,417.218231 215.138718,414.965973 216.717377,412.181274 
	C218.629425,417.141083 217.007645,419.476227 211.416885,419.406342 
z"/>
<path fill="#505153" opacity="1.000000" stroke="none" 
	d="
M179.249054,425.460083 
	C180.199112,423.752838 181.290482,422.318695 182.668900,420.687195 
	C182.649094,423.082031 183.333725,425.544830 183.972656,428.418488 
	C182.468124,427.790314 180.929245,426.761749 179.249054,425.460083 
z"/>
<path fill="#F1CBCD" opacity="1.000000" stroke="none" 
	d="
M205.054871,470.657227 
	C203.239456,469.061829 204.269623,466.779022 204.027542,464.243561 
	C205.639465,465.771759 206.379898,467.886169 205.054871,470.657227 
z"/>
<path fill="#FAFAFA" opacity="1.000000" stroke="none" 
	d="
M204.921524,341.705048 
	C204.657486,341.870911 204.292831,341.672119 203.677216,341.232300 
	C203.891159,341.107635 204.356033,341.224030 204.921524,341.705048 
z"/>
<path fill="#F6C582" opacity="1.000000" stroke="none" 
	d="
M136.454437,401.811157 
	C139.242264,407.698425 142.990891,412.489258 147.155899,417.394775 
	C142.342712,419.121887 137.400223,420.538452 132.039307,421.992157 
	C132.241791,416.194000 132.364655,410.401703 130.091553,404.422424 
	C131.588272,401.988342 133.683426,401.325867 136.454437,401.811157 
z"/>
<path fill="#DF6864" opacity="1.000000" stroke="none" 
	d="
M172.111206,441.183777 
	C169.861008,442.342377 168.038666,442.576477 166.771530,440.319275 
	C166.061279,439.054077 165.905762,437.805298 167.063461,436.744385 
	C168.302734,435.608704 169.852280,435.647064 171.200272,436.317139 
	C173.200699,437.311554 173.331696,439.021210 172.111206,441.183777 
z"/>
<path fill="#DF6864" opacity="1.000000" stroke="none" 
	d="
M171.651215,454.549561 
	C172.170319,456.705872 172.464035,458.542145 170.415466,459.580475 
	C169.238098,460.177246 168.204163,459.637482 167.331299,458.803467 
	C166.015106,457.545807 165.445648,455.946808 166.496170,454.421844 
	C167.906006,452.375275 169.730347,452.616547 171.651215,454.549561 
z"/>
<path fill="#DF6864" opacity="1.000000" stroke="none" 
	d="
M185.808136,456.107117 
	C183.568878,457.481842 181.713593,457.457275 180.407776,455.355072 
	C179.752396,454.299957 179.888000,453.082855 180.634201,452.064178 
	C181.552582,450.810547 182.986176,450.650848 184.249191,451.076935 
	C186.594482,451.868134 187.170532,453.565796 185.808136,456.107117 
z"/>
<path fill="#EDA35D" opacity="1.000000" stroke="none" 
	d="
M91.369293,356.362000 
	C87.864723,357.567047 84.728203,358.625305 81.586525,359.667938 
	C78.358757,360.739136 75.585098,359.529877 74.632591,356.640961 
	C73.605476,353.525757 76.578339,352.678253 78.988144,351.875946 
	C88.712006,348.638367 98.421440,345.357452 108.137077,342.095184 
	C109.077972,341.779236 110.005226,341.377441 110.972656,341.194183 
	C114.001106,340.620422 115.887413,342.508667 116.688431,344.876434 
	C117.474083,347.198792 115.426529,348.348236 113.407867,349.018585 
	C106.184326,351.417328 98.959457,353.812103 91.369293,356.362000 
z"/>
<path fill="#EDA25C" opacity="1.000000" stroke="none" 
	d="
M136.697845,401.691040 
	C134.759720,402.676086 132.757721,403.309937 130.402176,403.988037 
	C125.299179,400.887604 123.067780,404.158417 120.673706,407.829285 
	C116.939606,409.073059 113.445724,410.117249 109.943703,411.133362 
	C108.834595,411.455170 107.714241,411.880554 106.580688,411.947418 
	C103.852615,412.108337 102.023079,410.366791 101.322899,408.123657 
	C100.500404,405.488678 103.077621,404.822632 104.872169,404.185455 
	C114.422356,400.794403 124.014259,397.520813 133.963272,394.074036 
	C135.101196,396.407623 135.867584,398.873718 136.697845,401.691040 
z"/>
<path fill="#F3ADAB" opacity="1.000000" stroke="none" 
	d="
M120.107475,440.474670 
	C118.031395,439.266083 116.126907,437.461243 114.075699,435.360809 
	C115.071075,433.809906 116.213165,432.554596 117.637901,431.155273 
	C118.706718,433.966980 119.492889,436.922729 120.107475,440.474670 
z"/>
<path fill="#FFFEFE" opacity="1.000000" stroke="none" 
	d="
M383.553284,604.492737 
	C389.265045,601.615784 395.206146,602.599304 400.788055,603.240723 
	C421.534454,605.624573 439.893494,613.752136 454.900970,628.478821 
	C488.712982,661.658081 491.619232,713.873474 461.909698,750.822205 
	C430.548218,789.825439 373.186462,795.821289 334.385468,764.032776 
	C309.134216,743.345032 298.458466,716.179626 301.227051,684.126892 
	C304.475006,646.524475 332.558014,614.859924 369.343109,605.701355 
	C371.098328,605.264282 372.934174,605.151062 375.193604,604.903931 
	C375.493164,609.701050 372.147644,613.028076 370.087006,616.921021 
	C367.270203,622.242371 367.201660,622.440735 373.280823,622.607544 
	C377.421295,622.721313 379.358368,624.395203 379.358795,628.616211 
	C379.360901,649.574158 379.373108,670.532104 379.348145,691.490051 
	C379.344788,694.306030 378.515442,696.662781 376.321564,698.558960 
	C373.727417,700.800964 372.985077,703.587341 374.917694,706.563416 
	C376.987823,709.751343 380.119141,710.121887 383.265472,708.560303 
	C386.417114,706.996033 389.330475,707.366943 392.394165,708.540527 
	C402.644409,712.467163 412.988953,716.138306 423.294678,719.914734 
	C428.960052,721.990784 429.745209,723.514648 428.053070,729.328613 
	C427.140472,732.464111 427.526764,733.710327 431.100922,733.100830 
	C436.675537,732.150146 442.207886,730.962280 447.803223,730.138367 
	C450.675873,729.715332 451.165955,728.576782 449.286774,726.263733 
	C447.938904,724.604736 446.334900,723.069397 445.761414,720.498596 
	C447.799164,718.257629 449.895081,719.440552 451.870697,720.091003 
	C456.455719,721.600281 460.929535,723.429321 465.502899,724.984619 
	C467.849548,725.782654 469.513580,725.508911 469.894012,722.801697 
	C474.325775,691.265076 472.882294,661.038635 448.981293,636.474731 
	C435.057678,622.164978 417.240845,615.523010 397.918884,612.408142 
	C394.637573,611.879150 391.341339,611.391235 387.656158,610.865295 
	C385.135956,609.344971 383.716614,607.478699 383.553284,604.492737 
z"/>
<path fill="#DF6864" opacity="1.000000" stroke="none" 
	d="
M407.244415,596.534302 
	C426.137329,597.946472 443.482971,603.991516 458.812592,615.359253 
	C477.381592,629.129211 489.324951,647.399048 495.608948,669.890503 
	C499.115692,674.207764 498.810608,679.272522 499.156036,683.911438 
	C499.906525,693.990540 500.126831,704.142273 497.408752,714.486877 
	C493.865173,728.917358 487.999329,741.819458 479.238037,753.788574 
	C470.590790,764.789856 460.351105,773.387146 448.458374,780.008972 
	C446.303589,781.208801 444.222473,782.683105 441.261169,782.817261 
	C431.732422,785.842957 422.729523,789.540039 412.471680,790.047241 
	C411.276154,790.243896 410.509277,790.452515 409.734406,790.663330 
	C409.224854,789.283752 410.076996,789.198303 410.899689,789.027527 
	C452.091217,780.476318 482.442078,747.725464 488.070862,705.934692 
	C494.387695,659.035522 464.907074,612.680237 416.607971,599.401672 
	C413.499146,598.546936 410.064148,598.899902 407.244415,596.534302 
z"/>
<path fill="#433E52" opacity="1.000000" stroke="none" 
	d="
M383.415710,603.921021 
	C384.686401,605.923157 385.684418,607.735779 386.909607,609.806458 
	C391.083435,612.371887 392.768982,616.377563 394.321625,620.281616 
	C395.750732,623.875000 394.382812,624.930481 388.154755,625.371643 
	C384.527405,625.258728 383.385010,626.912659 383.391083,629.999390 
	C383.431091,650.310486 383.088165,670.629150 383.616150,690.928406 
	C383.765839,696.685120 387.419159,701.700012 393.042267,703.908752 
	C403.418304,707.984436 413.926514,711.739563 424.432037,715.483521 
	C426.368011,716.173462 428.504181,717.589478 430.394836,714.636475 
	C434.045746,705.493469 435.437408,705.267944 441.355316,712.753296 
	C442.981506,714.810181 445.324585,716.393433 445.868591,719.588196 
	C448.381378,723.214722 450.927246,726.451965 453.938416,730.280884 
	C444.004913,731.989197 434.633850,733.600830 425.014893,735.255005 
	C425.180878,734.160156 425.181000,733.650940 425.338379,733.196106 
	C428.786713,723.231812 428.793304,723.224121 418.739258,719.526062 
	C409.078552,715.972717 399.394775,712.481201 389.757812,708.864807 
	C387.779602,708.122375 386.356812,707.905884 384.360718,709.348206 
	C380.457306,712.168640 376.361725,711.324585 373.824432,707.821289 
	C371.358582,704.416565 371.902374,700.341858 375.793243,697.364624 
	C377.565582,696.008362 377.841064,694.644165 377.838531,692.745361 
	C377.809418,671.099243 377.732727,649.452454 377.907257,627.807800 
	C377.935852,624.264099 376.608887,623.571777 373.565247,623.807373 
	C370.970612,624.008179 368.348114,623.848877 364.940247,623.848877 
	C368.635040,617.343384 371.968842,611.473511 375.478699,605.262207 
	C375.928406,604.512451 376.191315,604.096313 376.477600,603.696960 
	C377.599396,602.132263 377.968353,599.235657 379.825714,599.204590 
	C381.866699,599.170288 382.114502,602.095337 383.415710,603.921021 
z"/>
<path fill="#250D1D" opacity="1.000000" stroke="none" 
	d="
M510.787964,378.492828 
	C508.057190,378.953156 505.465088,378.970795 502.434052,378.971436 
	C500.151154,377.074585 500.407593,374.650482 500.404602,372.357697 
	C500.359467,337.740234 500.364136,303.122742 500.393463,268.505249 
	C500.395142,266.513184 500.353882,264.495178 501.687805,262.287231 
	C504.652985,261.948914 507.278229,261.979645 510.333313,262.039734 
	C510.853699,279.756531 510.943085,297.444061 511.036041,315.131561 
	C511.048218,317.446472 511.078766,319.761353 511.209961,322.532715 
	C511.254791,323.440643 511.190491,323.892120 511.229858,324.673218 
	C511.269867,325.451019 511.206268,325.899139 511.237823,326.676849 
	C512.278381,329.011719 512.071167,331.086945 511.517975,333.579773 
	C511.194763,348.675262 511.060669,363.362732 510.787964,378.492828 
z"/>
<path fill="#341124" opacity="1.000000" stroke="none" 
	d="
M502.021973,261.668396 
	C502.017883,300.621216 502.007996,339.324249 501.996643,378.490845 
	C501.995148,378.954376 501.988983,379.019531 501.985352,379.052063 
	C500.370636,380.360962 498.637238,380.466125 496.438293,379.349518 
	C496.071533,379.073792 495.957062,379.117401 495.909729,379.078491 
	C494.381592,377.220215 494.428314,375.029846 494.427399,372.878540 
	C494.423462,363.596619 494.314819,354.314392 494.494781,344.544800 
	C494.311035,331.705170 494.375671,319.353333 494.495972,306.512848 
	C494.263275,292.948486 494.441040,279.871704 494.428986,266.795410 
	C494.427460,265.140259 494.487793,263.476837 495.580536,261.568237 
	C495.896606,261.189606 495.970520,261.058167 496.038635,261.025238 
	C497.788086,260.985229 499.469452,260.978149 501.570496,260.945374 
	C501.990173,260.919647 502.016205,261.418640 502.021973,261.668396 
z"/>
<path fill="#FFFFFF" opacity="1.000000" stroke="none" 
	d="
M169.214844,335.741333 
	C169.212875,335.420868 169.443192,335.339539 169.673523,335.258179 
	C169.598068,335.498932 169.522614,335.739716 169.214844,335.741333 
z"/>
<path fill="#3E394E" opacity="1.000000" stroke="none" 
	d="
M495.690094,716.570679 
	C499.080811,701.127075 498.556183,686.044556 495.951721,670.546692 
	C495.908478,621.099548 495.932007,572.059143 496.132660,522.270996 
	C497.741608,520.732117 499.240875,520.784058 501.365845,521.616943 
	C501.974274,598.207336 502.086761,674.347778 501.910522,750.487610 
	C501.872528,766.892639 493.534119,779.231079 478.235443,783.390015 
	C477.755157,783.520630 477.291748,783.858948 476.821014,783.857910 
	C465.028564,783.830933 453.226257,784.608765 441.173401,783.119751 
	C454.327362,775.843933 466.581573,767.398987 476.138397,755.464539 
	C476.422272,755.110046 476.998810,754.989929 477.674438,754.549561 
	C478.954681,752.648010 480.840607,752.282349 482.434814,751.447571 
	C489.968689,747.502686 494.165039,741.239868 494.526733,732.788696 
	C494.753296,727.494751 495.060608,722.218628 495.690094,716.570679 
z"/>
<path fill="#240F19" opacity="1.000000" stroke="none" 
	d="
M510.595612,491.774292 
	C510.946136,501.784058 510.942535,511.432831 510.789795,521.523376 
	C508.043488,521.985046 505.446289,522.004944 502.407104,522.045959 
	C501.965118,522.067078 501.978149,522.030518 501.987244,522.014038 
	C501.215302,521.105652 500.653870,520.071106 500.637299,518.893005 
	C500.515167,510.208038 499.729828,501.509064 501.361023,492.416260 
	C504.370880,490.001740 507.271820,490.185303 510.595612,491.774292 
z"/>
<path fill="#FEFCFD" opacity="1.000000" stroke="none" 
	d="
M548.718750,451.563812 
	C555.388977,458.454132 559.170593,466.359161 560.145996,475.678131 
	C560.550354,479.541168 559.606750,480.929657 555.447021,480.856537 
	C541.619873,480.613586 527.785522,480.776184 513.489014,480.834229 
	C512.048889,481.211029 511.173126,481.793579 509.757263,482.087646 
	C505.179138,482.642914 500.979492,482.377930 496.354034,482.433441 
	C490.785736,482.523773 485.648224,482.527069 480.514099,482.428528 
	C474.578613,482.314606 473.115356,480.790253 473.710022,474.848633 
	C474.324768,468.706116 476.026794,462.822144 479.250183,457.016388 
	C483.188416,450.485718 488.441406,446.080261 495.386108,443.075287 
	C498.191376,442.159485 500.597961,441.276703 503.334839,440.131287 
	C505.900085,439.604889 508.077454,439.392456 510.580322,440.415161 
	C518.338013,440.868652 525.765442,440.698120 532.977600,442.944489 
	C538.725647,444.734833 543.996765,447.290192 548.718750,451.563812 
z"/>
<path fill="#230A1F" opacity="1.000000" stroke="none" 
	d="
M510.933960,440.207886 
	C508.790802,440.940887 506.645355,441.253632 504.104919,441.563110 
	C501.526154,441.574097 500.731964,439.998810 500.698547,438.311646 
	C500.483093,427.431793 499.412018,416.528229 501.673340,405.308929 
	C504.646332,404.958893 507.276581,404.988953 510.337830,405.047058 
	C510.881714,410.839264 510.994629,416.603424 511.185059,422.850708 
	C511.100769,426.901703 509.624329,430.479980 511.294189,434.377502 
	C511.137756,436.410675 511.034729,438.099152 510.933960,440.207886 
z"/>
<path fill="#FDFCFC" opacity="1.000000" stroke="none" 
	d="
M511.618164,434.837189 
	C508.397552,431.217773 507.996735,427.635986 511.080963,423.641693 
	C517.079651,420.874237 521.548889,422.002136 522.920898,426.447327 
	C523.796692,429.284760 523.619446,432.129730 521.174927,434.249390 
	C518.339355,436.708099 515.224182,436.921143 511.618164,434.837189 
z"/>
<path fill="#FFFFFF" opacity="1.000000" stroke="none" 
	d="
M511.413574,492.051758 
	C508.263885,492.094788 505.578064,492.054321 502.450867,492.089294 
	C500.390717,493.445282 498.486786,493.489746 496.078613,493.436249 
	C489.519623,493.702576 483.436859,493.559021 477.355377,493.519958 
	C475.386871,493.507294 473.380859,493.444672 471.515594,491.576172 
	C470.683929,486.008026 471.492310,484.799133 476.380402,484.536194 
	C482.443787,484.210022 488.522888,484.417419 495.070099,484.483856 
	C500.183136,484.429626 504.821503,484.478210 509.919556,484.568787 
	C510.995544,484.664948 511.595367,484.792389 512.615234,485.142761 
	C527.794128,485.408447 542.537109,485.488342 557.278137,485.700531 
	C559.097656,485.726685 561.948425,484.412903 562.165283,488.542816 
	C562.404175,492.242035 560.200684,492.005798 557.975830,491.999878 
	C542.609802,491.959015 527.243530,491.972290 511.413574,492.051758 
z"/>
<path fill="#DA497A" opacity="1.000000" stroke="none" 
	d="
M511.671692,333.884460 
	C511.255615,331.944611 511.182373,329.901367 511.221069,327.432281 
	C514.045471,329.014587 513.450073,331.355560 511.671692,333.884460 
z"/>
<path fill="#F3ADAB" opacity="1.000000" stroke="none" 
	d="
M120.238129,440.750824 
	C120.459694,440.979370 120.580399,441.314545 120.701111,441.649719 
	C120.494331,441.623077 120.287552,441.596466 120.008331,441.320374 
	C119.935890,441.070923 120.137268,440.857422 120.238129,440.750824 
z"/>
<path fill="#E06673" opacity="1.000000" stroke="none" 
	d="
M513.031738,484.926086 
	C512.548401,485.391479 512.045105,485.494751 511.176300,485.455750 
	C509.862762,484.132996 509.847290,482.879425 510.760803,481.254761 
	C511.447693,480.295013 512.050232,480.427063 512.842285,480.741333 
	C513.019897,482.111481 513.015808,483.337738 513.031738,484.926086 
z"/>
<path fill="#FEFCFD" opacity="1.000000" stroke="none" 
	d="
M510.557068,177.054932 
	C509.941284,174.252808 508.548218,171.712326 509.253845,168.495743 
	C512.637817,161.700775 517.018555,159.051682 522.438293,160.120804 
	C527.432678,161.106033 530.495422,164.986557 531.241882,171.588928 
	C528.009399,182.958862 519.207275,185.194672 510.557068,177.054932 
z"/>
<path fill="#350F29" opacity="1.000000" stroke="none" 
	d="
M502.012085,404.681915 
	C502.009705,415.196320 501.980164,425.463898 502.019287,435.731201 
	C502.026001,437.497589 501.510834,439.412994 503.334015,441.250977 
	C501.408051,442.295441 499.106232,443.031036 496.444824,443.778625 
	C494.788818,442.740448 494.548248,441.234619 494.526611,439.739410 
	C494.370361,428.940918 494.244812,418.141479 494.590240,407.343872 
	C494.617035,406.507172 494.897064,405.715149 495.576660,404.580200 
	C495.893616,404.201172 495.966888,404.070984 496.036438,404.043823 
	C497.678131,402.635559 499.403748,402.543854 501.615906,403.673340 
	C501.989044,403.941467 502.008087,404.434998 502.012085,404.681915 
z"/>
<path fill="#3E394E" opacity="1.000000" stroke="none" 
	d="
M501.990967,403.478638 
	C500.307800,403.963013 498.626526,403.984558 496.525635,404.011353 
	C496.070099,396.007996 496.034210,387.999390 496.034912,379.532288 
	C497.760529,379.058411 499.449554,379.043030 501.560120,379.056152 
	C501.985413,387.061676 501.989136,395.038727 501.990967,403.478638 
z"/>
<path fill="#FEFCFD" opacity="1.000000" stroke="none" 
	d="
M247.409607,171.575714 
	C245.940536,176.200867 243.415619,179.223099 238.511215,179.012421 
	C233.820602,178.810928 230.907349,176.322403 229.759689,171.341202 
	C230.555634,164.680740 233.789780,161.196289 238.681580,161.233322 
	C243.624237,161.270737 246.864822,164.976135 247.409607,171.575714 
z"/>
<path fill="#FEF9FB" opacity="1.000000" stroke="none" 
	d="
M506.904572,127.342636 
	C503.091736,128.248215 499.318939,128.798965 495.533203,129.238007 
	C492.688446,129.567902 491.410248,130.819565 492.130615,133.837158 
	C492.667511,136.086304 492.918549,138.406143 493.248840,140.701431 
	C493.567291,142.914734 495.515076,145.561905 491.002563,146.124710 
	C487.132843,146.607330 485.342804,145.884354 484.877258,141.566666 
	C483.782776,131.415375 483.558319,131.395081 473.343689,132.910126 
	C469.878662,133.424042 466.912109,133.513885 466.846375,128.372787 
	C466.878540,126.724060 466.528778,125.229706 468.527283,125.020622 
	C469.993744,124.867195 471.431549,124.457840 472.891174,124.217773 
	C482.359619,122.660545 482.330078,122.671127 480.542755,113.004951 
	C480.038086,110.275558 478.412903,107.430244 483.546753,106.611275 
	C487.548523,105.972916 488.333282,107.290886 488.833557,110.555130 
	C490.474426,121.261703 490.534485,121.252510 500.922791,119.993210 
	C506.822266,119.278069 506.868256,119.331146 506.904572,127.342636 
z"/>
<path fill="#DC5060" opacity="1.000000" stroke="none" 
	d="
M329.750214,487.474792 
	C330.457642,484.127167 332.181061,481.899078 333.922852,479.290405 
	C335.097626,478.315735 336.188690,477.824158 337.379578,478.025818 
	C345.141663,479.340057 352.942657,477.502838 360.725952,478.410431 
	C366.696320,479.106598 372.688385,477.196167 378.578735,477.633209 
	C396.276062,478.946198 413.979706,476.738068 431.668945,478.184387 
	C436.551880,478.583679 441.598419,476.974640 446.679932,479.735504 
	C447.091431,488.487518 447.265320,496.969696 447.146820,505.447784 
	C446.991119,516.589355 439.235992,524.652344 427.952972,524.746521 
	C401.672760,524.966003 375.388214,524.966064 349.108002,524.747070 
	C337.619354,524.651367 329.982025,516.496704 329.821564,505.015961 
	C329.742523,499.361298 329.780914,493.704987 329.750214,487.474792 
z"/>
<path fill="#D74167" opacity="1.000000" stroke="none" 
	d="
M447.105591,479.540619 
	C438.052551,479.671448 429.029297,478.754791 420.071503,479.188782 
	C413.232269,479.520081 406.355621,478.412445 399.532104,479.918457 
	C395.095947,480.897583 390.678406,479.244537 386.236511,478.948151 
	C378.091858,478.404663 370.065002,480.749176 361.973450,479.933929 
	C352.972321,479.027069 343.887024,481.296906 334.537476,479.006561 
	C340.391022,467.084961 345.365204,454.668213 348.666321,441.244995 
	C350.864868,439.328918 353.234955,439.395935 355.560913,439.393524 
	C383.847778,439.364227 412.134644,439.363861 440.421509,439.394470 
	C442.411377,439.396606 444.434052,439.337585 446.649261,440.710754 
	C447.089691,453.695923 447.126617,466.385010 447.105591,479.540619 
z"/>
<path fill="#D3376F" opacity="1.000000" stroke="none" 
	d="
M447.114136,440.579529 
	C414.657867,441.001465 382.262970,440.996124 349.391907,440.981262 
	C350.669922,429.932861 353.102173,418.982269 353.373962,407.279724 
	C377.150177,406.864685 400.807678,407.384766 424.434326,406.752838 
	C437.628906,406.399933 448.625580,414.031830 447.217255,429.604431 
	C447.083130,431.087402 447.253754,432.597931 447.390869,434.551331 
	C447.391083,436.722046 447.283295,438.437103 447.114136,440.579529 
z"/>
<path fill="#D43B6D" opacity="1.000000" stroke="none" 
	d="
M495.434570,404.216309 
	C495.947144,417.094574 496.000671,429.987976 496.069702,443.336029 
	C490.434082,446.737183 485.183838,450.167603 481.405518,455.889771 
	C474.318207,456.776550 467.523132,457.154236 460.403412,455.289581 
	C459.952667,448.645966 459.873352,442.287750 459.700989,435.469543 
	C459.699249,431.703430 459.845856,428.397705 459.872162,425.091064 
	C459.975220,412.138702 467.544891,404.470337 480.560272,404.257721 
	C485.364227,404.179230 490.170349,404.236267 495.434570,404.216309 
z"/>
<path fill="#DC525E" opacity="1.000000" stroke="none" 
	d="
M471.571289,490.700745 
	C476.366760,493.171082 481.054779,491.572449 485.601624,491.948425 
	C488.746613,492.208496 491.929108,492.015320 495.561188,492.089508 
	C496.627136,492.759033 497.153625,493.464355 497.191986,494.307739 
	C497.599121,503.254333 498.298462,512.208130 496.500854,521.527710 
	C496.217804,521.929504 496.018005,522.020142 495.916687,522.062134 
	C489.990021,522.085693 484.155090,521.848267 478.341522,522.101257 
	C470.148102,522.457703 458.741821,513.849548 459.853546,503.905365 
	C460.294495,499.960968 459.914551,495.924835 459.971985,491.465698 
	C463.641968,488.721313 467.393097,489.139709 471.571289,490.700745 
z"/>
<path fill="#D94864" opacity="1.000000" stroke="none" 
	d="
M472.034180,490.564026 
	C468.285248,490.999512 464.617493,490.999817 460.492676,491.000519 
	C459.990570,479.311646 459.945526,467.622345 459.966248,455.468597 
	C466.794373,455.420929 473.617371,454.117218 480.729645,455.890900 
	C477.765503,462.640930 475.486847,469.506287 475.078278,476.964233 
	C474.926300,479.737640 475.658508,480.881561 478.612915,480.790131 
	C484.104858,480.620178 489.606720,480.769348 495.566956,480.881195 
	C496.968719,482.070953 497.151947,483.286835 496.374817,484.926727 
	C489.571381,486.090240 482.973419,485.652954 476.404572,485.531372 
	C472.750519,485.463776 471.714905,486.885620 472.034180,490.564026 
z"/>
<path fill="#DB5060" opacity="1.000000" stroke="none" 
	d="
M333.362793,373.791260 
	C329.197601,368.119781 329.806000,361.714874 329.814972,355.412842 
	C329.820892,351.253113 329.830231,347.093353 329.898071,342.468109 
	C332.739197,339.830414 336.003082,340.505951 339.100922,340.590912 
	C355.993896,341.054199 372.862671,341.288544 389.781555,340.751251 
	C406.697815,340.214020 423.671448,340.029663 440.610840,340.901215 
	C442.606262,341.003906 444.586792,341.313751 446.679749,342.728516 
	C447.088165,348.490143 446.821838,354.003418 447.246246,359.463013 
	C448.280701,372.771729 439.907318,381.944336 424.873657,381.858643 
	C401.244049,381.723938 377.613068,381.828003 353.519592,381.841980 
	C351.241302,372.153625 351.239471,372.129761 341.057007,372.910126 
	C338.619751,373.096924 336.199097,373.500549 333.362793,373.791260 
z"/>
<path fill="#D3386F" opacity="1.000000" stroke="none" 
	d="
M330.346283,304.287354 
	C329.920288,296.683472 329.704132,289.358521 329.886932,282.043579 
	C330.141205,271.871368 337.915222,264.054138 348.082550,264.003235 
	C375.045532,263.868225 402.010162,263.863037 428.973053,264.007568 
	C439.163727,264.062195 446.850067,271.870514 447.120850,282.103302 
	C447.314453,289.421265 447.160004,296.748444 447.100983,304.537415 
	C445.658264,306.176544 444.031525,306.177490 442.326874,306.121918 
	C414.711792,305.221649 387.100159,305.517365 359.477448,305.948730 
	C349.927643,306.097809 340.220673,306.869598 330.346283,304.287354 
z"/>
<path fill="#D74366" opacity="1.000000" stroke="none" 
	d="
M329.897888,304.469116 
	C339.331207,304.050964 348.797852,305.151581 358.034027,304.619781 
	C376.327515,303.566467 394.581512,304.334137 412.846008,304.083588 
	C423.947327,303.931244 435.102325,303.190430 446.602814,305.002014 
	C447.077576,317.358521 447.114014,329.713715 447.095398,342.535095 
	C408.346100,340.232849 369.592773,344.330627 330.426422,342.001831 
	C329.917816,329.646484 329.877563,317.290375 329.897888,304.469116 
z"/>
<path fill="#D3396F" opacity="1.000000" stroke="none" 
	d="
M495.437256,261.204834 
	C495.919037,275.817596 495.941467,290.445557 495.899628,305.538391 
	C491.937286,308.693054 487.464478,307.694153 483.351562,307.392548 
	C475.828094,306.840851 468.240875,308.407776 460.416138,306.288452 
	C459.989349,297.875641 459.860657,289.751038 459.893494,281.627075 
	C459.943451,269.270477 467.549622,261.587158 480.050995,261.256073 
	C485.023438,261.124390 490.002075,261.225128 495.437256,261.204834 
z"/>
<path fill="#D74465" opacity="1.000000" stroke="none" 
	d="
M459.982269,306.465149 
	C471.671478,306.000336 483.297241,306.000671 495.379211,306.002136 
	C495.879517,318.359741 495.923676,330.716187 495.902039,343.537231 
	C491.802490,346.781433 487.167175,345.494446 482.858124,345.583038 
	C475.507355,345.734192 468.073273,346.360779 460.418274,344.287720 
	C460.005249,331.642731 459.962067,319.286530 459.982269,306.465149 
z"/>
<path fill="#DB505F" opacity="1.000000" stroke="none" 
	d="
M459.985046,344.464172 
	C471.674988,343.999573 483.301514,344.000183 495.382141,344.001282 
	C495.883759,355.370331 495.931335,366.738800 495.920654,378.573456 
	C490.062744,379.040497 484.261719,379.122101 478.463715,379.024597 
	C468.104950,378.850464 460.252747,371.153046 459.958313,360.835327 
	C459.807159,355.537292 459.925201,350.231598 459.985046,344.464172 
z"/>
<path fill="#1C202A" opacity="1.000000" stroke="none" 
	d="
M370.853302,219.011932 
	C374.629364,219.087906 378.227570,218.587677 378.072205,223.793182 
	C377.986877,226.652328 377.020905,228.132767 374.004852,228.042267 
	C371.033569,227.953110 368.057251,228.000656 365.083588,228.031189 
	C361.898102,228.063904 359.993683,226.672943 360.068512,223.345383 
	C360.137848,220.263901 362.022980,219.006012 364.942444,219.014191 
	C366.759857,219.019302 368.577301,219.013046 370.853302,219.011932 
z"/>
<path fill="#505153" opacity="1.000000" stroke="none" 
	d="
M395.879974,224.153992 
	C394.478088,229.342056 391.809845,231.162018 388.888794,229.224747 
	C386.871765,227.887024 385.482269,226.056686 386.105042,223.408478 
	C386.564545,221.454559 387.844452,220.330002 389.854462,220.019852 
	C392.942017,219.543472 394.941010,220.752167 395.879974,224.153992 
z"/>
<path fill="#F7D1BB" opacity="1.000000" stroke="none" 
	d="
M387.681061,624.431335 
	C389.910400,623.953613 391.860229,623.833984 394.763916,623.655762 
	C392.095306,619.052917 389.677734,614.883118 387.198425,610.388916 
	C420.435852,612.617065 448.442108,624.236572 464.368958,655.897888 
	C470.096313,667.283447 472.874573,679.559692 473.022308,692.350220 
	C473.146790,703.126587 473.394196,713.900269 471.090912,724.559265 
	C470.460815,727.475098 469.668823,728.059387 466.808563,727.021179 
	C460.120575,724.593689 453.625763,721.583496 446.238831,719.990112 
	C443.271576,716.973145 440.531586,714.098633 438.193024,710.928101 
	C435.831299,707.726196 434.282776,707.228943 433.184631,711.634949 
	C433.025452,712.273499 432.746643,712.882263 432.280212,713.767700 
	C430.602509,715.046814 429.156494,714.496216 427.744934,714.010193 
	C415.776306,709.889160 403.963562,705.340454 392.075470,700.998291 
	C388.349213,699.637146 386.513519,697.189819 386.514526,693.106812 
	C386.519867,671.787842 386.501923,650.468872 386.542847,629.149902 
	C386.545715,627.650391 386.619720,626.144958 387.681061,624.431335 
z"/>
<path fill="#F1CBCD" opacity="1.000000" stroke="none" 
	d="
M495.589722,716.449585 
	C495.888123,721.151489 496.049927,726.110596 495.991638,731.067139 
	C495.855316,742.660889 489.818054,750.661926 478.297668,754.266602 
	C479.117004,750.079590 482.457825,747.109192 484.573608,743.378845 
	C489.361084,734.938110 493.131409,726.151855 495.589722,716.449585 
z"/>
<path fill="#FDFCFC" opacity="1.000000" stroke="none" 
	d="
M387.520081,623.977295 
	C387.971527,646.823669 388.129303,669.575745 387.869873,692.323059 
	C387.817810,696.886902 389.572632,698.689087 393.520477,700.076416 
	C406.172272,704.522583 418.713654,709.282776 431.667450,713.976196 
	C431.872253,718.597778 430.071075,719.336731 425.770416,717.630371 
	C414.348114,713.098267 402.722412,709.079224 391.182495,704.842834 
	C387.844177,703.617310 382.008453,695.309448 382.007690,691.801331 
	C382.002991,670.810486 382.136353,649.818176 381.895416,628.830139 
	C381.846954,624.607422 382.952423,623.032349 387.520081,623.977295 
z"/>
<path fill="#361621" opacity="1.000000" stroke="none" 
	d="
M496.629181,521.958008 
	C496.146698,512.309692 496.075623,502.689819 496.016052,492.612183 
	C497.740631,492.107513 499.453735,492.060699 501.588196,492.089294 
	C502.006073,501.796722 502.002563,511.428772 501.997711,521.529175 
	C500.344421,521.993896 498.692474,521.990234 496.629181,521.958008 
z"/>
<path fill="#250D1D" opacity="1.000000" stroke="none" 
	d="
M496.584290,485.333862 
	C496.102997,484.054047 496.071991,482.873138 496.035248,481.334473 
	C500.713959,480.908936 505.398376,480.841125 510.543457,480.855408 
	C510.979828,482.157745 510.955597,483.378021 510.871094,484.955872 
	C506.218750,485.353210 501.626678,485.392975 496.584290,485.333862 
z"/>
</svg>