<svg width="251" height="314" viewBox="0 0 251 314" fill="none" xmlns="http://www.w3.org/2000/svg">
<g filter="url(#filter0_d_2094_349)">
<g opacity="0.4">
<path opacity="0.45" d="M165.713 27.858H57.4699C57.4699 26.0894 57.9555 24.3548 58.8737 22.8433C59.792 21.3318 61.1076 20.1015 62.6772 19.2865C64.2467 18.4715 66.01 18.1031 67.7745 18.2215C69.5391 18.3399 71.2373 18.9406 72.6839 19.958C72.9275 15.0216 74.9135 10.3314 78.2888 6.72113C81.6642 3.11082 86.2103 0.814198 91.1191 0.239436C96.028 -0.335327 100.982 0.849 105.1 3.58193C109.218 6.31487 112.234 10.4194 113.611 15.166C116.322 12.5965 119.917 11.1667 123.653 11.172C129.858 11.172 135.163 16.783 137.289 22.241C140.51 20.7083 144.037 19.9257 147.605 19.952C155.94 19.948 163.032 22.225 165.713 27.858Z" fill="url(#paint0_linear_2094_349)"/>
<g opacity="0.45">
<g opacity="0.45">
<path opacity="0.45" d="M245.76 81.5011C245.039 80.0729 243.883 78.9106 242.459 78.1817C241.035 77.4527 239.416 77.1948 237.836 77.4451C237.264 75.9451 234.057 69.2401 224.078 74.8641C223.287 72.8641 218.773 63.0641 208.766 69.9451C208.537 68.2186 207.879 66.5771 206.851 65.1711C205.007 62.7851 202.19 61.9081 198.48 62.5711C195.122 63.1711 192.874 64.9221 191.8 67.7881C191.039 70.1078 190.899 72.5866 191.395 74.9771C189.344 75.0601 180.311 75.7591 179.369 81.6481L179.28 82.2051H246.071L245.76 81.5011Z" fill="url(#paint1_linear_2094_349)"/>
</g>
</g>
<g opacity="0.45">
<g opacity="0.45">
<path opacity="0.45" d="M64.3879 123.009C63.8132 121.648 62.8067 120.513 61.5237 119.781C60.2408 119.048 58.7524 118.757 57.2879 118.953C56.7769 117.453 53.9039 110.748 44.9619 116.372C44.2519 114.372 40.2089 104.572 31.2429 111.453C31.0453 109.751 30.4585 108.118 29.528 106.679C27.876 104.293 25.353 103.418 22.028 104.079C20.6399 104.296 19.3414 104.9 18.2825 105.823C17.2236 106.747 16.4476 107.95 16.0439 109.296C15.361 111.631 15.2366 114.093 15.6809 116.485C13.8429 116.568 5.74994 117.267 4.90594 123.156L4.82593 123.713H64.6649L64.3879 123.009Z" fill="url(#paint2_linear_2094_349)"/>
</g>
</g>
</g>
<path d="M28.2909 178.947C25.6388 178.948 23.0461 178.161 20.8407 176.688C18.6354 175.215 16.9164 173.121 15.9012 170.671C14.886 168.221 14.6202 165.525 15.1374 162.923C15.6545 160.322 16.9314 157.933 18.8066 156.057C20.6818 154.182 23.0711 152.905 25.6722 152.387C28.2734 151.869 30.9696 152.135 33.4199 153.15C35.8702 154.165 37.9645 155.883 39.438 158.088C40.9114 160.293 41.6979 162.886 41.6979 165.538C41.6939 169.093 40.2803 172.501 37.7669 175.015C35.2535 177.528 31.8456 178.943 28.2909 178.947ZM28.2909 156.185C26.4411 156.185 24.6328 156.734 23.0947 157.761C21.5566 158.789 20.3578 160.25 19.6499 161.959C18.942 163.668 18.7568 165.549 19.1176 167.363C19.4785 169.177 20.3693 170.844 21.6773 172.152C22.9854 173.46 24.652 174.351 26.4663 174.711C28.2806 175.072 30.1611 174.887 31.8701 174.179C33.5792 173.471 35.0399 172.273 36.0677 170.734C37.0954 169.196 37.644 167.388 37.644 165.538C37.6413 163.058 36.6551 160.681 34.9017 158.927C33.1483 157.173 30.7709 156.186 28.2909 156.183V156.185Z" fill="url(#paint3_linear_2094_349)"/>
<path d="M209.648 289.238C204.507 289.238 199.482 287.714 195.208 284.858C190.933 282.002 187.602 277.942 185.634 273.193C183.667 268.443 183.152 263.217 184.155 258.175C185.158 253.133 187.634 248.502 191.269 244.867C194.904 241.232 199.535 238.756 204.577 237.754C209.619 236.751 214.845 237.265 219.595 239.233C224.344 241.2 228.403 244.531 231.259 248.806C234.115 253.08 235.64 258.105 235.64 263.246C235.632 270.137 232.891 276.744 228.018 281.617C223.146 286.489 216.539 289.23 209.648 289.238ZM209.648 241.31C205.309 241.31 201.068 242.597 197.461 245.007C193.854 247.417 191.042 250.843 189.382 254.852C187.721 258.86 187.287 263.271 188.133 267.526C188.98 271.781 191.069 275.689 194.137 278.757C197.205 281.825 201.113 283.914 205.368 284.761C209.624 285.607 214.034 285.173 218.042 283.512C222.051 281.852 225.477 279.041 227.887 275.433C230.297 271.826 231.584 267.585 231.584 263.246C231.577 257.43 229.264 251.855 225.152 247.742C221.039 243.63 215.464 241.317 209.648 241.31Z" fill="url(#paint4_linear_2094_349)"/>
<path d="M120.172 98.2731C115.031 98.2731 110.006 96.7487 105.731 93.8926C101.457 91.0366 98.1257 86.9772 96.1584 82.2278C94.1912 77.4784 93.6764 72.2522 94.6793 67.2103C95.6822 62.1683 98.1577 57.537 101.793 53.902C105.428 50.2669 110.059 47.7914 115.101 46.7885C120.143 45.7856 125.369 46.3003 130.119 48.2676C134.868 50.2349 138.927 53.5663 141.783 57.8407C144.639 62.1151 146.164 67.1403 146.164 72.2811C146.156 79.1721 143.415 85.7787 138.542 90.6514C133.669 95.5241 127.063 98.2651 120.172 98.2731ZM120.172 50.3451C115.833 50.3455 111.593 51.6323 107.985 54.0429C104.378 56.4535 101.567 59.8796 99.9071 63.8879C98.2471 67.8962 97.813 72.3068 98.6596 76.5618C99.5062 80.8168 101.596 84.7253 104.663 87.7929C107.731 90.8605 111.64 92.9495 115.895 93.7957C120.15 94.642 124.561 94.2074 128.569 92.5471C132.577 90.8867 136.003 88.0752 138.413 84.4679C140.823 80.8605 142.11 76.6195 142.11 72.2811C142.104 66.4648 139.79 60.8886 135.677 56.7759C131.564 52.6633 125.988 50.3502 120.172 50.3441V50.3451Z" fill="url(#paint5_linear_2094_349)"/>
<path d="M82.715 292.218C82.715 292.218 82.8599 280.482 94.4509 280.482C94.4509 280.482 82.715 280.337 82.715 268.746C82.715 268.746 82.5699 280.482 70.9789 280.482C70.9789 280.482 82.715 280.627 82.715 292.218Z" fill="#F9CA24"/>
<path d="M37.644 72.793C37.644 72.793 37.788 61.059 49.378 61.059C49.378 61.059 37.644 60.914 37.644 49.323C37.644 49.323 37.499 61.059 25.908 61.059C25.908 61.059 37.644 61.202 37.644 72.793Z" fill="#F9CA24"/>
<path d="M54.0909 306.001C54.0909 306.001 54.176 299.109 60.983 299.109C60.983 299.109 54.0909 299.024 54.0909 292.218C54.0909 292.218 54.006 299.109 47.2 299.109C47.201 299.109 54.0909 299.195 54.0909 306.001Z" fill="#F9CA24"/>
<path d="M225.044 203.859C225.044 203.859 225.129 196.968 231.935 196.968C231.935 196.968 225.044 196.883 225.044 190.076C225.044 190.076 224.959 196.968 218.152 196.968C218.152 196.968 225.044 197.053 225.044 203.859Z" fill="#F9CA24"/>
<path d="M190.651 37.628C190.651 37.628 190.736 30.736 197.543 30.736C197.543 30.736 190.651 30.651 190.651 23.845C190.651 23.845 190.566 30.736 183.76 30.736C183.76 30.736 190.651 30.822 190.651 37.628Z" fill="#F9CA24"/>
<path d="M60.9839 98.1299C60.9839 98.1299 61.0689 91.2389 67.8749 91.2389C67.8749 91.2389 60.9839 91.1529 60.9839 84.3469C60.9839 84.3469 60.8979 91.2389 54.0919 91.2389C54.0919 91.2389 60.9839 91.3239 60.9839 98.1299Z" fill="#F9CA24"/>
<path d="M109.756 226.01V215.405H100.243V227.105L108.791 227.941L109.756 226.01Z" fill="#FFABAB"/>
<path d="M112.422 241.319H80.3049V239.684C80.3058 239.298 80.3372 238.912 80.3989 238.531C80.6145 237.155 81.2232 235.871 82.1518 234.832C83.0804 233.794 84.2893 233.047 85.6329 232.68C90.9079 231.21 98.1889 228.361 98.0969 223.888L98.129 223.877C99.1204 223.662 100.156 223.814 101.044 224.304C101.933 224.793 102.614 225.588 102.962 226.541L110.376 225.163C111.638 229.511 112.326 234.005 112.423 238.531C112.454 239.694 112.44 240.65 112.422 241.319Z" fill="#FDC349"/>
<path d="M112.422 241.319H80.3049V239.684C80.3058 239.298 80.3372 238.912 80.3989 238.531H112.422C112.454 239.694 112.44 240.65 112.422 241.319Z" fill="#DBA941"/>
<path d="M171.185 166.173V171.747C171.185 173.123 170.914 174.486 170.388 175.757C169.861 177.029 169.089 178.184 168.116 179.157C167.143 180.13 165.988 180.902 164.716 181.428C163.445 181.955 162.082 182.226 160.706 182.226H111.496V222.526H94.9709V178.836C94.9708 177.173 95.2982 175.526 95.9344 173.99C96.5707 172.454 97.5033 171.058 98.6791 169.882C99.8549 168.706 101.251 167.773 102.787 167.137C104.323 166.5 105.97 166.173 107.633 166.173H171.185Z" fill="#29293D"/>
<path d="M150.308 104.436C150.11 105.049 150.071 105.703 150.196 106.336L151.579 113.29L141.413 115.329L140.1 107.342C139.277 107.542 138.425 107.719 137.545 107.927C136.707 108.127 135.87 108.305 135.06 108.458C134.672 108.535 134.271 108.525 133.887 108.428C133.503 108.332 133.145 108.151 132.839 107.9C132.825 107.9 132.825 107.9 132.812 107.886C132.644 107.686 132.476 107.494 132.295 107.286C132.281 107.272 132.268 107.257 132.268 107.244C127.479 101.505 127.813 98.7818 128.833 96.6028C129.503 95.1798 130.341 94.0618 130.341 92.4278C129.532 86.5068 133.748 82.1658 139.124 80.7958C140.496 80.4537 141.91 80.3079 143.324 80.3628C144.737 80.4196 146.13 80.7169 147.443 81.2418H147.457C148.519 81.6599 149.519 82.2193 150.431 82.9048C151.982 84.0398 153.259 85.5091 154.166 87.204C155.072 88.8989 155.586 90.7761 155.67 92.6965C155.753 94.617 155.403 96.5316 154.646 98.2986C153.89 100.066 152.745 101.64 151.298 102.905C150.838 103.318 150.496 103.847 150.308 104.436Z" fill="#FFA9A9"/>
<path d="M155.671 92.7179C155.75 94.6333 155.398 96.542 154.642 98.3036C153.885 100.065 152.744 101.635 151.301 102.897C150.839 103.312 150.497 103.842 150.309 104.434L145.533 100.062C145.533 100.062 147.348 97.9679 145.033 94.9939C143.433 92.9379 141.962 94.4939 141.207 95.6459C141.162 95.7155 141.097 95.7695 141.02 95.8003C140.943 95.8312 140.858 95.8375 140.778 95.8183C140.697 95.7991 140.625 95.7553 140.57 95.6931C140.516 95.6309 140.482 95.5533 140.473 95.4709C140.001 92.847 140.395 90.1408 141.597 87.7609L139.125 80.7929C140.497 80.4508 141.912 80.305 143.325 80.3599C144.738 80.4167 146.131 80.7139 147.444 81.2389H147.458L150.432 82.9019C151.982 84.044 153.257 85.5182 154.163 87.2166C155.07 88.915 155.585 90.7947 155.671 92.7179Z" fill="black"/>
<path d="M132.156 93.888C132.156 94.247 132.039 94.537 131.894 94.537C131.749 94.537 131.632 94.247 131.632 93.888C131.632 93.529 131.75 93.241 131.894 93.241C132.038 93.241 132.156 93.532 132.156 93.888Z" fill="black"/>
<path d="M131.032 91.6029C131.032 91.6029 130.814 90.1189 133.519 91.3839" stroke="black" stroke-width="0.25" stroke-miterlimit="10" stroke-linecap="round"/>
<path d="M137.228 97.839L143.901 94.084L145.277 101.203L137.228 106.352" stroke="white" stroke-width="0.25" stroke-miterlimit="10" stroke-linecap="round"/>
<path d="M142.379 95.4429C142.379 95.4429 145.01 90.4239 147.497 93.4339C149.984 96.4439 147.672 103.607 143.134 101.028" fill="#FFABAB"/>
<path d="M142.379 95.4429C142.379 95.4429 145.01 90.4239 147.497 93.4339C149.984 96.4439 147.672 103.607 143.134 101.028" stroke="black" stroke-width="0.25" stroke-miterlimit="10" stroke-linecap="round"/>
<path d="M143.905 98.6279C143.905 98.6279 143.686 93.9158 146.654 94.8278" stroke="black" stroke-width="0.25" stroke-miterlimit="10" stroke-linecap="round"/>
<path d="M145.445 98.0609C145.445 98.0609 145.945 96.1289 144.533 95.5449" stroke="black" stroke-width="0.25" stroke-miterlimit="10" stroke-linecap="round"/>
<path d="M137.546 107.927C136.708 108.127 135.87 108.305 135.061 108.458C134.672 108.535 134.272 108.525 133.888 108.428C133.504 108.332 133.146 108.151 132.84 107.9C132.826 107.9 132.826 107.9 132.813 107.886C132.645 107.686 132.477 107.494 132.296 107.286C132.282 107.272 132.269 107.257 132.269 107.244C127.478 101.505 127.814 98.782 128.834 96.603C130.3 96.785 134.977 97.343 136.752 97.303C139.585 97.245 140.296 101.81 137.546 107.927Z" fill="#F9CA24"/>
<path d="M156.52 112.616C151.685 112.044 146.008 113.681 141.269 117.402H141.254C140.649 117.832 140.06 118.276 139.44 118.754C138.47 116.686 136.228 111.438 136.228 111.438L152.628 106.556C152.628 106.556 154.437 109.371 156.52 112.616Z" fill="#CC4E0E"/>
<path d="M39.7119 272.322C52.5901 272.322 63.0299 261.882 63.0299 249.004C63.0299 236.126 52.5901 225.686 39.7119 225.686C26.8337 225.686 16.3939 236.126 16.3939 249.004C16.3939 261.882 26.8337 272.322 39.7119 272.322Z" fill="black"/>
<path d="M39.7119 235.679C42.3473 235.679 44.9236 236.46 47.1149 237.925C49.3062 239.389 51.0141 241.47 52.0226 243.905C53.0311 246.34 53.295 249.019 52.7809 251.604C52.2667 254.188 50.9976 256.563 49.1341 258.426C47.2706 260.29 44.8963 261.559 42.3115 262.073C39.7267 262.587 37.0475 262.323 34.6126 261.315C32.1778 260.306 30.0967 258.598 28.6326 256.407C27.1684 254.216 26.3869 251.639 26.3869 249.004C26.3869 245.47 27.7908 242.081 30.2897 239.582C32.7886 237.083 36.1779 235.679 39.7119 235.679V235.679Z" fill="#3D3D3D"/>
<path d="M44.153 249.003C44.153 249.881 43.8925 250.74 43.4045 251.47C42.9165 252.201 42.2229 252.77 41.4114 253.106C40.6 253.442 39.707 253.53 38.8455 253.359C37.9841 253.187 37.1927 252.764 36.5717 252.143C35.9506 251.522 35.5276 250.731 35.3563 249.869C35.1849 249.008 35.2729 248.115 35.609 247.304C35.9451 246.492 36.5143 245.798 37.2446 245.31C37.9749 244.822 38.8336 244.562 39.7119 244.562C40.8897 244.562 42.0191 245.03 42.8519 245.863C43.6847 246.696 44.1527 247.825 44.153 249.003Z" fill="white"/>
<path d="M47.0019 235.679H13.6019C13.6019 235.679 23.4089 209.386 55.8769 209.386L47.0019 235.679Z" fill="#29293D"/>
<path d="M154.91 103.741C154.563 104.15 154.132 104.479 153.645 104.705C153.159 104.931 152.629 105.049 152.093 105.05H143.056C141.82 105.05 140.635 104.559 139.761 103.685C138.888 102.812 138.397 101.627 138.397 100.391V87.2029H153.152L154.91 103.741Z" fill="#BA7F17"/>
<path opacity="0.2" d="M124.67 87.204C124.67 87.204 121.27 96.342 128.205 106.812L142.761 101.047L140.242 85.939L124.67 87.204Z" fill="url(#paint6_linear_2094_349)"/>
<path d="M156.603 81.4309C155.055 79.4681 153.083 77.8817 150.834 76.791C148.585 75.7002 146.118 75.1335 143.618 75.1335C141.119 75.1335 138.652 75.7002 136.403 76.791C134.154 77.8817 132.181 79.4681 130.634 81.4309C129.234 83.1374 128.175 85.0973 127.516 87.2039H139.285V100.388C139.285 101 139.405 101.606 139.638 102.171C139.872 102.737 140.215 103.251 140.648 103.684C141.08 104.116 141.594 104.46 142.159 104.694C142.724 104.929 143.33 105.05 143.942 105.05H152.979C153.515 105.049 154.045 104.931 154.531 104.705C155.018 104.479 155.449 104.15 155.796 103.741C158.354 100.735 160.596 96.9139 160.596 92.7569C160.613 88.6337 159.202 84.6316 156.603 81.4309Z" fill="#E87658"/>
<path d="M139.285 81.4309V87.2039H123.795C123.609 87.2012 123.43 87.1351 123.288 87.0167C123.145 86.8983 123.047 86.7346 123.009 86.5528C122.972 86.371 122.998 86.1819 123.084 86.017C123.169 85.8521 123.307 85.7212 123.477 85.6459L129.477 83.0049L129.577 81.4319L139.285 81.4309Z" fill="#3C427F"/>
<path d="M139.285 81.4309V86.2309C136.398 84.2227 132.987 83.1009 129.472 83.0029L129.572 81.4299L139.285 81.4309Z" fill="#30336B"/>
<path d="M137.824 83.235C137.824 83.3537 137.789 83.4697 137.723 83.5683C137.657 83.667 137.563 83.7439 137.454 83.7893C137.344 83.8347 137.223 83.8466 137.107 83.8235C136.99 83.8003 136.884 83.7432 136.8 83.6593C136.716 83.5754 136.659 83.4684 136.635 83.3521C136.612 83.2357 136.624 83.115 136.67 83.0054C136.715 82.8958 136.792 82.802 136.891 82.7361C136.989 82.6702 137.105 82.635 137.224 82.635C137.383 82.635 137.536 82.6982 137.648 82.8107C137.761 82.9233 137.824 83.0759 137.824 83.235Z" fill="white"/>
<path d="M70.031 144.559V160.998C68.2073 160.532 66.591 159.472 65.4379 157.984C64.2849 156.497 63.661 154.667 63.6649 152.785V152.771C63.6612 150.889 64.2852 149.059 65.4383 147.572C66.5913 146.085 68.2075 145.024 70.031 144.559Z" fill="#F9CA24"/>
<path d="M91.4219 150.372C89.5479 153.426 87.4059 157.108 85.1469 161.28H72.1569C71.9769 161.284 71.7967 161.275 71.6179 161.254C71.0798 161.227 70.5462 161.141 70.0269 160.997V144.558C70.5461 144.413 71.0797 144.327 71.6179 144.301C71.7968 144.281 71.9769 144.273 72.1569 144.277H87.9799C88.6926 144.275 89.393 144.463 90.0089 144.822C90.6249 145.18 91.1342 145.697 91.4847 146.317C91.8351 146.938 92.014 147.64 92.003 148.353C91.992 149.066 91.7914 149.762 91.4219 150.372Z" fill="#3E394F"/>
<path d="M85.1439 161.279C84.4119 162.615 83.6809 164.014 82.9339 165.445H75.8889C76.7319 164.061 77.5889 162.678 78.4649 161.279H85.1439Z" fill="#29293D"/>
<path d="M90.0599 169.755C82.7139 180.474 65.2039 209.755 68.3219 241.318C68.4959 243.13 68.7519 244.944 69.0689 246.756H47.5689C46.5559 246.758 45.5569 246.519 44.654 246.06C43.7511 245.601 42.9702 244.933 42.3754 244.113C41.7807 243.293 41.3891 242.344 41.2329 241.343C41.0767 240.342 41.1603 239.318 41.4769 238.356C45.8489 225.136 56.2409 197.648 75.8889 165.449H87.7839C88.2842 165.451 88.7748 165.588 89.203 165.847C89.6311 166.106 89.9809 166.476 90.2147 166.919C90.4485 167.361 90.5576 167.859 90.5303 168.358C90.5031 168.858 90.3404 169.341 90.0599 169.755Z" fill="#3E394F"/>
<path d="M70.0299 142.891H71.6209V162.666H70.0299V142.891Z" fill="#3E394F"/>
<path d="M171.039 180.092C156.154 176.339 140.87 165.954 140.87 165.954L142.27 163.363C139.152 161.663 140.998 157.908 140.87 150.751C140.76 143.596 139.996 137.33 139.996 137.33L139.981 137.345C125.763 145.567 93.8809 152.345 93.8809 152.345L92.0199 145.681C102.428 141.909 112.493 137.253 122.107 131.765C129.82 127.249 134.989 122.271 139.441 118.757C140.061 118.279 140.65 117.834 141.255 117.405H141.27C141.78 117.005 142.305 116.623 142.845 116.26H142.862C146.852 113.492 151.683 112.205 156.522 112.619C157.731 114.495 159.035 116.519 160.131 118.201C161.071 119.632 161.85 120.826 162.331 121.493C162.34 121.501 162.346 121.513 162.348 121.525C168.876 129.711 174.14 146.553 171.039 180.092Z" fill="url(#paint7_linear_2094_349)"/>
<path d="M79.0739 152.419C79.0302 152.419 78.9867 152.414 78.9439 152.405C78.7895 152.37 78.6551 152.276 78.57 152.142C78.485 152.008 78.4562 151.847 78.4899 151.692L82.7729 132.392C82.82 132.251 82.9176 132.133 83.0467 132.06C83.1758 131.987 83.3273 131.965 83.472 131.997C83.6168 132.029 83.7445 132.114 83.8305 132.235C83.9166 132.355 83.9548 132.504 83.938 132.651L79.6549 151.951C79.6251 152.083 79.5515 152.201 79.446 152.286C79.3405 152.371 79.2094 152.418 79.0739 152.419Z" fill="#3E394F"/>
<path d="M82.8489 155.781C82.8978 156.097 82.8737 156.42 82.7786 156.726C82.6835 157.031 82.5198 157.311 82.3 157.544C82.0802 157.777 81.8102 157.956 81.5105 158.068C81.2108 158.18 80.8894 158.223 80.5709 158.192C78.6999 157.992 76.4189 156.876 75.8919 152.782C74.9629 145.575 84.5739 144.716 88.1499 147.232L93.7499 145.444L94.9749 150.878L89.4079 152.344C89.4079 152.344 86.3949 157.704 83.7609 155.781C81.1269 153.858 82.8489 155.781 82.8489 155.781Z" fill="#FFA9A9"/>
<path d="M81.5609 156.503C83.6182 156.503 85.2859 154.835 85.2859 152.778C85.2859 150.721 83.6182 149.053 81.5609 149.053C79.5037 149.053 77.8359 150.721 77.8359 152.778C77.8359 154.835 79.5037 156.503 81.5609 156.503Z" fill="#3E394F"/>
<path d="M139.996 137.33L139.981 137.345C125.763 145.567 93.8809 152.345 93.8809 152.345L92.0199 145.681C102.428 141.909 112.493 137.253 122.107 131.765C129.82 127.249 134.989 122.271 139.441 118.757C140.061 118.279 140.65 117.834 141.255 117.405H141.27C141.78 117.005 142.305 116.623 142.845 116.26H142.862C151.272 122.142 149.71 132.017 139.996 137.33Z" fill="#CC4E0E"/>
<path d="M84.0069 125.63H85.8869V136.497H84.0069C83.1622 136.497 82.3521 136.161 81.7548 135.564C81.1575 134.967 80.8219 134.157 80.8219 133.312V128.812C80.8227 127.968 81.1586 127.158 81.7558 126.562C82.353 125.965 83.1627 125.63 84.0069 125.63V125.63Z" fill="#3E394F"/>
<path d="M177.326 272.322C190.204 272.322 200.644 261.882 200.644 249.004C200.644 236.126 190.204 225.686 177.326 225.686C164.448 225.686 154.008 236.126 154.008 249.004C154.008 261.882 164.448 272.322 177.326 272.322Z" fill="black"/>
<path d="M177.326 262.329C184.685 262.329 190.651 256.363 190.651 249.004C190.651 241.645 184.685 235.679 177.326 235.679C169.967 235.679 164.001 241.645 164.001 249.004C164.001 256.363 169.967 262.329 177.326 262.329Z" fill="#3D3D3D"/>
<path d="M177.326 253.446C179.779 253.446 181.768 251.457 181.768 249.004C181.768 246.551 179.779 244.562 177.326 244.562C174.873 244.562 172.884 246.551 172.884 249.004C172.884 251.457 174.873 253.446 177.326 253.446Z" fill="white"/>
<path d="M223.047 246.76H69.069C68.751 244.948 68.496 243.134 68.322 241.322H120.345C120.345 241.322 127.131 192.292 143.325 192.292H180.241C218.409 192.289 223.047 246.76 223.047 246.76Z" fill="#3E394F"/>
<path d="M211.66 246.757H142.987C143.554 238.036 147.418 229.858 153.794 223.883C160.171 217.907 168.583 214.582 177.321 214.582C186.06 214.582 194.472 217.907 200.848 223.883C207.225 229.858 211.089 238.036 211.656 246.757H211.66Z" fill="#29293D"/>
<path d="M153.571 192.289H140.201C139.79 192.289 139.383 192.208 139.003 192.051C138.623 191.894 138.278 191.663 137.987 191.372C137.697 191.082 137.466 190.737 137.309 190.357C137.152 189.977 137.071 189.57 137.071 189.159C137.071 187.011 137.924 184.95 139.443 183.431C140.962 181.912 143.023 181.059 145.171 181.059H157.843C171.659 181.059 165.794 176.486 175.436 176.486H183.236C184.224 176.486 185.172 176.879 185.871 177.578C186.57 178.277 186.963 179.224 186.963 180.213C186.963 183.416 185.691 186.487 183.426 188.752C181.161 191.017 178.09 192.289 174.887 192.289H153.571Z" fill="#29293D"/>
<path d="M186.729 106.811H222.829C224.332 106.811 225.773 107.408 226.836 108.471C227.899 109.534 228.496 110.975 228.496 112.478V171.483H179.316C178.374 171.483 177.442 171.298 176.572 170.937C175.702 170.577 174.911 170.048 174.245 169.382C173.579 168.716 173.051 167.926 172.691 167.055C172.331 166.185 172.146 165.253 172.146 164.311V121.394C172.146 117.526 173.682 113.817 176.417 111.082C179.152 108.347 182.861 106.811 186.729 106.811V106.811Z" fill="url(#paint8_linear_2094_349)"/>
<path d="M178.883 195.313H155.683C155.428 195.313 155.183 195.212 155.003 195.031C154.822 194.851 154.721 194.606 154.721 194.351C154.721 194.096 154.822 193.851 155.003 193.671C155.183 193.49 155.428 193.389 155.683 193.389H176.96V185.189C176.964 182.142 178.176 179.221 180.331 177.066C182.485 174.912 185.407 173.7 188.454 173.697H227.854C228.109 173.697 228.354 173.798 228.534 173.979C228.715 174.159 228.816 174.404 228.816 174.659C228.816 174.914 228.715 175.159 228.534 175.339C228.354 175.52 228.109 175.621 227.854 175.621H188.454C185.917 175.624 183.485 176.633 181.692 178.427C179.898 180.22 178.889 182.652 178.886 185.189L178.883 195.313Z" fill="#29293D"/>
<path d="M211.265 150.094C217.311 144.048 217.311 134.246 211.265 128.2C205.219 122.155 195.417 122.155 189.372 128.2C183.326 134.246 183.326 144.048 189.372 150.094C195.417 156.139 205.219 156.139 211.265 150.094Z" fill="white"/>
<path d="M186.763 163H186.072V160.281C186.072 160.059 186.085 159.786 186.113 159.464H186.101C186.058 159.647 186.02 159.779 185.987 159.859L184.733 163H184.252L182.996 159.883C182.96 159.791 182.923 159.651 182.884 159.464H182.873C182.888 159.632 182.896 159.906 182.896 160.287V163H182.251V158.799H183.233L184.337 161.597C184.421 161.812 184.476 161.972 184.501 162.077H184.516C184.588 161.856 184.647 161.692 184.692 161.585L185.817 158.799H186.763V163ZM190.264 161.685H188.219C188.227 161.962 188.312 162.176 188.474 162.326C188.638 162.477 188.863 162.552 189.148 162.552C189.468 162.552 189.762 162.456 190.03 162.265V162.812C189.756 162.984 189.395 163.07 188.946 163.07C188.504 163.07 188.158 162.935 187.906 162.663C187.656 162.39 187.531 162.006 187.531 161.512C187.531 161.045 187.668 160.665 187.944 160.372C188.221 160.077 188.565 159.93 188.975 159.93C189.385 159.93 189.703 160.062 189.927 160.325C190.152 160.589 190.264 160.955 190.264 161.424V161.685ZM189.608 161.204C189.606 160.96 189.548 160.771 189.435 160.636C189.322 160.499 189.166 160.431 188.966 160.431C188.771 160.431 188.605 160.502 188.468 160.645C188.333 160.787 188.25 160.974 188.219 161.204H189.608ZM193.214 163H192.555V162.531H192.543C192.336 162.891 192.033 163.07 191.632 163.07C191.337 163.07 191.106 162.99 190.938 162.83C190.772 162.67 190.689 162.458 190.689 162.194C190.689 161.628 191.015 161.298 191.667 161.204L192.558 161.078C192.558 160.65 192.355 160.437 191.949 160.437C191.591 160.437 191.269 160.56 190.982 160.806V160.211C191.298 160.023 191.664 159.93 192.078 159.93C192.835 159.93 193.214 160.303 193.214 161.049V163ZM192.558 161.526L191.928 161.614C191.733 161.64 191.585 161.688 191.486 161.758C191.388 161.826 191.339 161.947 191.339 162.121C191.339 162.248 191.384 162.353 191.474 162.435C191.566 162.515 191.688 162.555 191.84 162.555C192.047 162.555 192.218 162.482 192.353 162.338C192.49 162.191 192.558 162.008 192.558 161.787V161.526ZM194.729 163H194.046V158.559H194.729V163Z" fill="white"/>
<path d="M201.128 163H200.437V160.281C200.437 160.059 200.45 159.786 200.478 159.464H200.466C200.423 159.647 200.385 159.779 200.352 159.859L199.098 163H198.617L197.361 159.883C197.325 159.791 197.288 159.651 197.249 159.464H197.238C197.253 159.632 197.261 159.906 197.261 160.287V163H196.616V158.799H197.598L198.702 161.597C198.786 161.812 198.841 161.972 198.866 162.077H198.881C198.953 161.856 199.012 161.692 199.057 161.585L200.182 158.799H201.128V163ZM203.419 163.07C202.956 163.07 202.586 162.931 202.309 162.651C202.033 162.37 201.896 161.998 201.896 161.535C201.896 161.031 202.039 160.638 202.326 160.354C202.615 160.071 203.004 159.93 203.492 159.93C203.961 159.93 204.326 160.067 204.588 160.343C204.85 160.618 204.981 161 204.981 161.488C204.981 161.967 204.839 162.351 204.556 162.64C204.275 162.927 203.896 163.07 203.419 163.07ZM203.451 160.472C203.186 160.472 202.976 160.564 202.822 160.75C202.667 160.936 202.59 161.191 202.59 161.518C202.59 161.832 202.668 162.08 202.824 162.262C202.981 162.441 203.19 162.531 203.451 162.531C203.719 162.531 203.924 162.442 204.067 162.265C204.211 162.087 204.283 161.834 204.283 161.506C204.283 161.176 204.211 160.921 204.067 160.741C203.924 160.562 203.719 160.472 203.451 160.472ZM208.347 163H207.667V161.31C207.667 160.749 207.469 160.469 207.073 160.469C206.865 160.469 206.695 160.547 206.56 160.703C206.425 160.857 206.358 161.053 206.358 161.289V163H205.675V160H206.358V160.498H206.369C206.594 160.119 206.918 159.93 207.342 159.93C207.668 159.93 207.917 160.036 208.089 160.249C208.261 160.46 208.347 160.766 208.347 161.166V163ZM211.901 163H211.039L209.873 161.559H209.862V163H209.179V158.559H209.862V161.374H209.873L210.975 160H211.792L210.553 161.447L211.901 163ZM214.766 161.685H212.721C212.729 161.962 212.814 162.176 212.976 162.326C213.14 162.477 213.365 162.552 213.65 162.552C213.97 162.552 214.264 162.456 214.531 162.265V162.812C214.258 162.984 213.897 163.07 213.448 163.07C213.006 163.07 212.659 162.935 212.407 162.663C212.157 162.39 212.032 162.006 212.032 161.512C212.032 161.045 212.17 160.665 212.446 160.372C212.723 160.077 213.067 159.93 213.477 159.93C213.887 159.93 214.204 160.062 214.429 160.325C214.654 160.589 214.766 160.955 214.766 161.424V161.685ZM214.11 161.204C214.108 160.96 214.05 160.771 213.937 160.636C213.823 160.499 213.667 160.431 213.468 160.431C213.273 160.431 213.107 160.502 212.97 160.645C212.835 160.787 212.752 160.974 212.721 161.204H214.11ZM218.012 160L216.658 163.48C216.377 164.102 215.983 164.412 215.475 164.412C215.332 164.412 215.213 164.399 215.117 164.374V163.809C215.225 163.844 215.323 163.861 215.41 163.861C215.664 163.861 215.854 163.736 215.979 163.486L216.181 162.994L214.989 160H215.741L216.456 162.18C216.464 162.207 216.482 162.279 216.509 162.396H216.524C216.533 162.352 216.551 162.281 216.576 162.186L217.326 160H218.012Z" fill="white"/>
</g>
<g filter="url(#filter1_d_2094_349)">
<path d="M197.802 136.506C197.802 136.292 197.739 136.084 197.62 135.906C197.502 135.729 197.333 135.591 197.136 135.509C196.939 135.427 196.722 135.406 196.512 135.447C196.303 135.489 196.111 135.592 195.96 135.743C195.809 135.894 195.706 136.086 195.665 136.295C195.623 136.505 195.644 136.722 195.726 136.919C195.808 137.116 195.946 137.284 196.123 137.403C196.301 137.521 196.51 137.585 196.723 137.585C197.009 137.585 197.284 137.471 197.486 137.269C197.688 137.066 197.802 136.792 197.802 136.506ZM196.375 136.706C196.277 136.706 196.181 136.677 196.1 136.622C196.019 136.568 195.955 136.491 195.918 136.4C195.88 136.31 195.87 136.21 195.889 136.114C195.909 136.018 195.956 135.93 196.025 135.861C196.094 135.791 196.182 135.744 196.278 135.725C196.374 135.706 196.474 135.716 196.564 135.753C196.655 135.791 196.732 135.854 196.787 135.936C196.841 136.017 196.87 136.113 196.87 136.211C196.869 136.341 196.817 136.466 196.724 136.558C196.632 136.651 196.507 136.702 196.376 136.703L196.375 136.706Z" fill="#4A4B4D"/>
<path d="M203.403 135.427C203.19 135.427 202.981 135.49 202.804 135.609C202.626 135.727 202.488 135.896 202.406 136.093C202.324 136.29 202.303 136.507 202.345 136.716C202.386 136.926 202.489 137.118 202.64 137.269C202.791 137.42 202.983 137.522 203.192 137.564C203.402 137.606 203.619 137.584 203.816 137.503C204.013 137.421 204.182 137.283 204.3 137.105C204.419 136.928 204.482 136.719 204.482 136.506C204.482 136.22 204.368 135.945 204.166 135.743C203.964 135.54 203.689 135.427 203.403 135.427ZM203.055 136.703C202.957 136.703 202.861 136.674 202.78 136.619C202.699 136.565 202.635 136.488 202.598 136.397C202.56 136.307 202.55 136.207 202.57 136.111C202.589 136.015 202.636 135.927 202.705 135.858C202.774 135.789 202.862 135.741 202.958 135.722C203.054 135.703 203.154 135.713 203.244 135.75C203.335 135.788 203.412 135.851 203.467 135.933C203.521 136.014 203.55 136.11 203.55 136.208C203.55 136.273 203.537 136.338 203.512 136.398C203.487 136.458 203.45 136.513 203.404 136.559C203.357 136.605 203.302 136.642 203.242 136.666C203.181 136.691 203.116 136.703 203.051 136.703H203.055Z" fill="#4A4B4D"/>
<path d="M201.581 142.457C201.581 141.617 200.9 140.395 200.06 140.395C199.22 140.395 198.539 141.617 198.539 142.457C198.539 143.297 199.22 143.331 200.06 143.331C200.9 143.331 201.581 143.297 201.581 142.457Z" fill="#4A4B4D"/>
<path d="M200.227 147.109C202.737 147.109 204.772 146.031 204.772 144.701C204.753 144.424 204.669 144.155 204.527 143.916C204.385 143.677 204.189 143.475 203.955 143.325C204.144 143.571 204.249 143.872 204.255 144.182C204.255 145.512 202.22 146.59 199.709 146.59C198.389 146.641 197.086 146.281 195.98 145.559C196.631 146.47 198.287 147.109 200.227 147.109Z" fill="#4A4B4D"/>
<path d="M192.161 136.468C192.252 137.337 192.547 138.002 192.93 138.132C193.429 138.279 193.946 138.356 194.466 138.359C194.393 138.192 194.33 138.021 194.279 137.846C194.088 137.252 194.052 136.619 194.176 136.007C194.3 135.396 194.58 134.826 194.987 134.354C194.652 134.324 194.314 134.307 193.987 134.307C193.588 134.276 193.187 134.325 192.807 134.45C192.694 134.512 192.596 134.6 192.522 134.705C192.674 134.761 192.816 134.84 192.944 134.939C192.935 134.956 192.924 134.972 192.914 134.988C192.634 135.466 192.382 135.96 192.161 136.468Z" fill="#4A4B4D"/>
<path d="M205.814 137.771C205.758 137.972 205.687 138.169 205.601 138.36C206.14 138.36 206.676 138.283 207.193 138.132C207.576 138.002 207.871 137.338 207.962 136.471C207.732 135.948 207.469 135.44 207.176 134.95C207.306 134.849 207.45 134.766 207.603 134.705C207.529 134.599 207.431 134.511 207.318 134.449C206.938 134.324 206.537 134.275 206.138 134.306C205.805 134.306 205.464 134.324 205.127 134.354C205.516 134.821 205.783 135.379 205.903 135.975C206.023 136.572 205.992 137.189 205.814 137.771Z" fill="#4A4B4D"/>
<path d="M211.456 136.049C211.217 135.349 210.822 134.712 210.302 134.186C210.29 134.24 210.274 134.293 210.256 134.345C210.16 134.581 209.978 134.772 209.747 134.88C209.591 134.969 209.57 134.986 209.555 135.08L209.537 135.194C209.901 135.536 210.176 135.962 210.337 136.435C210.595 136.978 210.632 137.6 210.439 138.17C210.245 138.739 209.838 139.211 209.303 139.486C209.18 139.528 209.053 139.556 208.923 139.567C208.923 139.548 208.917 139.529 208.913 139.51C208.841 139.123 208.75 138.736 208.641 138.352C208.427 138.752 208.076 139.062 207.653 139.226C206.857 139.467 206.027 139.582 205.195 139.567C205.051 139.567 204.908 139.567 204.766 139.558L204.73 139.595C205.395 140.012 205.948 140.584 206.342 141.263C206.737 141.941 206.96 142.705 206.994 143.489C207.013 146.42 203.934 148.816 200.117 148.842C196.3 148.868 193.191 146.51 193.171 143.579C193.194 142.795 193.408 142.028 193.794 141.344C194.179 140.661 194.725 140.081 195.384 139.656C195.351 139.625 195.319 139.592 195.284 139.556C195.164 139.556 195.043 139.563 194.922 139.563C194.09 139.578 193.26 139.463 192.464 139.222C192.045 139.059 191.697 138.753 191.482 138.358C191.367 138.777 191.271 139.2 191.197 139.621C191.11 140.113 191.054 140.611 191.03 141.111C191.019 141.311 191.015 141.511 191.016 141.711C191.05 146.919 194.916 150.011 200.116 149.981C205.316 149.951 209.146 146.801 209.116 141.593C209.116 141.412 209.109 141.23 209.097 141.046C209.336 141.034 209.571 140.988 209.797 140.909C211.455 140.349 212.192 138.164 211.456 136.049Z" fill="#4A4B4D"/>
<path d="M198.132 133.669C198.234 133.706 198.334 133.749 198.432 133.797C199.45 133.995 200.496 134.004 201.517 133.823C201.765 133.685 202.033 133.584 202.31 133.523C203.314 133.118 204.363 132.835 205.434 132.68C205.4 132.645 205.366 132.61 205.334 132.58C204.866 132.116 203.042 130.689 202.845 130.518C201.407 129.443 200.37 127.916 199.901 126.183C199.539 126.65 199.339 127.223 199.334 127.814C199.326 128.438 199.473 129.054 199.762 129.608C198.978 128.851 198.441 127.875 198.222 126.808C197.729 127.866 197.668 129.074 198.052 130.176C197.689 129.935 197.382 129.618 197.152 129.248C196.923 128.877 196.776 128.461 196.722 128.029C196.436 128.496 196.274 129.028 196.251 129.576C196.229 130.123 196.347 130.667 196.595 131.156C195.884 131.576 195.233 132.09 194.66 132.685C195.858 132.848 197.027 133.179 198.132 133.669Z" fill="#4A4B4D"/>
<path d="M191.21 139.572C191.078 139.561 190.948 139.534 190.823 139.49C190.288 139.216 189.881 138.744 189.687 138.174C189.494 137.604 189.531 136.982 189.789 136.439C189.95 135.966 190.225 135.54 190.589 135.198L190.571 135.084C190.555 134.984 190.534 134.969 190.378 134.884C190.147 134.776 189.965 134.585 189.869 134.349C189.85 134.297 189.835 134.244 189.823 134.19C189.303 134.716 188.908 135.353 188.669 136.053C187.93 138.169 188.669 140.353 190.32 140.927C190.549 141.007 190.789 141.054 191.031 141.065C191.059 140.564 191.119 140.065 191.21 139.572Z" fill="#4A4B4D"/>
<path d="M209.612 132.941C208.467 132.842 207.315 132.867 206.176 133.016C204.697 133.14 203.254 133.534 201.917 134.177L201.77 134.206C200.636 134.427 199.471 134.427 198.337 134.206L198.211 134.181C196.872 133.535 195.426 133.139 193.945 133.015C192.806 132.866 191.654 132.841 190.509 132.94C190.109 133.09 190.152 133.908 190.259 134.199C190.397 134.574 190.894 134.479 190.981 135.015C191.158 136.099 191.462 138.443 192.603 138.831C193.356 139.057 194.14 139.164 194.926 139.149C195.893 139.164 196.855 139.017 197.773 138.713C198.286 138.472 198.71 138.076 198.985 137.581C199.259 137.086 199.371 136.517 199.304 135.955C199.302 135.854 199.336 135.755 199.4 135.677C199.464 135.599 199.554 135.546 199.653 135.528C199.785 135.499 199.918 135.483 200.053 135.479C200.193 135.483 200.332 135.5 200.468 135.531C200.567 135.549 200.657 135.602 200.72 135.681C200.784 135.759 200.818 135.857 200.817 135.958C200.75 136.52 200.862 137.088 201.137 137.583C201.412 138.077 201.836 138.473 202.348 138.713C203.266 139.017 204.228 139.164 205.195 139.149C205.981 139.164 206.765 139.057 207.518 138.831C208.659 138.443 208.963 136.1 209.139 135.015C209.226 134.479 209.723 134.574 209.861 134.199C209.969 133.909 210.014 133.091 209.612 132.941ZM197.573 138.381C196.022 138.856 194.373 138.907 192.795 138.531C192.095 138.292 191.712 137.177 191.712 135.903C191.694 135.543 191.77 135.184 191.931 134.862C192.093 134.54 192.336 134.266 192.636 134.066C193.069 133.914 193.528 133.853 193.986 133.887C195.391 133.848 196.786 134.133 198.063 134.721C198.246 134.821 198.404 134.963 198.523 135.134C198.643 135.306 198.721 135.503 198.752 135.71C198.792 136.303 198.868 137.933 197.573 138.381ZM207.329 138.531C205.752 138.907 204.102 138.855 202.552 138.381C201.252 137.933 201.333 136.304 201.373 135.71C201.404 135.503 201.482 135.306 201.601 135.134C201.721 134.963 201.879 134.821 202.062 134.721C203.339 134.133 204.734 133.848 206.139 133.887C206.596 133.853 207.056 133.914 207.489 134.066C207.789 134.266 208.031 134.54 208.193 134.862C208.355 135.184 208.431 135.543 208.413 135.903C208.412 137.177 208.031 138.292 207.328 138.531H207.329Z" fill="url(#paint9_linear_2094_349)"/>
</g>
<defs>
<filter id="filter0_d_2094_349" x="0.825928" y="0.0976562" width="249.245" height="313.903" filterUnits="userSpaceOnUse" color-interpolation-filters="sRGB">
<feFlood flood-opacity="0" result="BackgroundImageFix"/>
<feColorMatrix in="SourceAlpha" type="matrix" values="0 0 0 0 0 0 0 0 0 0 0 0 0 0 0 0 0 0 127 0" result="hardAlpha"/>
<feOffset dy="4"/>
<feGaussianBlur stdDeviation="2"/>
<feComposite in2="hardAlpha" operator="out"/>
<feColorMatrix type="matrix" values="0 0 0 0 0 0 0 0 0 0 0 0 0 0 0 0 0 0 0.25 0"/>
<feBlend mode="normal" in2="BackgroundImageFix" result="effect1_dropShadow_2094_349"/>
<feBlend mode="normal" in="SourceGraphic" in2="effect1_dropShadow_2094_349" result="shape"/>
</filter>
<filter id="filter1_d_2094_349" x="184.382" y="126.183" width="31.3588" height="31.7981" filterUnits="userSpaceOnUse" color-interpolation-filters="sRGB">
<feFlood flood-opacity="0" result="BackgroundImageFix"/>
<feColorMatrix in="SourceAlpha" type="matrix" values="0 0 0 0 0 0 0 0 0 0 0 0 0 0 0 0 0 0 127 0" result="hardAlpha"/>
<feOffset dy="4"/>
<feGaussianBlur stdDeviation="2"/>
<feComposite in2="hardAlpha" operator="out"/>
<feColorMatrix type="matrix" values="0 0 0 0 0 0 0 0 0 0 0 0 0 0 0 0 0 0 0.25 0"/>
<feBlend mode="normal" in2="BackgroundImageFix" result="effect1_dropShadow_2094_349"/>
<feBlend mode="normal" in="SourceGraphic" in2="effect1_dropShadow_2094_349" result="shape"/>
</filter>
<linearGradient id="paint0_linear_2094_349" x1="111.591" y1="0.0976562" x2="111.591" y2="27.858" gradientUnits="userSpaceOnUse">
<stop stop-color="#E81E87"/>
<stop offset="1" stop-color="#F55F66"/>
</linearGradient>
<linearGradient id="paint1_linear_2094_349" x1="212.675" y1="62.3567" x2="212.675" y2="82.2051" gradientUnits="userSpaceOnUse">
<stop stop-color="#E81E87"/>
<stop offset="1" stop-color="#F55F66"/>
</linearGradient>
<linearGradient id="paint2_linear_2094_349" x1="34.7454" y1="103.865" x2="34.7454" y2="123.713" gradientUnits="userSpaceOnUse">
<stop stop-color="#E81E87"/>
<stop offset="1" stop-color="#F55F66"/>
</linearGradient>
<linearGradient id="paint3_linear_2094_349" x1="28.2889" y1="152.129" x2="28.2889" y2="178.947" gradientUnits="userSpaceOnUse">
<stop stop-color="#E81E87"/>
<stop offset="1" stop-color="#F55F66"/>
</linearGradient>
<linearGradient id="paint4_linear_2094_349" x1="209.648" y1="237.254" x2="209.648" y2="289.238" gradientUnits="userSpaceOnUse">
<stop stop-color="#E81E87"/>
<stop offset="1" stop-color="#F55F66"/>
</linearGradient>
<linearGradient id="paint5_linear_2094_349" x1="120.172" y1="46.2891" x2="120.172" y2="98.2731" gradientUnits="userSpaceOnUse">
<stop stop-color="#E81E87"/>
<stop offset="1" stop-color="#F55F66"/>
</linearGradient>
<linearGradient id="paint6_linear_2094_349" x1="129.646" y1="99.6943" x2="138.048" y2="90.2304" gradientUnits="userSpaceOnUse">
<stop/>
<stop offset="1" stop-opacity="0"/>
</linearGradient>
<linearGradient id="paint7_linear_2094_349" x1="131.986" y1="112.543" x2="131.986" y2="180.092" gradientUnits="userSpaceOnUse">
<stop stop-color="#E81E87"/>
<stop offset="1" stop-color="#F55F66"/>
</linearGradient>
<linearGradient id="paint8_linear_2094_349" x1="200.321" y1="106.811" x2="200.321" y2="171.483" gradientUnits="userSpaceOnUse">
<stop stop-color="#E81E87"/>
<stop offset="1" stop-color="#F55F66"/>
</linearGradient>
<linearGradient id="paint9_linear_2094_349" x1="200.061" y1="132.881" x2="200.061" y2="139.15" gradientUnits="userSpaceOnUse">
<stop stop-color="#E81E87"/>
<stop offset="1" stop-color="#F55F66"/>
</linearGradient>
</defs>
</svg>
