<svg width="215" height="315" viewBox="0 0 215 315" fill="none" xmlns="http://www.w3.org/2000/svg">
<g filter="url(#filter0_d_2_6555)">
<path d="M185.011 122.673C183.483 124.05 182.285 125.755 181.507 127.659C180.73 129.564 180.392 131.62 180.52 133.673L185.829 217.178C185.829 217.178 187.403 230.048 176.107 230.048C164.811 230.048 166.384 217.178 166.384 217.178L171.677 133.673C171.806 131.62 171.469 129.563 170.691 127.659C169.914 125.754 168.715 124.049 167.186 122.673L165.986 121.593C164.342 120.112 163.083 118.254 162.316 116.178C161.55 114.103 161.299 111.872 161.586 109.678L167.064 67.4389C167.114 67.0893 167.288 66.7694 167.554 66.5371C167.82 66.3048 168.161 66.1756 168.514 66.173C168.898 66.1711 169.267 66.3207 169.542 66.5893C169.816 66.8579 169.974 67.224 169.98 67.6079L170.649 107.374C170.656 107.787 170.824 108.18 171.118 108.47C171.413 108.76 171.809 108.922 172.222 108.922H172.958C173.376 108.922 173.776 108.756 174.071 108.461C174.367 108.166 174.533 107.765 174.533 107.348V67.7479C174.528 67.538 174.565 67.3291 174.641 67.1335C174.718 66.938 174.833 66.7598 174.98 66.6094C175.126 66.459 175.301 66.3395 175.495 66.2579C175.689 66.1763 175.896 66.1343 176.106 66.1343C176.317 66.1343 176.524 66.1763 176.718 66.2579C176.912 66.3395 177.087 66.459 177.233 66.6094C177.38 66.7598 177.495 66.938 177.572 67.1335C177.649 67.3291 177.685 67.538 177.68 67.7479V107.348C177.68 107.765 177.846 108.166 178.141 108.461C178.436 108.756 178.837 108.922 179.254 108.922H179.991C180.404 108.922 180.8 108.759 181.094 108.47C181.389 108.18 181.557 107.787 181.564 107.374L182.233 67.6079C182.237 67.2394 182.381 66.8861 182.636 66.6195C182.89 66.3529 183.236 66.1927 183.604 66.1712C183.972 66.1498 184.335 66.2687 184.618 66.504C184.902 66.7392 185.086 67.0734 185.133 67.4389L190.628 109.678C190.909 111.873 190.655 114.103 189.886 116.178C189.117 118.253 187.857 120.111 186.214 121.593L185.011 122.673Z" fill="url(#paint0_linear_2_6555)"/>
<path d="M184.676 122.301L184.677 122.301L185.879 121.222C185.879 121.221 185.88 121.221 185.88 121.221C187.463 119.793 188.676 118.003 189.417 116.004C190.158 114.005 190.403 111.856 190.132 109.741L184.637 67.5035L184.637 67.5028C184.606 67.2627 184.485 67.0433 184.299 66.8888C184.113 66.7344 183.875 66.6563 183.633 66.6704C183.392 66.6844 183.164 66.7896 182.997 66.9647C182.83 67.1398 182.736 67.3717 182.733 67.6137L182.733 67.6164L182.064 107.382C182.064 107.382 182.064 107.382 182.064 107.382C182.055 107.926 181.833 108.445 181.445 108.826C181.057 109.208 180.535 109.422 179.991 109.422H179.991H179.254H179.254C178.704 109.422 178.177 109.203 177.788 108.814C177.399 108.425 177.18 107.898 177.18 107.348V107.348V67.7479V67.7353L177.18 67.7353C177.184 67.5921 177.159 67.4496 177.106 67.3161C177.054 67.1827 176.976 67.0611 176.875 66.9585C176.775 66.8559 176.656 66.7743 176.524 66.7186C176.392 66.663 176.25 66.6343 176.106 66.6343C175.963 66.6343 175.821 66.663 175.689 66.7186C175.557 66.7743 175.438 66.8559 175.338 66.9585C175.238 67.0611 175.159 67.1827 175.107 67.3161C175.054 67.4496 175.029 67.5921 175.033 67.7353L175.033 67.7479H175.033V107.348V107.348C175.033 107.898 174.814 108.426 174.425 108.815C174.036 109.204 173.508 109.422 172.958 109.422H172.222C172.222 109.422 172.222 109.422 172.222 109.422C171.678 109.422 171.156 109.208 170.768 108.826C170.38 108.445 170.158 107.926 170.149 107.382L170.149 107.382L170.649 107.374L170.149 107.382L184.676 122.301ZM184.676 122.301C183.092 123.729 181.85 125.496 181.044 127.47C180.238 129.445 179.888 131.576 180.021 133.704L180.021 133.705M184.676 122.301L180.021 133.705M180.021 133.705L185.33 217.21L185.331 217.224M180.021 133.705L185.331 217.224M185.331 217.224L185.333 217.238L185.331 217.224ZM166.321 121.221L167.52 122.301L167.186 122.673L166.321 121.221ZM166.321 121.221C164.737 119.795 163.524 118.005 162.785 116.005C162.047 114.005 161.805 111.856 162.082 109.743L162.082 109.742M166.321 121.221L162.082 109.742M162.082 109.742L167.559 67.5101M162.082 109.742L167.559 67.5101M167.559 67.5101C167.559 67.5091 167.559 67.508 167.559 67.507L167.559 67.5101ZM168.517 66.6729C168.517 66.6729 168.518 66.6729 168.518 66.6729L168.514 66.173L168.516 66.6729C168.517 66.6729 168.517 66.6729 168.517 66.6729ZM185.333 217.239L185.333 217.239L185.333 217.245L185.336 217.269C185.338 217.291 185.342 217.324 185.346 217.369C185.354 217.458 185.365 217.591 185.375 217.761C185.396 218.101 185.413 218.59 185.399 219.177C185.37 220.355 185.218 221.913 184.727 223.462C184.237 225.011 183.417 226.526 182.071 227.654C180.731 228.775 178.829 229.548 176.107 229.548C173.385 229.548 171.483 228.775 170.143 227.654C168.796 226.526 167.977 225.011 167.486 223.462C166.996 221.913 166.843 220.355 166.815 219.177C166.8 218.59 166.817 218.101 166.838 217.761C166.848 217.591 166.859 217.458 166.867 217.369C166.871 217.324 166.875 217.291 166.877 217.269L166.88 217.245L166.88 217.239L166.88 217.239L166.88 217.238L185.333 217.239Z" stroke="black"/>
</g>
<path d="M158.78 34.7099L160.862 36.7959L159.162 38.4959L157.075 36.4149L154.999 38.4959L153.299 36.7959L155.381 34.7099L153.281 32.6099L154.981 30.9099L157.081 33.0099L159.168 30.9279L160.868 32.6279L158.78 34.7099Z" fill="url(#paint1_linear_2_6555)"/>
<path d="M168.377 21.0609C167.457 21.0611 166.558 20.7886 165.794 20.2778C165.029 19.767 164.433 19.0409 164.081 18.1913C163.729 17.3417 163.637 16.4068 163.816 15.5048C163.996 14.6029 164.439 13.7744 165.089 13.1242C165.739 12.4741 166.568 12.0313 167.47 11.8521C168.372 11.6729 169.307 11.7652 170.156 12.1173C171.006 12.4695 171.732 13.0656 172.242 13.8304C172.753 14.5953 173.025 15.4943 173.025 16.4139C173.024 17.6462 172.534 18.8275 171.662 19.6988C170.791 20.57 169.609 21.0599 168.377 21.0609ZM165.464 16.4139C165.464 16.9898 165.635 17.5525 165.956 18.0311C166.276 18.5097 166.731 18.8826 167.263 19.1028C167.795 19.3229 168.38 19.3803 168.945 19.2678C169.51 19.1553 170.028 18.8779 170.435 18.4707C170.843 18.0635 171.12 17.5447 171.232 16.9799C171.344 16.4152 171.287 15.8298 171.066 15.2978C170.846 14.7658 170.473 14.3111 169.994 13.991C169.516 13.671 168.953 13.5001 168.377 13.4999C167.994 13.4999 167.615 13.5753 167.262 13.7218C166.909 13.8682 166.587 14.0829 166.317 14.3535C166.046 14.6241 165.832 14.9453 165.685 15.2989C165.539 15.6524 165.464 16.0313 165.464 16.4139Z" fill="url(#paint2_linear_2_6555)"/>
<path d="M179.842 26.412L176.162 31.7419L181.492 35.422L185.172 30.092L179.842 26.412Z" fill="#FECFB7"/>
<path d="M167.335 45.4888C167.335 44.7076 167.567 43.9439 168.001 43.2943C168.435 42.6447 169.052 42.1385 169.773 41.8395C170.495 41.5405 171.289 41.4623 172.056 41.6147C172.822 41.7671 173.526 42.1433 174.078 42.6958C174.631 43.2482 175.007 43.952 175.159 44.7182C175.311 45.4844 175.233 46.2787 174.934 47.0004C174.635 47.7222 174.129 48.3391 173.48 48.7731C172.83 49.2072 172.066 49.4388 171.285 49.4388C170.766 49.4388 170.253 49.3367 169.773 49.1381C169.294 48.9396 168.859 48.6487 168.492 48.2819C168.125 47.9151 167.834 47.4797 167.636 47.0004C167.437 46.5212 167.335 46.0075 167.335 45.4888Z" fill="#FECFB7"/>
<path d="M193.526 41.6587C193.526 41.1247 193.684 40.6027 193.981 40.1587C194.278 39.7147 194.699 39.3686 195.193 39.1643C195.686 38.9599 196.229 38.9064 196.753 39.0106C197.276 39.1148 197.758 39.3719 198.135 39.7496C198.513 40.1272 198.77 40.6082 198.874 41.132C198.978 41.6557 198.925 42.1986 198.72 42.692C198.516 43.1853 198.17 43.607 197.726 43.9037C197.282 44.2004 196.76 44.3587 196.226 44.3587C195.871 44.3587 195.52 44.2889 195.193 44.1532C194.865 44.0175 194.568 43.8187 194.317 43.5679C194.066 43.3172 193.867 43.0196 193.731 42.692C193.596 42.3644 193.526 42.0133 193.526 41.6587Z" fill="url(#paint3_linear_2_6555)"/>
<path d="M17.7979 164.826C17.7979 164.316 17.9491 163.818 18.2323 163.394C18.5154 162.97 18.9179 162.64 19.3888 162.445C19.8596 162.25 20.3778 162.199 20.8777 162.298C21.3776 162.398 21.8368 162.643 22.1972 163.004C22.5576 163.364 22.803 163.823 22.9024 164.323C23.0019 164.823 22.9508 165.341 22.7558 165.812C22.5607 166.283 22.2305 166.685 21.8067 166.968C21.3829 167.252 20.8847 167.403 20.375 167.403C19.6915 167.403 19.036 167.131 18.5527 166.648C18.0694 166.165 17.7979 165.509 17.7979 164.826Z" fill="#FECFB7"/>
<g filter="url(#filter1_d_2_6555)">
<path d="M17.6634 145.397L12.5789 148.906L16.0881 153.99L21.1725 150.481L17.6634 145.397Z" fill="url(#paint4_linear_2_6555)"/>
<path d="M16.2156 153.295L13.2744 149.033L17.5359 146.092L20.477 150.354L16.2156 153.295Z" stroke="black"/>
</g>
<g filter="url(#filter2_d_2_6555)">
<mask id="path-11-inside-1_2_6555" fill="white">
<path d="M3.99997 163.718C3.99997 163.164 4.16416 162.623 4.47183 162.162C4.7795 161.702 5.21685 161.343 5.72849 161.131C6.24012 160.919 6.80308 160.864 7.34622 160.972C7.88937 161.08 8.38829 161.346 8.77988 161.738C9.17146 162.13 9.43813 162.629 9.54617 163.172C9.65421 163.715 9.59874 164.278 9.38681 164.789C9.17488 165.301 8.81602 165.738 8.35556 166.046C7.8951 166.354 7.35374 166.518 6.79996 166.518C6.05776 166.517 5.34632 166.221 4.8215 165.696C4.29669 165.172 4.00129 164.46 3.99997 163.718Z"/>
</mask>
<path d="M3.99997 163.718C3.99997 163.164 4.16416 162.623 4.47183 162.162C4.7795 161.702 5.21685 161.343 5.72849 161.131C6.24012 160.919 6.80308 160.864 7.34622 160.972C7.88937 161.08 8.38829 161.346 8.77988 161.738C9.17146 162.13 9.43813 162.629 9.54617 163.172C9.65421 163.715 9.59874 164.278 9.38681 164.789C9.17488 165.301 8.81602 165.738 8.35556 166.046C7.8951 166.354 7.35374 166.518 6.79996 166.518C6.05776 166.517 5.34632 166.221 4.8215 165.696C4.29669 165.172 4.00129 164.46 3.99997 163.718Z" fill="url(#paint5_linear_2_6555)"/>
<path d="M6.79996 166.518L6.79818 167.518H6.79996V166.518ZM4.99997 163.718C4.99997 163.362 5.10553 163.014 5.3033 162.718L3.64036 161.607C3.2228 162.232 2.99997 162.966 2.99997 163.718H4.99997ZM5.3033 162.718C5.50106 162.422 5.78222 162.191 6.11117 162.055L5.3458 160.207C4.65148 160.495 4.05794 160.982 3.64036 161.607L5.3033 162.718ZM6.11117 162.055C6.44007 161.919 6.80196 161.883 7.15113 161.953L7.54131 159.991C6.80419 159.844 6.04016 159.92 5.3458 160.207L6.11117 162.055ZM7.15113 161.953C7.50031 162.022 7.82104 162.193 8.07277 162.445L9.48698 161.031C8.95554 160.5 8.27843 160.138 7.54131 159.991L7.15113 161.953ZM8.07277 162.445C8.3245 162.697 8.49593 163.018 8.56539 163.367L10.527 162.977C10.3803 162.239 10.0184 161.562 9.48698 161.031L8.07277 162.445ZM8.56539 163.367C8.63483 163.716 8.59918 164.078 8.46293 164.407L10.3107 165.172C10.5983 164.478 10.6736 163.714 10.527 162.977L8.56539 163.367ZM8.46293 164.407C8.32669 164.736 8.09598 165.017 7.79999 165.215L8.91113 166.878C9.53605 166.46 10.0231 165.866 10.3107 165.172L8.46293 164.407ZM7.79999 165.215C7.50399 165.412 7.15597 165.518 6.79996 165.518V167.518C7.55152 167.518 8.28621 167.295 8.91113 166.878L7.79999 165.215ZM6.80174 165.518C6.32412 165.517 5.86631 165.327 5.52861 164.989L4.1144 166.404C4.82632 167.115 5.79139 167.516 6.79818 167.518L6.80174 165.518ZM5.52861 164.989C5.19091 164.652 5.00082 164.194 4.99997 163.716L2.99997 163.72C3.00176 164.727 3.40246 165.692 4.1144 166.404L5.52861 164.989Z" fill="black" mask="url(#path-11-inside-1_2_6555)"/>
</g>
<g filter="url(#filter3_d_2_6555)">
<mask id="path-13-inside-2_2_6555" fill="white">
<path d="M190.748 131.39L194.885 235.329C194.948 236.906 195.908 238.15 197.029 238.106C197.978 238.068 198.765 237.106 198.92 235.796L204.837 186.106C205.224 182.863 204.037 179.588 201.931 178.054C200.937 177.204 200.151 176.138 199.635 174.937C199.118 173.735 198.885 172.432 198.953 171.126L199.337 131.47C199.371 127.97 197.286 125.08 194.799 125.179C192.428 125.273 190.615 128.055 190.748 131.391"/>
</mask>
<path d="M190.748 131.39L194.885 235.329C194.948 236.906 195.908 238.15 197.029 238.106C197.978 238.068 198.765 237.106 198.92 235.796L204.837 186.106C205.224 182.863 204.037 179.588 201.931 178.054C200.937 177.204 200.151 176.138 199.635 174.937C199.118 173.735 198.885 172.432 198.953 171.126L199.337 131.47C199.371 127.97 197.286 125.08 194.799 125.179C192.428 125.273 190.615 128.055 190.748 131.391" fill="url(#paint6_linear_2_6555)"/>
<path d="M194.885 235.329L193.886 235.368L193.886 235.369L194.885 235.329ZM197.029 238.106L197.068 239.105L197.069 239.105L197.029 238.106ZM198.92 235.796L197.927 235.677L197.927 235.678L198.92 235.796ZM204.837 186.106L203.844 185.987L203.844 185.987L204.837 186.106ZM201.931 178.054L201.281 178.814L201.311 178.839L201.342 178.862L201.931 178.054ZM198.953 171.126L199.952 171.178L199.953 171.157L199.953 171.135L198.953 171.126ZM199.337 131.47L198.337 131.46L198.337 131.46L199.337 131.47ZM194.799 125.179L194.839 126.178L194.839 126.178L194.799 125.179ZM189.749 131.43L193.886 235.368L195.884 235.289L191.747 131.35L189.749 131.43ZM193.886 235.369C193.925 236.34 194.24 237.251 194.769 237.936C195.296 238.619 196.099 239.143 197.068 239.105L196.99 237.106C196.838 237.112 196.601 237.037 196.352 236.714C196.105 236.394 195.908 235.894 195.884 235.289L193.886 235.369ZM197.069 239.105C198.731 239.038 199.731 237.452 199.913 235.913L197.927 235.678C197.799 236.76 197.225 237.097 196.989 237.107L197.069 239.105ZM199.913 235.914L205.83 186.224L203.844 185.987L197.927 235.677L199.913 235.914ZM205.83 186.224C206.247 182.726 204.994 179.048 202.52 177.245L201.342 178.862C203.08 180.128 204.201 182.999 203.844 185.987L205.83 186.224ZM202.58 177.293C201.703 176.544 201.009 175.602 200.553 174.542L198.716 175.332C199.293 176.674 200.171 177.865 201.281 178.814L202.58 177.293ZM200.553 174.542C200.098 173.481 199.892 172.33 199.952 171.178L197.954 171.074C197.878 172.533 198.139 173.99 198.716 175.332L200.553 174.542ZM199.953 171.135L200.337 131.479L198.337 131.46L197.953 171.116L199.953 171.135ZM200.337 131.479C200.356 129.537 199.789 127.727 198.824 126.39C197.863 125.057 196.432 124.113 194.759 124.18L194.839 126.178C195.653 126.146 196.508 126.597 197.202 127.56C197.893 128.518 198.352 129.902 198.337 131.46L200.337 131.479ZM194.759 124.18C193.165 124.243 191.854 125.208 190.997 126.523C190.138 127.84 189.675 129.58 189.749 131.431L191.747 131.351C191.688 129.866 192.065 128.546 192.672 127.615C193.281 126.682 194.062 126.209 194.839 126.178L194.759 124.18Z" fill="black" mask="url(#path-13-inside-2_2_6555)"/>
</g>
<path d="M134.742 48.4238H67.635C64.1999 48.4367 60.9093 49.8075 58.4809 52.237C56.0525 54.6665 54.6833 57.9578 54.672 61.3928V228.816C54.6815 232.251 56.0502 235.543 58.4792 237.972C60.9081 240.401 64.1998 241.77 67.635 241.78H134.742C138.178 241.772 141.471 240.403 143.902 237.974C146.332 235.545 147.701 232.252 147.711 228.816V61.3928C147.699 57.9568 146.329 54.6648 143.9 52.2352C141.47 49.8055 138.178 48.4354 134.742 48.4238ZM135 54.0968C137.01 54.1032 138.935 54.9049 140.356 56.3267C141.777 57.7486 142.576 59.675 142.581 61.6848V222.16C142.576 224.169 141.776 226.094 140.355 227.515C138.934 228.935 137.009 229.736 135 229.741H67.6809C65.6707 229.738 63.7435 228.938 62.3214 227.517C60.8992 226.097 60.0979 224.17 60.0929 222.16V61.6838C60.0987 59.6732 60.9 57.7465 62.3218 56.3247C63.7436 54.9029 65.6703 54.1016 67.6809 54.0958L135 54.0968Z" fill="#29293D"/>
<path d="M134.741 48.106H67.635C64.1133 48.1113 60.7376 49.513 58.248 52.0039C55.7585 54.4947 54.3584 57.8713 54.355 61.393V228.816C54.3603 232.336 55.7611 235.711 58.2505 238.2C60.7398 240.69 64.1145 242.091 67.635 242.096H134.741C138.261 242.091 141.636 240.69 144.126 238.2C146.615 235.711 148.016 232.336 148.021 228.816V61.393C148.018 57.8713 146.618 54.4947 144.128 52.0039C141.638 49.513 138.263 48.1113 134.741 48.106ZM147.394 228.816C147.389 232.169 146.054 235.384 143.682 237.755C141.31 240.125 138.095 241.459 134.741 241.462H67.635C64.2822 241.458 61.0678 240.125 58.697 237.754C56.3262 235.383 54.9927 232.169 54.989 228.816V61.393C54.9924 58.0394 56.3257 54.8242 58.6963 52.4522C61.067 50.0803 64.2815 48.7452 67.635 48.74H134.741C138.095 48.745 141.311 50.0797 143.682 52.4515C146.054 54.8233 147.389 58.0387 147.394 61.393V228.816Z" fill="#CCCCCC"/>
<path d="M142.581 61.6849V222.161C142.576 224.17 141.776 226.095 140.355 227.516C138.934 228.937 137.009 229.737 135 229.742H67.681C65.6711 229.737 63.7447 228.938 62.3228 227.517C60.901 226.096 60.0993 224.171 60.093 222.161V61.6849C60.0991 59.6743 60.9005 57.7478 62.3222 56.3261C63.7439 54.9044 65.6704 54.103 67.681 54.0969H135.001C137.011 54.1035 138.936 54.9053 140.357 56.3271C141.777 57.7489 142.577 59.6751 142.582 61.6849" fill="#FECFB7"/>
<path d="M94.192 55.2598C94.582 55.2594 94.9633 55.3746 95.2878 55.5909C95.6123 55.8072 95.8654 56.1149 96.015 56.475C96.1647 56.8352 96.2042 57.2316 96.1286 57.6142C96.0529 57.9967 95.8656 58.3483 95.5902 58.6244C95.3148 58.9005 94.9637 59.0888 94.5813 59.1654C94.1989 59.242 93.8024 59.2034 93.4419 59.0547C93.0814 58.906 92.7731 58.6537 92.5559 58.3297C92.3388 58.0058 92.2226 57.6248 92.222 57.2348C92.222 56.7118 92.4294 56.2102 92.7987 55.84C93.168 55.4698 93.6691 55.2611 94.192 55.2598Z" fill="#3B414B"/>
<path d="M110.089 57.046C110.106 57.3989 110.017 57.7489 109.833 58.0508C109.65 58.3527 109.38 58.5927 109.059 58.7397C108.737 58.8867 108.379 58.9341 108.031 58.8756C107.682 58.8172 107.359 58.6556 107.103 58.4119C106.847 58.1681 106.671 57.8532 106.595 57.5079C106.52 57.1626 106.55 56.8027 106.682 56.4747C106.813 56.1466 107.04 55.8655 107.333 55.6675C107.625 55.4695 107.971 55.3638 108.324 55.364C108.781 55.3537 109.223 55.525 109.554 55.8403C109.885 56.1556 110.077 56.5891 110.089 57.046Z" fill="#515760"/>
<path d="M104.259 56.2419V57.2419C104.259 57.3706 104.234 57.498 104.185 57.6169C104.136 57.7358 104.064 57.8438 103.973 57.9347C103.882 58.0256 103.774 58.0976 103.655 58.1466C103.536 58.1955 103.409 58.2205 103.28 58.2199H99.412C99.1525 58.2199 98.9036 58.1169 98.7201 57.9335C98.5365 57.7502 98.4332 57.5014 98.433 57.2419V56.2419C98.4345 55.9828 98.5381 55.7347 98.7214 55.5514C98.9047 55.3682 99.1528 55.2645 99.412 55.2629H103.28C103.54 55.2632 103.788 55.3664 103.972 55.55C104.155 55.7335 104.259 55.9824 104.259 56.2419Z" fill="#1A1F29"/>
<path d="M96.168 57.2378C96.1686 56.8476 96.0534 56.466 95.8371 56.1412C95.6208 55.8164 95.3131 55.563 94.9528 55.4132C94.5925 55.2633 94.1959 55.2236 93.813 55.2992C93.4302 55.3747 93.0783 55.5621 92.802 55.8376C92.5256 56.1131 92.3372 56.4644 92.2605 56.847C92.1838 57.2296 92.2223 57.6263 92.3711 57.9871C92.5198 58.3478 92.7722 58.6564 93.0963 58.8736C93.4205 59.0909 93.8018 59.2072 94.192 59.2078C94.715 59.2078 95.2167 59.0005 95.5871 58.6312C95.9575 58.2619 96.1664 57.7609 96.168 57.2378ZM103.28 55.2618H99.412C99.1528 55.2631 98.9045 55.3667 98.7212 55.55C98.5378 55.7333 98.4343 55.9816 98.433 56.2408V57.2408C98.4333 57.5003 98.5365 57.7491 98.7201 57.9324C98.9036 58.1158 99.1525 58.2188 99.412 58.2188H103.28C103.409 58.2194 103.536 58.1944 103.655 58.1455C103.774 58.0965 103.882 58.0245 103.973 57.9336C104.064 57.8427 104.136 57.7347 104.185 57.6158C104.234 57.4969 104.259 57.3695 104.259 57.2408V56.2408C104.259 55.9813 104.155 55.7324 103.972 55.5489C103.788 55.3653 103.54 55.2621 103.28 55.2618ZM86.504 54.1008H116.295C116.295 54.1008 113.088 54.6568 113.063 57.6668C113.038 60.6768 110.507 61.1828 108.242 61.1828H94.557C92.291 61.1828 89.766 60.6718 89.734 57.6668C89.702 54.6618 86.503 54.1008 86.503 54.1008H86.504ZM108.322 55.3698C107.994 55.3868 107.678 55.4998 107.413 55.6946C107.148 55.8894 106.946 56.1576 106.832 56.466C106.718 56.7744 106.697 57.1094 106.772 57.4296C106.846 57.7498 107.013 58.0411 107.251 58.2675C107.49 58.4939 107.789 58.6454 108.113 58.7033C108.437 58.7612 108.77 58.7229 109.072 58.5932C109.374 58.4635 109.632 58.2481 109.813 57.9736C109.993 57.6991 110.09 57.3776 110.09 57.0488C110.078 56.5919 109.885 56.1585 109.553 55.8437C109.222 55.529 108.779 55.3585 108.322 55.3698Z" fill="#3E394F"/>
<path d="M144.464 60.999V222.16H142.581V61.684C142.576 59.6741 141.777 57.7477 140.356 56.3259C138.935 54.904 137.01 54.1023 135 54.096H67.6809C65.6702 54.1018 63.7434 54.903 62.3215 56.3248C60.8996 57.7465 60.098 59.6732 60.0919 61.684V222.16H58.323V60.999C58.3317 58.3115 59.4031 55.7367 61.3034 53.8364C63.2037 51.9361 65.7786 50.8647 68.466 50.856H134.323C137.011 50.8623 139.587 51.933 141.488 53.8338C143.389 55.7346 144.46 58.3108 144.466 60.999" fill="#3E394F"/>
<path d="M144.464 222.16V229.192C144.456 231.879 143.385 234.454 141.485 236.355C139.585 238.255 137.01 239.326 134.323 239.334H68.469C65.7816 239.325 63.2069 238.253 61.3062 236.353C59.4056 234.454 58.3332 231.879 58.323 229.192V222.16H60.089C60.0956 224.17 60.8975 226.096 62.3195 227.516C63.7415 228.937 65.668 229.736 67.6779 229.741H134.997C137.006 229.736 138.931 228.936 140.352 227.515C141.773 226.094 142.573 224.169 142.578 222.16H144.464Z" fill="#3E394F"/>
<path d="M133.761 274.052C133.761 274.052 107.837 212.233 146.089 177.243C146.089 177.243 135.936 118.687 146.089 110.529C156.242 102.371 163.129 131.739 179.446 224.74L214.568 272.601L214.613 314.262H151.472L133.761 274.052Z" fill="#FFA9A9"/>
<path d="M54.448 165.823H45.206C43.0179 165.823 40.9195 164.954 39.3723 163.406C37.8252 161.859 36.956 159.761 36.956 157.573C36.956 155.385 37.8252 153.286 39.3723 151.739C40.9195 150.192 43.0179 149.323 45.206 149.323H54.4519C56.64 149.323 58.7384 150.192 60.2856 151.739C61.8328 153.286 62.7019 155.385 62.7019 157.573C62.7019 159.761 61.8328 161.859 60.2856 163.406C58.7384 164.954 56.64 165.823 54.4519 165.823" fill="#FFA9A9"/>
<path d="M52.68 185.13H43.8869C41.3267 185.13 38.8713 184.113 37.0609 182.302C35.2505 180.492 34.2334 178.037 34.2334 175.476C34.2334 172.916 35.2505 170.461 37.0609 168.65C38.8713 166.84 41.3267 165.823 43.8869 165.823H52.68C55.2402 165.823 57.6956 166.84 59.506 168.65C61.3164 170.461 62.3335 172.916 62.3335 175.476C62.3335 178.037 61.3164 180.492 59.506 182.302C57.6956 184.113 55.2402 185.13 52.68 185.13Z" fill="#FFA9A9"/>
<path d="M53.043 204.438H44.25C41.6896 204.438 39.234 203.421 37.4236 201.61C35.6131 199.8 34.596 197.344 34.596 194.784C34.596 192.223 35.6131 189.768 37.4236 187.957C39.234 186.147 41.6896 185.13 44.25 185.13H53.043C55.6034 185.13 58.0589 186.147 59.8694 187.957C61.6799 189.768 62.697 192.223 62.697 194.784C62.697 197.344 61.6799 199.8 59.8694 201.61C58.0589 203.421 55.6034 204.438 53.043 204.438Z" fill="#FFA9A9"/>
<path d="M54.8549 220.934H45.61C43.4219 220.934 41.3235 220.065 39.7763 218.517C38.2292 216.97 37.36 214.872 37.36 212.684C37.36 210.496 38.2292 208.397 39.7763 206.85C41.3235 205.303 43.4219 204.434 45.61 204.434H54.8549C57.043 204.434 59.1415 205.303 60.6886 206.85C62.2358 208.397 63.1049 210.496 63.1049 212.684C63.1049 214.872 62.2358 216.97 60.6886 218.517C59.1415 220.065 57.043 220.934 54.8549 220.934Z" fill="#FFA9A9"/>
<g style="mix-blend-mode:multiply">
<g style="mix-blend-mode:multiply">
<g style="mix-blend-mode:multiply">
<g style="mix-blend-mode:multiply" filter="url(#filter4_d_2_6555)">
<mask id="path-29-inside-3_2_6555" fill="white">
<path d="M74.9279 109.76H51.336C49.386 109.754 47.5176 108.977 46.1388 107.598C44.7599 106.219 43.9828 104.351 43.977 102.401V78.8109C43.9828 76.8609 44.7599 74.9924 46.1387 73.6134C47.5175 72.2344 49.3859 71.457 51.336 71.4509H74.927C76.8771 71.4567 78.7456 72.2341 80.1245 73.6131C81.5033 74.9921 82.2804 76.8608 82.286 78.8109V102.401C82.2804 104.351 81.5033 106.22 80.1244 107.598C78.7455 108.977 76.877 109.754 74.927 109.76"/>
</mask>
<path d="M74.9279 109.76H51.336C49.386 109.754 47.5176 108.977 46.1388 107.598C44.7599 106.219 43.9828 104.351 43.977 102.401V78.8109C43.9828 76.8609 44.7599 74.9924 46.1387 73.6134C47.5175 72.2344 49.3859 71.457 51.336 71.4509H74.927C76.8771 71.4567 78.7456 72.2341 80.1245 73.6131C81.5033 74.9921 82.2804 76.8608 82.286 78.8109V102.401C82.2804 104.351 81.5033 106.22 80.1244 107.598C78.7455 108.977 76.877 109.754 74.927 109.76" fill="url(#paint7_linear_2_6555)"/>
<path d="M51.336 109.76L51.333 110.76H51.336V109.76ZM43.977 102.401H42.977L42.977 102.404L43.977 102.401ZM43.977 78.8109L42.977 78.808V78.8109H43.977ZM51.336 71.4509V70.4509L51.3329 70.4509L51.336 71.4509ZM74.927 71.4509L74.9299 70.4509H74.927V71.4509ZM82.286 78.8109H83.286L83.286 78.8081L82.286 78.8109ZM82.286 102.401L83.286 102.404V102.401H82.286ZM74.9279 108.76H51.336V110.76H74.9279V108.76ZM51.3389 108.76C49.6532 108.755 48.0379 108.083 46.8459 106.891L45.4317 108.305C46.9973 109.871 49.1189 110.753 51.333 110.76L51.3389 108.76ZM46.8459 106.891C45.6539 105.699 44.982 104.084 44.977 102.398L42.977 102.404C42.9836 104.618 43.866 106.74 45.4317 108.305L46.8459 106.891ZM44.977 102.401V78.8109H42.977V102.401H44.977ZM44.977 78.8139C44.982 77.128 45.6538 75.5126 46.8459 74.3204L45.4315 72.9063C43.866 74.4721 42.9836 76.5938 42.977 78.808L44.977 78.8139ZM46.8459 74.3204C48.0379 73.1283 49.6532 72.4562 51.3391 72.4509L51.3329 70.4509C49.1187 70.4578 46.9971 71.3405 45.4315 72.9063L46.8459 74.3204ZM51.336 72.4509H74.927V70.4509H51.336V72.4509ZM74.924 72.4509C76.6099 72.4559 78.2253 73.1279 79.4173 74.3201L80.8316 72.906C79.266 71.3402 77.1443 70.4575 74.9299 70.4509L74.924 72.4509ZM79.4173 74.3201C80.6094 75.5124 81.2812 77.1279 81.286 78.8138L83.286 78.8081C83.2797 76.5938 82.3973 74.4719 80.8316 72.906L79.4173 74.3201ZM81.286 78.8109V102.401H83.286V78.8109H81.286ZM81.286 102.398C81.2812 104.084 80.6094 105.699 79.4173 106.891L80.8315 108.306C82.3972 106.74 83.2797 104.618 83.286 102.404L81.286 102.398ZM79.4173 106.891C78.2253 108.083 76.6099 108.755 74.9241 108.76L74.9298 110.76C77.1441 110.754 79.2658 109.871 80.8315 108.306L79.4173 106.891Z" fill="black" mask="url(#path-29-inside-3_2_6555)"/>
</g>
</g>
</g>
</g>
<g style="mix-blend-mode:multiply">
<g style="mix-blend-mode:multiply">
<g style="mix-blend-mode:multiply">
<g style="mix-blend-mode:multiply" filter="url(#filter5_d_2_6555)">
<mask id="path-31-inside-4_2_6555" fill="white">
<path d="M117.303 108.966H93.712C91.7621 108.96 89.8936 108.183 88.5148 106.804C87.136 105.425 86.3588 103.557 86.353 101.607V78.0158C86.3588 76.0657 87.1359 74.1972 88.5147 72.8182C89.8935 71.4392 91.762 70.6618 93.712 70.6558H117.303C119.253 70.6616 121.122 71.4389 122.501 72.8179C123.879 74.197 124.656 76.0656 124.662 78.0158V101.607C124.656 103.557 123.879 105.425 122.5 106.804C121.121 108.183 119.253 108.96 117.303 108.966Z"/>
</mask>
<path d="M117.303 108.966H93.712C91.7621 108.96 89.8936 108.183 88.5148 106.804C87.136 105.425 86.3588 103.557 86.353 101.607V78.0158C86.3588 76.0657 87.1359 74.1972 88.5147 72.8182C89.8935 71.4392 91.762 70.6618 93.712 70.6558H117.303C119.253 70.6616 121.122 71.4389 122.501 72.8179C123.879 74.197 124.656 76.0656 124.662 78.0158V101.607C124.656 103.557 123.879 105.425 122.5 106.804C121.121 108.183 119.253 108.96 117.303 108.966Z" fill="url(#paint8_linear_2_6555)"/>
<path d="M93.712 108.966L93.709 109.966H93.712V108.966ZM86.353 101.607H85.353L85.353 101.61L86.353 101.607ZM86.353 78.0158L85.353 78.0128V78.0158H86.353ZM93.712 70.6558V69.6558L93.7089 69.6558L93.712 70.6558ZM117.303 70.6558L117.306 69.6558H117.303V70.6558ZM124.662 78.0158H125.662L125.662 78.0129L124.662 78.0158ZM124.662 101.607L125.662 101.61V101.607H124.662ZM117.303 107.966H93.712V109.966H117.303V107.966ZM93.715 107.966C92.0292 107.961 90.4139 107.289 89.2219 106.097L87.8077 107.511C89.3733 109.077 91.4949 109.959 93.709 109.966L93.715 107.966ZM89.2219 106.097C88.0299 104.905 87.358 103.29 87.353 101.604L85.353 101.61C85.3596 103.824 86.2421 105.945 87.8077 107.511L89.2219 106.097ZM87.353 101.607V78.0158H85.353V101.607H87.353ZM87.353 78.0187C87.358 76.3329 88.0299 74.7175 89.2219 73.5253L87.8076 72.1112C86.242 73.6769 85.3596 75.7986 85.353 78.0128L87.353 78.0187ZM89.2219 73.5253C90.4139 72.3331 92.0292 71.661 93.7151 71.6558L93.7089 69.6558C91.4947 69.6627 89.3732 70.5454 87.8076 72.1112L89.2219 73.5253ZM93.712 71.6558H117.303V69.6558H93.712V71.6558ZM117.3 71.6558C118.986 71.6608 120.601 72.3328 121.793 73.525L123.208 72.1109C121.642 70.545 119.52 69.6624 117.306 69.6558L117.3 71.6558ZM121.793 73.525C122.985 74.7172 123.657 76.3327 123.662 78.0186L125.662 78.0129C125.656 75.7986 124.773 73.6767 123.208 72.1109L121.793 73.525ZM123.662 78.0158V101.607H125.662V78.0158H123.662ZM123.662 101.604C123.657 103.29 122.985 104.905 121.793 106.097L123.207 107.511C124.773 105.945 125.655 103.824 125.662 101.61L123.662 101.604ZM121.793 106.097C120.601 107.289 118.986 107.961 117.3 107.966L117.306 109.966C119.52 109.959 121.642 109.077 123.207 107.511L121.793 106.097Z" fill="black" mask="url(#path-31-inside-4_2_6555)"/>
</g>
</g>
</g>
</g>
<g style="mix-blend-mode:multiply">
<g style="mix-blend-mode:multiply">
<g style="mix-blend-mode:multiply">
<g style="mix-blend-mode:multiply" filter="url(#filter6_d_2_6555)">
<mask id="path-33-inside-5_2_6555" fill="white">
<path d="M74.057 157.194H50.462C48.512 157.188 46.6434 156.411 45.2644 155.032C43.8855 153.653 43.108 151.785 43.102 149.835V126.249C43.108 124.299 43.8855 122.43 45.2644 121.052C46.6434 119.673 48.512 118.896 50.462 118.89H74.057C76.0068 118.896 77.8751 119.673 79.2538 121.052C80.6325 122.431 81.4095 124.299 81.415 126.249V149.84C81.4095 151.79 80.6325 153.658 79.2538 155.037C77.8751 156.416 76.0068 157.193 74.057 157.199"/>
</mask>
<path d="M74.057 157.194H50.462C48.512 157.188 46.6434 156.411 45.2644 155.032C43.8855 153.653 43.108 151.785 43.102 149.835V126.249C43.108 124.299 43.8855 122.43 45.2644 121.052C46.6434 119.673 48.512 118.896 50.462 118.89H74.057C76.0068 118.896 77.8751 119.673 79.2538 121.052C80.6325 122.431 81.4095 124.299 81.415 126.249V149.84C81.4095 151.79 80.6325 153.658 79.2538 155.037C77.8751 156.416 76.0068 157.193 74.057 157.199" fill="url(#paint9_linear_2_6555)"/>
<path d="M50.462 157.194L50.459 158.194H50.462V157.194ZM43.102 149.835H42.102L42.102 149.838L43.102 149.835ZM43.102 126.249L42.102 126.246V126.249H43.102ZM50.462 118.89V117.89L50.459 117.89L50.462 118.89ZM74.057 118.89L74.06 117.89H74.057V118.89ZM81.415 126.249H82.415L82.415 126.246L81.415 126.249ZM81.415 149.84L82.415 149.843V149.84H81.415ZM74.057 156.194H50.462V158.194H74.057V156.194ZM50.465 156.194C48.7791 156.189 47.1637 155.517 45.9715 154.325L44.5574 155.739C46.1232 157.305 48.2448 158.187 50.459 158.194L50.465 156.194ZM45.9715 154.325C44.7793 153.133 44.1072 151.518 44.102 149.832L42.102 149.838C42.1089 152.052 42.9916 154.174 44.5574 155.739L45.9715 154.325ZM44.102 149.835V126.249H42.102V149.835H44.102ZM44.102 126.252C44.1072 124.566 44.7793 122.951 45.9715 121.759L44.5574 120.344C42.9916 121.91 42.1089 124.032 42.102 126.246L44.102 126.252ZM45.9715 121.759C47.1637 120.567 48.7791 119.895 50.465 119.89L50.459 117.89C48.2448 117.896 46.1232 118.779 44.5574 120.344L45.9715 121.759ZM50.462 119.89H74.057V117.89H50.462V119.89ZM74.054 119.89C75.7396 119.895 77.3548 120.567 78.5467 121.759L79.961 120.345C78.3955 118.779 76.274 117.896 74.06 117.89L74.054 119.89ZM78.5467 121.759C79.7385 122.951 80.4102 124.566 80.415 126.252L82.415 126.246C82.4087 124.032 81.5264 121.91 79.961 120.345L78.5467 121.759ZM80.415 126.249V149.84H82.415V126.249H80.415ZM80.415 149.837C80.4102 151.523 79.7385 153.138 78.5467 154.33L79.961 155.744C81.5264 154.178 82.4087 152.057 82.415 149.843L80.415 149.837ZM78.5467 154.33C77.3548 155.522 75.7396 156.194 74.054 156.199L74.06 158.199C76.274 158.192 78.3955 157.31 79.961 155.744L78.5467 154.33Z" fill="black" mask="url(#path-33-inside-5_2_6555)"/>
</g>
</g>
</g>
</g>
<g style="mix-blend-mode:multiply">
<g style="mix-blend-mode:multiply">
<g style="mix-blend-mode:multiply">
<g style="mix-blend-mode:multiply" filter="url(#filter7_d_2_6555)">
<path d="M116.428 156.399H92.8369C90.8868 156.393 89.0182 155.616 87.6391 154.237C86.2601 152.859 85.4828 150.99 85.477 149.04V125.45C85.4828 123.5 86.2601 121.631 87.6391 120.252C89.0181 118.873 90.8867 118.096 92.8369 118.09H116.428C118.378 118.096 120.247 118.873 121.626 120.252C123.004 121.631 123.781 123.5 123.787 125.45V149.04C123.781 150.99 123.004 152.858 121.625 154.237C120.247 155.616 118.378 156.393 116.428 156.399Z" fill="url(#paint10_linear_2_6555)"/>
<path d="M116.427 155.899H92.8384C92.8379 155.899 92.8375 155.899 92.8371 155.899C91.0195 155.893 89.278 155.169 87.9927 153.884C86.7072 152.599 85.9826 150.857 85.977 149.039V125.451C85.9826 123.633 86.7072 121.891 87.9926 120.605C89.2781 119.32 91.0199 118.595 92.8377 118.59H116.427C118.245 118.595 119.987 119.32 121.272 120.606C122.557 121.891 123.281 123.632 123.287 125.45C123.287 125.45 123.287 125.451 123.287 125.451V149.038C123.287 149.039 123.287 149.039 123.287 149.04C123.281 150.857 122.557 152.599 121.272 153.884C119.987 155.169 118.245 155.893 116.428 155.899C116.427 155.899 116.427 155.899 116.427 155.899Z" stroke="black"/>
</g>
</g>
</g>
</g>
<g style="mix-blend-mode:multiply">
<g style="mix-blend-mode:multiply">
<g style="mix-blend-mode:multiply">
<g style="mix-blend-mode:multiply" filter="url(#filter8_d_2_6555)">
<mask id="path-37-inside-6_2_6555" fill="white">
<path d="M116.428 202.97H92.8369C90.8869 202.964 89.0184 202.187 87.6394 200.808C86.2605 199.429 85.483 197.561 85.477 195.611V172.02C85.483 170.07 86.2604 168.201 87.6394 166.822C89.0183 165.443 90.8868 164.666 92.8369 164.66H116.428C118.378 164.666 120.246 165.443 121.625 166.822C123.004 168.201 123.781 170.07 123.787 172.02V195.611C123.781 197.561 123.004 199.429 121.625 200.808C120.246 202.187 118.378 202.964 116.428 202.97Z"/>
</mask>
<path d="M116.428 202.97H92.8369C90.8869 202.964 89.0184 202.187 87.6394 200.808C86.2605 199.429 85.483 197.561 85.477 195.611V172.02C85.483 170.07 86.2604 168.201 87.6394 166.822C89.0183 165.443 90.8868 164.666 92.8369 164.66H116.428C118.378 164.666 120.246 165.443 121.625 166.822C123.004 168.201 123.781 170.07 123.787 172.02V195.611C123.781 197.561 123.004 199.429 121.625 200.808C120.246 202.187 118.378 202.964 116.428 202.97Z" fill="url(#paint11_linear_2_6555)"/>
<path d="M92.8369 202.97L92.834 203.97H92.8369V202.97ZM85.477 195.611H84.477L84.477 195.614L85.477 195.611ZM85.477 172.02L84.477 172.017V172.02H85.477ZM92.8369 164.66V163.66L92.8338 163.66L92.8369 164.66ZM116.428 164.66L116.431 163.66H116.428V164.66ZM123.787 172.02H124.787L124.787 172.017L123.787 172.02ZM123.787 195.611L124.787 195.614V195.611H123.787ZM116.428 201.97H92.8369V203.97H116.428V201.97ZM92.8399 201.97C91.154 201.965 89.5387 201.293 88.3465 200.101L86.9324 201.515C88.4982 203.081 90.6198 203.963 92.834 203.97L92.8399 201.97ZM88.3465 200.101C87.1543 198.909 86.4822 197.294 86.477 195.608L84.477 195.614C84.4839 197.828 85.3666 199.95 86.9324 201.515L88.3465 200.101ZM86.477 195.611V172.02H84.477V195.611H86.477ZM86.477 172.023C86.4822 170.337 87.1543 168.722 88.3465 167.529L86.9323 166.115C85.3665 167.681 84.4839 169.803 84.477 172.017L86.477 172.023ZM88.3465 167.529C89.5387 166.337 91.1541 165.665 92.8401 165.66L92.8338 163.66C90.6196 163.667 88.498 164.549 86.9323 166.115L88.3465 167.529ZM92.8369 165.66H116.428V163.66H92.8369V165.66ZM116.425 165.66C118.111 165.665 119.726 166.337 120.918 167.529L122.332 166.115C120.767 164.55 118.645 163.667 116.431 163.66L116.425 165.66ZM120.918 167.529C122.11 168.722 122.782 170.337 122.787 172.023L124.787 172.017C124.78 169.803 123.898 167.681 122.332 166.115L120.918 167.529ZM122.787 172.02V195.611H124.787V172.02H122.787ZM122.787 195.608C122.782 197.294 122.11 198.909 120.918 200.101L122.332 201.515C123.898 199.95 124.78 197.828 124.787 195.614L122.787 195.608ZM120.918 200.101C119.726 201.293 118.111 201.965 116.425 201.97L116.431 203.97C118.645 203.963 120.767 203.081 122.332 201.515L120.918 200.101Z" fill="black" mask="url(#path-37-inside-6_2_6555)"/>
</g>
</g>
</g>
</g>
<path d="M118.796 191.017H89.543V193.167H118.796V191.017Z" fill="white"/>
<path d="M101.462 172.651C101.461 172.178 101.601 171.717 101.863 171.324C102.125 170.931 102.497 170.624 102.933 170.443C103.369 170.261 103.849 170.214 104.313 170.305C104.776 170.396 105.202 170.623 105.536 170.957C105.87 171.29 106.099 171.715 106.191 172.178C106.284 172.641 106.238 173.122 106.058 173.558C105.878 173.995 105.572 174.368 105.18 174.631C104.788 174.894 104.326 175.035 103.854 175.036C103.221 175.035 102.614 174.784 102.166 174.337C101.717 173.89 101.464 173.284 101.462 172.651Z" fill="white"/>
<path d="M118.224 189.453H90.495C90.495 189.453 89.378 176.018 104.172 176.424C113.067 176.667 116.349 181.309 117.544 184.983C118.026 186.423 118.256 187.935 118.224 189.453Z" fill="white"/>
<path d="M118.164 17.7419C118.364 30.6279 101.432 44.7419 101.432 44.7419C82.739 28.0669 84.69 17.7419 84.69 17.7419C84.6729 15.5331 85.0932 13.3428 85.9266 11.2973C86.7601 9.25172 87.9902 7.39137 89.546 5.82347C91.1018 4.25557 92.9526 3.01114 94.9916 2.16192C97.0307 1.3127 99.2177 0.875488 101.427 0.875488C103.635 0.875488 105.822 1.3127 107.861 2.16192C109.9 3.01114 111.751 4.25557 113.307 5.82347C114.863 7.39137 116.093 9.25172 116.926 11.2973C117.76 13.3428 118.18 15.5331 118.163 17.7419H118.164ZM109.87 17.7419C109.871 16.0728 109.377 14.4409 108.45 13.0526C107.524 11.6643 106.206 10.582 104.665 9.9426C103.123 9.30318 101.426 9.13537 99.7889 9.46038C98.1517 9.7854 96.6478 10.5886 95.4672 11.7685C94.2866 12.9484 93.4825 14.4519 93.1565 16.0888C92.8305 17.7258 92.9973 19.4227 93.6358 20.9648C94.2743 22.5069 95.3558 23.8251 96.7436 24.7525C98.1313 25.6799 99.7629 26.1749 101.432 26.1749C103.669 26.1751 105.814 25.2875 107.396 23.707C108.978 22.1265 109.869 19.9824 109.871 17.7459" fill="#EDAC4A"/>
<path d="M102.964 96.7159C102.964 105.163 100.459 113.421 95.7659 120.445C91.0727 127.469 84.4022 132.943 76.5978 136.176C68.7934 139.408 60.2056 140.254 51.9205 138.606C43.6353 136.958 36.025 132.89 30.0518 126.917C24.0785 120.944 20.0107 113.334 18.3627 105.048C16.7147 96.7633 17.5605 88.1755 20.7931 80.3711C24.0258 72.5667 29.5003 65.8961 36.524 61.203C43.5478 56.5098 51.8055 54.0049 60.253 54.0049V96.7159H102.964Z" fill="#FFE1A4"/>
<path d="M96.809 96.7157C96.8092 103.947 94.6651 111.015 90.6479 117.028C86.6307 123.04 80.9208 127.726 74.2403 130.494C67.5598 133.261 60.2088 133.985 53.1167 132.574C46.0247 131.164 39.5102 127.682 34.3971 122.569C29.2841 117.455 25.802 110.941 24.3914 103.849C22.9807 96.757 23.7049 89.4059 26.4721 82.7254C29.2394 76.0449 33.9255 70.335 39.938 66.3178C45.9504 62.3006 53.019 60.1565 60.25 60.1567V96.7157H96.809Z" fill="#EDAC4A"/>
<path d="M52.933 77.2308C52.9332 78.4592 52.5691 79.6601 51.8867 80.6817C51.2044 81.7032 50.2344 82.4994 49.0995 82.9697C47.9646 83.4399 46.7157 83.5631 45.5109 83.3235C44.306 83.084 43.1992 82.4925 42.3305 81.6239C41.4618 80.7554 40.8701 79.6487 40.6304 78.4438C40.3906 77.239 40.5136 75.9901 40.9836 74.8551C41.4537 73.7202 42.2498 72.7501 43.2712 72.0676C44.2927 71.385 45.4935 71.0208 46.722 71.0208C48.3691 71.0208 49.9487 71.675 51.1135 72.8396C52.2782 74.0041 52.9327 75.5837 52.933 77.2308Z" fill="#F25C5C"/>
<path d="M45.275 110.24C45.275 111.376 44.9382 112.486 44.3071 113.43C43.6761 114.375 42.7791 115.111 41.7297 115.546C40.6803 115.98 39.5256 116.094 38.4116 115.872C37.2976 115.651 36.2742 115.104 35.471 114.301C34.6679 113.498 34.1209 112.474 33.8993 111.36C33.6777 110.246 33.7914 109.091 34.2261 108.042C34.6608 106.993 35.3969 106.096 36.3413 105.465C37.2858 104.834 38.3961 104.497 39.532 104.497C40.2861 104.497 41.0329 104.645 41.7297 104.934C42.4265 105.223 43.0596 105.646 43.5929 106.179C44.1262 106.712 44.5492 107.345 44.8378 108.042C45.1264 108.739 45.275 109.486 45.275 110.24Z" fill="#F25C5C"/>
<path d="M52.2089 100.732C52.2089 101.275 52.048 101.805 51.7464 102.256C51.4449 102.708 51.0163 103.059 50.5148 103.267C50.0133 103.475 49.4615 103.529 48.9292 103.423C48.3969 103.317 47.908 103.056 47.5243 102.672C47.1405 102.288 46.8793 101.799 46.7735 101.266C46.6678 100.734 46.7222 100.182 46.9301 99.681C47.1379 99.1796 47.4898 98.7511 47.9412 98.4498C48.3926 98.1484 48.9232 97.9876 49.4659 97.9878C50.1935 97.9881 50.8912 98.2773 51.4056 98.7918C51.92 99.3064 52.2089 100.004 52.2089 100.732Z" fill="#F25C5C"/>
<path d="M56.378 117.45C56.378 118.22 56.1497 118.972 55.7221 119.612C55.2944 120.252 54.6866 120.751 53.9754 121.046C53.2642 121.34 52.4816 121.417 51.7267 121.267C50.9717 121.117 50.2782 120.746 49.7339 120.202C49.1896 119.658 48.8189 118.964 48.6687 118.209C48.5186 117.454 48.5957 116.672 48.8902 115.96C49.1848 115.249 49.6837 114.641 50.3237 114.214C50.9637 113.786 51.7162 113.558 52.486 113.558C53.5182 113.558 54.5081 113.968 55.238 114.698C55.9679 115.428 56.378 116.418 56.378 117.45Z" fill="#F25C5C"/>
<path d="M73.606 107.305C73.606 108.062 73.3815 108.802 72.9608 109.432C72.5401 110.061 71.9422 110.552 71.2427 110.842C70.5432 111.131 69.7734 111.207 69.0309 111.059C68.2883 110.911 67.6062 110.547 67.0708 110.011C66.5355 109.476 66.171 108.794 66.0234 108.051C65.8758 107.308 65.9518 106.539 66.2417 105.839C66.5316 105.14 67.0224 104.542 67.652 104.121C68.2817 103.701 69.0219 103.477 69.779 103.477C70.7941 103.477 71.7675 103.88 72.4851 104.598C73.2028 105.316 73.606 106.29 73.606 107.305Z" fill="#F25C5C"/>
<path d="M85.6019 110.175C85.6019 110.844 85.4036 111.498 85.0319 112.054C84.6603 112.61 84.132 113.044 83.514 113.3C82.896 113.556 82.2159 113.622 81.5598 113.492C80.9038 113.361 80.3011 113.039 79.8282 112.566C79.3553 112.093 79.0332 111.49 78.9028 110.834C78.7725 110.178 78.8396 109.498 79.0957 108.88C79.3518 108.262 79.7854 107.734 80.3417 107.362C80.898 106.991 81.552 106.793 82.221 106.793C83.1177 106.793 83.9777 107.15 84.6118 107.784C85.2458 108.418 85.6019 109.278 85.6019 110.175Z" fill="#F25C5C"/>
<path d="M99.383 93.9338H63.653V58.2058C68.3454 58.2048 72.992 59.1282 77.3275 60.9235C81.6629 62.7187 85.6022 65.3505 88.9203 68.6685C92.2383 71.9866 94.8701 75.9258 96.6653 80.2613C98.4605 84.5967 99.384 89.2434 99.383 93.9358" fill="#FFE1A4"/>
<path d="M94.238 93.9329H63.653V63.3489C67.6697 63.3478 71.6472 64.1382 75.3584 65.6748C79.0695 67.2114 82.4416 69.4641 85.2818 72.3043C88.1221 75.1445 90.375 78.5165 91.9117 82.2276C93.4484 85.9387 94.2389 89.9162 94.238 93.9329Z" fill="#EDAC4A"/>
<path d="M80.307 75.5669C80.307 76.4965 80.0313 77.4052 79.5148 78.1781C78.9984 78.951 78.2644 79.5534 77.4056 79.9092C76.5468 80.2649 75.6017 80.358 74.69 80.1766C73.7783 79.9953 72.9409 79.5477 72.2836 78.8904C71.6263 78.233 71.1786 77.3956 70.9973 76.4839C70.8159 75.5722 70.909 74.6271 71.2647 73.7683C71.6205 72.9095 72.2229 72.1755 72.9958 71.659C73.7687 71.1426 74.6774 70.8669 75.6069 70.8669C76.2242 70.8669 76.8354 70.9885 77.4056 71.2247C77.9758 71.4609 78.4939 71.8071 78.9304 72.2435C79.3668 72.68 79.713 73.1981 79.9492 73.7683C80.1854 74.3386 80.307 74.9497 80.307 75.5669Z" fill="#F25C5C"/>
<path d="M73.617 86.3149C73.6172 87.0048 73.4128 87.6793 73.0297 88.253C72.6465 88.8267 72.1019 89.2739 71.4645 89.5381C70.8272 89.8022 70.1258 89.8715 69.4491 89.737C68.7725 89.6025 68.1509 89.2704 67.663 88.7826C67.175 88.2949 66.8428 87.6734 66.7081 86.9967C66.5735 86.3201 66.6425 85.6187 66.9064 84.9813C67.1704 84.3439 67.6175 83.7991 68.1911 83.4158C68.7647 83.0325 69.4391 82.8279 70.129 82.8279C71.0538 82.8281 71.9407 83.1956 72.5948 83.8494C73.2488 84.5033 73.6165 85.3901 73.617 86.3149Z" fill="#F25C5C"/>
<path d="M86.7119 89.8068C86.7119 90.321 86.5594 90.8237 86.2737 91.2513C85.9881 91.6788 85.582 92.0121 85.1069 92.2089C84.6318 92.4057 84.1091 92.4571 83.6047 92.3568C83.1004 92.2565 82.6371 92.0089 82.2734 91.6453C81.9098 91.2816 81.6622 90.8184 81.5619 90.314C81.4616 89.8097 81.5131 89.2869 81.7098 88.8118C81.9066 88.3367 82.2399 87.9307 82.6675 87.645C83.0951 87.3593 83.5977 87.2068 84.1119 87.2068C84.8015 87.2068 85.4628 87.4807 85.9504 87.9683C86.438 88.4559 86.7119 89.1172 86.7119 89.8068Z" fill="#F25C5C"/>
<path d="M39.819 89.2949C38.001 87.4089 36.1836 85.5222 34.367 83.6349C34.1129 83.4226 33.785 83.3197 33.4552 83.3485C33.1253 83.3774 32.8204 83.5357 32.607 83.7889C32.4026 84.0462 32.3046 84.372 32.333 84.6994C32.3615 85.0267 32.5143 85.3307 32.76 85.5489C34.5773 87.4349 36.3947 89.3216 38.212 91.2089C38.4662 91.4209 38.794 91.5237 39.1238 91.4949C39.4535 91.466 39.7585 91.3078 39.972 91.0549C40.1761 90.7975 40.274 90.4717 40.2455 90.1445C40.2171 89.8172 40.0645 89.5132 39.819 89.2949Z" fill="#FFE1A4"/>
<path d="M35.909 95.4369C35.7134 95.1722 35.4231 94.9931 35.0988 94.9373C34.7744 94.8814 34.4409 94.9529 34.168 95.1369L29.18 98.3619C28.9112 98.5544 28.7291 98.8451 28.673 99.1709C28.6168 99.4967 28.6912 99.8315 28.88 100.103C29.0754 100.368 29.3655 100.547 29.6898 100.602C30.014 100.658 30.3472 100.587 30.62 100.403L35.608 97.1779C35.8763 96.985 36.0581 96.6944 36.1143 96.3688C36.1704 96.0431 36.0963 95.7085 35.908 95.4369" fill="#FFE1A4"/>
<path d="M46.035 86.1168C45.7104 86.0638 45.378 86.1382 45.1071 86.3246C44.8361 86.5109 44.6476 86.7947 44.581 87.1168C44.157 89.2394 43.7333 91.3614 43.31 93.4828C43.2528 93.8081 43.3255 94.1428 43.5124 94.4151C43.6994 94.6874 43.9858 94.8754 44.31 94.9388C44.6345 94.9918 44.967 94.9173 45.2379 94.7309C45.5089 94.5446 45.6973 94.2608 45.764 93.9388C46.188 91.8161 46.6116 89.6938 47.035 87.5718C47.0911 87.2468 47.0179 86.9128 46.8311 86.6411C46.6442 86.3695 46.3585 86.1816 46.035 86.1178" fill="#FFE1A4"/>
<path d="M56.762 90.6028C56.639 90.298 56.4038 90.052 56.1049 89.9153C55.806 89.7785 55.4661 89.7616 55.155 89.8678L49.829 91.2528C49.5195 91.3694 49.2685 91.6037 49.131 91.9046C48.9935 92.2054 48.9806 92.5485 49.095 92.8588C49.2175 93.1639 49.4523 93.4103 49.7512 93.5473C50.05 93.6842 50.39 93.7012 50.701 93.5948L56.027 92.2098C56.3367 92.093 56.5876 91.8586 56.7253 91.5576C56.8629 91.2566 56.8762 90.9135 56.762 90.6028Z" fill="#FFE1A4"/>
<path d="M57.1809 71.8327C57.1497 71.5039 56.9904 71.2005 56.7375 70.988C56.4846 70.7755 56.1583 70.6709 55.8289 70.6967C55.5016 70.7324 55.2007 70.893 54.9889 71.145C54.7771 71.3971 54.6707 71.7212 54.692 72.0497L54.924 77.1427C54.9555 77.4717 55.1149 77.7751 55.368 77.9876C55.6211 78.2001 55.9475 78.3046 56.2769 78.2787C56.6043 78.2433 56.9052 78.0828 57.117 77.8306C57.3287 77.5785 57.4348 77.2543 57.413 76.9257L57.1809 71.8327Z" fill="#FFE1A4"/>
<path d="M53.167 64.7949L49 65.6049C48.6732 65.645 48.372 65.802 48.152 66.0469C47.9929 66.2362 47.8935 66.4684 47.8664 66.7141C47.8394 66.9599 47.8859 67.2082 48 67.4275C48.1142 67.6468 48.2908 67.8273 48.5077 67.9461C48.7245 68.0649 48.9717 68.1167 49.218 68.0949L53.385 67.2849C53.7118 67.2451 54.0132 67.0881 54.233 66.8429C54.3916 66.6536 54.4906 66.4214 54.5174 66.1759C54.5441 65.9303 54.4976 65.6823 54.3835 65.4631C54.2695 65.244 54.093 65.0636 53.8765 64.9447C53.66 64.8257 53.4131 64.7736 53.167 64.7949Z" fill="#FFE1A4"/>
<path d="M38.173 72.1958C37.8723 72.0591 37.5301 72.0453 37.2194 72.1574C36.9087 72.2695 36.6541 72.4986 36.51 72.7958L34.8819 76.8438C34.7402 77.1435 34.7233 77.4872 34.835 77.7994C34.9467 78.1115 35.1778 78.3665 35.4775 78.5083C35.7772 78.65 36.1209 78.6669 36.433 78.5553C36.7452 78.4436 37.0002 78.2125 37.142 77.9128L38.769 73.8638C38.9041 73.5629 38.917 73.2213 38.8051 72.911C38.6932 72.6007 38.4651 72.3461 38.169 72.2008" fill="#FFE1A4"/>
<path d="M31.4549 107.257C31.426 106.927 31.2672 106.622 31.0133 106.409C30.7595 106.196 30.4315 106.093 30.1015 106.121C29.7714 106.15 29.4663 106.309 29.2534 106.563C29.0404 106.817 28.9371 107.145 28.966 107.475C29.276 109.327 29.5846 111.179 29.8919 113.03C29.9207 113.36 30.0794 113.665 30.3332 113.878C30.5869 114.091 30.9149 114.195 31.245 114.166C31.575 114.137 31.8801 113.978 32.0932 113.725C32.3062 113.471 32.4097 113.143 32.381 112.813L31.4549 107.258" fill="#FFE1A4"/>
<path d="M55.937 104.577L50.265 105.85C49.9384 105.892 49.6375 106.048 49.416 106.292C49.2058 106.547 49.1029 106.874 49.1289 107.204C49.2079 107.804 49.799 108.493 50.482 108.34L56.1549 107.063C56.4811 107.021 56.7817 106.864 57.003 106.621C57.214 106.366 57.3169 106.039 57.2899 105.709C57.2109 105.109 56.62 104.42 55.938 104.573" fill="#FFE1A4"/>
<path d="M62.589 101.353C62.5746 101.189 62.5283 101.03 62.4525 100.885C62.3768 100.739 62.2731 100.61 62.1474 100.505C62.0217 100.399 61.8765 100.32 61.72 100.27C61.5635 100.221 61.3989 100.203 61.2355 100.217C61.0721 100.232 60.9131 100.278 60.7675 100.354C60.622 100.43 60.4929 100.533 60.3874 100.659C60.282 100.785 60.2023 100.93 60.153 101.086C60.1037 101.243 60.0856 101.407 60.0999 101.571C60.4479 103.694 60.7953 105.816 61.142 107.937C61.1533 108.103 61.1975 108.264 61.272 108.413C61.3466 108.561 61.45 108.693 61.5761 108.801C61.7023 108.909 61.8488 108.991 62.0069 109.041C62.1651 109.092 62.3317 109.111 62.4971 109.096C62.6625 109.082 62.8234 109.034 62.9703 108.957C63.1172 108.88 63.2472 108.774 63.3527 108.645C63.4582 108.517 63.537 108.369 63.5846 108.21C63.6322 108.051 63.6477 107.884 63.63 107.719L62.589 101.353Z" fill="#FFE1A4"/>
<path d="M66.796 114.284L59.623 112.076C59.2977 112.017 58.9624 112.089 58.6901 112.277C58.4178 112.464 58.2305 112.751 58.169 113.076C58.1185 113.4 58.1938 113.732 58.3797 114.003C58.5656 114.273 58.848 114.463 59.169 114.532L66.342 116.739C66.6673 116.798 67.0028 116.726 67.2753 116.539C67.5478 116.352 67.735 116.064 67.796 115.739C67.8462 115.415 67.7706 115.084 67.5847 114.813C67.3988 114.543 67.1167 114.354 66.796 114.285" fill="#FFE1A4"/>
<path d="M80.042 100.678C79.9254 100.374 79.6976 100.126 79.4049 99.9849C79.1042 99.8473 78.7616 99.8331 78.4505 99.9453C78.1395 100.057 77.8848 100.287 77.741 100.585L76.005 105.677C75.8729 105.985 75.8579 106.33 75.963 106.648C76.0488 106.878 76.2005 107.078 76.3991 107.222C76.5978 107.366 76.8345 107.449 77.0799 107.46C77.3252 107.47 77.5682 107.409 77.7787 107.282C77.9891 107.155 78.1575 106.97 78.263 106.748L79.998 101.644C80.1295 101.336 80.1445 100.992 80.0399 100.674" fill="#FFE1A4"/>
<path d="M90.864 102.036C90.6633 101.784 90.3843 101.606 90.071 101.53L85.903 100.256C85.7391 100.226 85.571 100.23 85.4084 100.266C85.2458 100.302 85.092 100.37 84.956 100.466C84.8216 100.56 84.7072 100.68 84.6194 100.819C84.5315 100.958 84.472 101.112 84.4441 101.274C84.4162 101.436 84.4206 101.601 84.457 101.762C84.4933 101.922 84.561 102.073 84.656 102.207C84.8563 102.459 85.135 102.638 85.448 102.715L89.616 103.988C89.7798 104.018 89.948 104.014 90.1106 103.978C90.2733 103.942 90.427 103.874 90.563 103.778C90.6972 103.683 90.8115 103.563 90.8993 103.425C90.9871 103.286 91.0466 103.131 91.0745 102.97C91.1023 102.808 91.098 102.642 91.0617 102.482C91.0254 102.322 90.9579 102.171 90.863 102.037" fill="#FFE1A4"/>
<path d="M89.034 112.421C88.7785 112.212 88.4512 112.111 88.1222 112.139C87.7931 112.168 87.4883 112.324 87.273 112.575L84.149 117.09C83.9444 117.348 83.8418 117.673 83.861 118.002C83.8829 118.248 83.9771 118.482 84.1318 118.674C84.2864 118.866 84.4945 119.008 84.7298 119.082C84.9652 119.157 85.2172 119.159 85.4541 119.09C85.691 119.021 85.9022 118.884 86.061 118.695L89.186 114.181C89.3907 113.923 89.4928 113.598 89.473 113.269C89.4425 112.94 89.2846 112.635 89.033 112.421" fill="#FFE1A4"/>
<path d="M78.8679 121.046C78.4813 119.348 78.0953 117.651 77.71 115.953C77.5969 115.647 77.3681 115.398 77.073 115.259C76.7676 115.118 76.4191 115.104 76.1029 115.218C75.7986 115.333 75.5503 115.56 75.4099 115.854C75.2869 116.163 75.2721 116.505 75.3679 116.824L76.526 121.917C76.6397 122.222 76.8683 122.471 77.163 122.611C77.4682 122.752 77.8169 122.767 78.133 122.652C78.4375 122.537 78.6859 122.309 78.8259 122.016C78.9495 121.707 78.9643 121.365 78.8679 121.046Z" fill="#FFE1A4"/>
<path d="M70.301 120.043L64.165 120.609C63.8397 120.644 63.5412 120.805 63.3334 121.057C63.1256 121.31 63.0253 121.634 63.0538 121.96C63.0824 122.286 63.2376 122.587 63.4861 122.8C63.7347 123.012 64.0567 123.119 64.383 123.097L70.519 122.532C70.849 122.503 71.1541 122.344 71.367 122.09C71.58 121.836 71.6834 121.508 71.6545 121.178C71.6256 120.848 71.4668 120.543 71.2129 120.33C70.9591 120.117 70.6311 120.014 70.301 120.043Z" fill="#FFE1A4"/>
<path d="M71.31 125.274C71.1158 125.007 70.8252 124.826 70.4999 124.77C70.1746 124.714 69.8403 124.787 69.568 124.974C67.9873 126.247 66.4057 127.521 64.823 128.795C64.6844 128.888 64.5658 129.007 64.4742 129.147C64.3825 129.286 64.3197 129.442 64.2894 129.606C64.2592 129.77 64.2621 129.939 64.298 130.102C64.3339 130.264 64.402 130.419 64.4983 130.555C64.5947 130.691 64.7174 130.806 64.8591 130.894C65.0008 130.982 65.1587 131.041 65.3235 131.067C65.4882 131.093 65.6565 131.085 65.8184 131.045C65.9803 131.005 66.1324 130.933 66.266 130.833C67.848 129.561 69.43 128.288 71.012 127.013C71.2778 126.818 71.4576 126.528 71.5135 126.203C71.5695 125.878 71.4973 125.544 71.312 125.272" fill="#FFE1A4"/>
<path d="M58.796 127.612L54.86 123.446C54.7344 123.34 54.5892 123.26 54.4327 123.211C54.2762 123.162 54.1115 123.143 53.948 123.158C53.6187 123.19 53.3147 123.348 53.1 123.6C52.8878 123.854 52.7847 124.182 52.813 124.512C52.8598 124.836 53.0149 125.135 53.253 125.36L57.189 129.527C57.443 129.74 57.7709 129.843 58.101 129.815C58.4303 129.783 58.7343 129.625 58.949 129.373C59.1611 129.119 59.2643 128.791 59.236 128.461C59.1894 128.136 59.0343 127.837 58.796 127.612Z" fill="#FFE1A4"/>
<path d="M47.73 122.242C45.724 122.549 43.7177 122.855 41.711 123.161C41.3854 123.195 41.0862 123.356 40.878 123.609C40.6698 123.862 40.5693 124.186 40.598 124.512C40.6267 124.839 40.7824 125.141 41.0315 125.353C41.2806 125.566 41.6033 125.672 41.93 125.649L47.949 124.73C48.2791 124.701 48.5841 124.542 48.7971 124.288C49.01 124.034 49.1134 123.706 49.0845 123.376C49.0556 123.046 48.8967 122.741 48.6429 122.528C48.3891 122.315 48.061 122.212 47.731 122.241" fill="#FFE1A4"/>
<path d="M41.998 118.863L35.979 116.898C35.6775 116.766 35.337 116.755 35.0276 116.867C34.7181 116.978 34.4631 117.204 34.315 117.498C34.1772 117.798 34.1629 118.141 34.2751 118.452C34.3872 118.763 34.617 119.018 34.915 119.162L40.935 121.126C41.2363 121.258 41.5768 121.269 41.8862 121.158C42.1956 121.046 42.4504 120.82 42.598 120.526C42.7357 120.225 42.75 119.883 42.6378 119.572C42.5256 119.261 42.2959 119.006 41.998 118.863Z" fill="#FFE1A4"/>
<path d="M78.755 82.2918C78.4307 82.2406 78.099 82.3158 77.8285 82.5018C77.558 82.6879 77.3692 82.9706 77.301 83.2918C76.8003 85.1438 76.3003 86.9958 75.801 88.8478C75.7425 89.173 75.8147 89.5082 76.0019 89.7805C76.1892 90.0528 76.4764 90.2401 76.801 90.3018C77.1253 90.353 77.4569 90.2779 77.7274 90.0918C77.998 89.9058 78.1868 89.623 78.255 89.3018C78.7556 87.4498 79.2556 85.5978 79.755 83.7458C79.8129 83.4207 79.7405 83.0858 79.5534 82.8136C79.3662 82.5415 79.0793 82.354 78.755 82.2918Z" fill="#FFE1A4"/>
<path d="M87.978 83.0218C87.7904 82.7551 87.505 82.5732 87.184 82.5158L83.828 82.1678C83.4965 82.1166 83.158 82.1916 82.879 82.3778C82.616 82.5684 82.4351 82.8519 82.373 83.1708C82.3436 83.3348 82.3471 83.5031 82.3831 83.6658C82.4192 83.8285 82.4871 83.9825 82.583 84.1188C82.7703 84.3858 83.0558 84.5678 83.377 84.6248L86.733 84.9728C87.0642 85.0246 87.4027 84.9496 87.681 84.7628C87.9515 84.5716 88.135 84.2808 88.1913 83.9544C88.2475 83.6279 88.1719 83.2925 87.981 83.0218" fill="#FFE1A4"/>
<path d="M83.957 74.1859C83.6322 74.1311 83.2989 74.2048 83.0275 74.3915C82.7561 74.5781 82.568 74.863 82.503 75.1859C82.3116 76.5372 82.121 77.8879 81.931 79.2379C81.8801 79.56 81.9571 79.8892 82.1455 80.1554C82.3339 80.4215 82.6189 80.6035 82.9396 80.6624C83.2603 80.7214 83.5914 80.6527 83.8622 80.471C84.1329 80.2893 84.322 80.009 84.389 79.6899C84.579 78.3399 84.7693 76.9892 84.96 75.6379C85.014 75.3132 84.94 74.9802 84.7535 74.7091C84.567 74.4379 84.2825 74.2496 83.96 74.1839" fill="#FFE1A4"/>
<g style="mix-blend-mode:multiply">
<g style="mix-blend-mode:multiply">
<g style="mix-blend-mode:multiply">
<g style="mix-blend-mode:multiply" filter="url(#filter9_d_2_6555)">
<path d="M74.057 203.764H50.462C48.512 203.758 46.6434 202.981 45.2644 201.602C43.8855 200.223 43.108 198.355 43.102 196.405V172.814C43.1078 170.864 43.8851 168.995 45.2641 167.616C46.6431 166.237 48.5118 165.46 50.462 165.454H74.057C76.007 165.46 77.8755 166.237 79.2542 167.616C80.6329 168.995 81.4097 170.864 81.415 172.814V196.405C81.4095 198.355 80.6325 200.223 79.2538 201.602C77.8751 202.981 76.0068 203.758 74.057 203.764Z" fill="url(#paint12_linear_2_6555)"/>
<path d="M74.0555 203.264H50.4635C50.4631 203.264 50.4627 203.264 50.4622 203.264C48.6447 203.258 46.9033 202.534 45.618 201.249C44.3326 199.963 43.6078 198.222 43.602 196.404V172.815C43.6076 170.997 44.3322 169.255 45.6176 167.97C46.9031 166.684 48.6449 165.959 50.4628 165.954H74.0562C75.8739 165.959 77.6155 166.684 78.9006 167.97C80.1859 169.255 80.9101 170.997 80.915 172.815L80.915 196.403C80.915 196.404 80.915 196.404 80.915 196.405C80.9095 198.222 80.1852 199.963 78.9002 201.248C77.6153 202.534 75.874 203.258 74.0567 203.264C74.0563 203.264 74.0559 203.264 74.0555 203.264Z" stroke="black"/>
</g>
</g>
</g>
</g>
<path d="M70.616 69.4819L68.649 66.3569C68.4562 66.0881 68.1655 65.906 67.8395 65.8498C67.5135 65.7937 67.1785 65.8681 66.907 66.0569C66.6423 66.2529 66.4635 66.5433 66.4076 66.8678C66.3517 67.1922 66.4231 67.5258 66.607 67.7989L68.574 70.9229C68.7664 71.1919 69.057 71.3742 69.3829 71.4304C69.7088 71.4865 70.0437 71.412 70.315 71.2229C70.5795 71.0272 70.7584 70.7369 70.8142 70.4126C70.8701 70.0883 70.7987 69.7549 70.615 69.4819" fill="#FFE1A4"/>
<path d="M69.584 73.7579C69.3279 73.5498 69.001 73.4495 68.6723 73.4782C68.3436 73.507 68.039 73.6625 67.823 73.9119C66.8936 75.1052 65.9629 76.2976 65.0309 77.4889C64.8272 77.7439 64.7313 78.0684 64.7637 78.3932C64.7961 78.7179 64.9543 79.0172 65.2043 79.2269C65.4544 79.4366 65.7766 79.5402 66.102 79.5155C66.4275 79.4909 66.7304 79.3399 66.946 79.0949C67.8793 77.9016 68.81 76.7092 69.738 75.5179C69.9463 75.2621 70.0467 74.9353 70.0179 74.6067C69.9892 74.2781 69.8335 73.9736 69.584 73.7579Z" fill="#FFE1A4"/>
<defs>
<filter id="filter0_d_2_6555" x="157.471" y="66.1343" width="37.2684" height="171.914" filterUnits="userSpaceOnUse" color-interpolation-filters="sRGB">
<feFlood flood-opacity="0" result="BackgroundImageFix"/>
<feColorMatrix in="SourceAlpha" type="matrix" values="0 0 0 0 0 0 0 0 0 0 0 0 0 0 0 0 0 0 127 0" result="hardAlpha"/>
<feOffset dy="4"/>
<feGaussianBlur stdDeviation="2"/>
<feComposite in2="hardAlpha" operator="out"/>
<feColorMatrix type="matrix" values="0 0 0 0 0 0 0 0 0 0 0 0 0 0 0 0 0 0 0.25 0"/>
<feBlend mode="normal" in2="BackgroundImageFix" result="effect1_dropShadow_2_6555"/>
<feBlend mode="normal" in="SourceGraphic" in2="effect1_dropShadow_2_6555" result="shape"/>
</filter>
<filter id="filter1_d_2_6555" x="8.57895" y="145.397" width="16.5936" height="16.5935" filterUnits="userSpaceOnUse" color-interpolation-filters="sRGB">
<feFlood flood-opacity="0" result="BackgroundImageFix"/>
<feColorMatrix in="SourceAlpha" type="matrix" values="0 0 0 0 0 0 0 0 0 0 0 0 0 0 0 0 0 0 127 0" result="hardAlpha"/>
<feOffset dy="4"/>
<feGaussianBlur stdDeviation="2"/>
<feComposite in2="hardAlpha" operator="out"/>
<feColorMatrix type="matrix" values="0 0 0 0 0 0 0 0 0 0 0 0 0 0 0 0 0 0 0.25 0"/>
<feBlend mode="normal" in2="BackgroundImageFix" result="effect1_dropShadow_2_6555"/>
<feBlend mode="normal" in="SourceGraphic" in2="effect1_dropShadow_2_6555" result="shape"/>
</filter>
<filter id="filter2_d_2_6555" x="-3.05176e-05" y="160.918" width="13.6" height="13.6001" filterUnits="userSpaceOnUse" color-interpolation-filters="sRGB">
<feFlood flood-opacity="0" result="BackgroundImageFix"/>
<feColorMatrix in="SourceAlpha" type="matrix" values="0 0 0 0 0 0 0 0 0 0 0 0 0 0 0 0 0 0 127 0" result="hardAlpha"/>
<feOffset dy="4"/>
<feGaussianBlur stdDeviation="2"/>
<feComposite in2="hardAlpha" operator="out"/>
<feColorMatrix type="matrix" values="0 0 0 0 0 0 0 0 0 0 0 0 0 0 0 0 0 0 0.25 0"/>
<feBlend mode="normal" in2="BackgroundImageFix" result="effect1_dropShadow_2_6555"/>
<feBlend mode="normal" in="SourceGraphic" in2="effect1_dropShadow_2_6555" result="shape"/>
</filter>
<filter id="filter3_d_2_6555" x="186.741" y="125.176" width="22.1685" height="120.931" filterUnits="userSpaceOnUse" color-interpolation-filters="sRGB">
<feFlood flood-opacity="0" result="BackgroundImageFix"/>
<feColorMatrix in="SourceAlpha" type="matrix" values="0 0 0 0 0 0 0 0 0 0 0 0 0 0 0 0 0 0 127 0" result="hardAlpha"/>
<feOffset dy="4"/>
<feGaussianBlur stdDeviation="2"/>
<feComposite in2="hardAlpha" operator="out"/>
<feColorMatrix type="matrix" values="0 0 0 0 0 0 0 0 0 0 0 0 0 0 0 0 0 0 0.25 0"/>
<feBlend mode="normal" in2="BackgroundImageFix" result="effect1_dropShadow_2_6555"/>
<feBlend mode="normal" in="SourceGraphic" in2="effect1_dropShadow_2_6555" result="shape"/>
</filter>
<filter id="filter4_d_2_6555" x="39.977" y="71.4509" width="46.309" height="46.3091" filterUnits="userSpaceOnUse" color-interpolation-filters="sRGB">
<feFlood flood-opacity="0" result="BackgroundImageFix"/>
<feColorMatrix in="SourceAlpha" type="matrix" values="0 0 0 0 0 0 0 0 0 0 0 0 0 0 0 0 0 0 127 0" result="hardAlpha"/>
<feOffset dy="4"/>
<feGaussianBlur stdDeviation="2"/>
<feComposite in2="hardAlpha" operator="out"/>
<feColorMatrix type="matrix" values="0 0 0 0 0 0 0 0 0 0 0 0 0 0 0 0 0 0 0.25 0"/>
<feBlend mode="normal" in2="BackgroundImageFix" result="effect1_dropShadow_2_6555"/>
<feBlend mode="normal" in="SourceGraphic" in2="effect1_dropShadow_2_6555" result="shape"/>
</filter>
<filter id="filter5_d_2_6555" x="82.353" y="70.6558" width="46.309" height="46.3101" filterUnits="userSpaceOnUse" color-interpolation-filters="sRGB">
<feFlood flood-opacity="0" result="BackgroundImageFix"/>
<feColorMatrix in="SourceAlpha" type="matrix" values="0 0 0 0 0 0 0 0 0 0 0 0 0 0 0 0 0 0 127 0" result="hardAlpha"/>
<feOffset dy="4"/>
<feGaussianBlur stdDeviation="2"/>
<feComposite in2="hardAlpha" operator="out"/>
<feColorMatrix type="matrix" values="0 0 0 0 0 0 0 0 0 0 0 0 0 0 0 0 0 0 0.25 0"/>
<feBlend mode="normal" in2="BackgroundImageFix" result="effect1_dropShadow_2_6555"/>
<feBlend mode="normal" in="SourceGraphic" in2="effect1_dropShadow_2_6555" result="shape"/>
</filter>
<filter id="filter6_d_2_6555" x="39.102" y="118.89" width="46.313" height="46.3091" filterUnits="userSpaceOnUse" color-interpolation-filters="sRGB">
<feFlood flood-opacity="0" result="BackgroundImageFix"/>
<feColorMatrix in="SourceAlpha" type="matrix" values="0 0 0 0 0 0 0 0 0 0 0 0 0 0 0 0 0 0 127 0" result="hardAlpha"/>
<feOffset dy="4"/>
<feGaussianBlur stdDeviation="2"/>
<feComposite in2="hardAlpha" operator="out"/>
<feColorMatrix type="matrix" values="0 0 0 0 0 0 0 0 0 0 0 0 0 0 0 0 0 0 0.25 0"/>
<feBlend mode="normal" in2="BackgroundImageFix" result="effect1_dropShadow_2_6555"/>
<feBlend mode="normal" in="SourceGraphic" in2="effect1_dropShadow_2_6555" result="shape"/>
</filter>
<filter id="filter7_d_2_6555" x="81.477" y="118.09" width="46.31" height="46.3091" filterUnits="userSpaceOnUse" color-interpolation-filters="sRGB">
<feFlood flood-opacity="0" result="BackgroundImageFix"/>
<feColorMatrix in="SourceAlpha" type="matrix" values="0 0 0 0 0 0 0 0 0 0 0 0 0 0 0 0 0 0 127 0" result="hardAlpha"/>
<feOffset dy="4"/>
<feGaussianBlur stdDeviation="2"/>
<feComposite in2="hardAlpha" operator="out"/>
<feColorMatrix type="matrix" values="0 0 0 0 0 0 0 0 0 0 0 0 0 0 0 0 0 0 0.25 0"/>
<feBlend mode="normal" in2="BackgroundImageFix" result="effect1_dropShadow_2_6555"/>
<feBlend mode="normal" in="SourceGraphic" in2="effect1_dropShadow_2_6555" result="shape"/>
</filter>
<filter id="filter8_d_2_6555" x="81.477" y="164.66" width="46.31" height="46.3101" filterUnits="userSpaceOnUse" color-interpolation-filters="sRGB">
<feFlood flood-opacity="0" result="BackgroundImageFix"/>
<feColorMatrix in="SourceAlpha" type="matrix" values="0 0 0 0 0 0 0 0 0 0 0 0 0 0 0 0 0 0 127 0" result="hardAlpha"/>
<feOffset dy="4"/>
<feGaussianBlur stdDeviation="2"/>
<feComposite in2="hardAlpha" operator="out"/>
<feColorMatrix type="matrix" values="0 0 0 0 0 0 0 0 0 0 0 0 0 0 0 0 0 0 0.25 0"/>
<feBlend mode="normal" in2="BackgroundImageFix" result="effect1_dropShadow_2_6555"/>
<feBlend mode="normal" in="SourceGraphic" in2="effect1_dropShadow_2_6555" result="shape"/>
</filter>
<filter id="filter9_d_2_6555" x="39.102" y="165.454" width="46.313" height="46.3101" filterUnits="userSpaceOnUse" color-interpolation-filters="sRGB">
<feFlood flood-opacity="0" result="BackgroundImageFix"/>
<feColorMatrix in="SourceAlpha" type="matrix" values="0 0 0 0 0 0 0 0 0 0 0 0 0 0 0 0 0 0 127 0" result="hardAlpha"/>
<feOffset dy="4"/>
<feGaussianBlur stdDeviation="2"/>
<feComposite in2="hardAlpha" operator="out"/>
<feColorMatrix type="matrix" values="0 0 0 0 0 0 0 0 0 0 0 0 0 0 0 0 0 0 0.25 0"/>
<feBlend mode="normal" in2="BackgroundImageFix" result="effect1_dropShadow_2_6555"/>
<feBlend mode="normal" in="SourceGraphic" in2="effect1_dropShadow_2_6555" result="shape"/>
</filter>
<linearGradient id="paint0_linear_2_6555" x1="176.105" y1="66.1343" x2="176.105" y2="230.048" gradientUnits="userSpaceOnUse">
<stop stop-color="#E91E59"/>
<stop offset="1" stop-color="#F55F66"/>
</linearGradient>
<linearGradient id="paint1_linear_2_6555" x1="157.074" y1="30.9099" x2="157.074" y2="38.4959" gradientUnits="userSpaceOnUse">
<stop stop-color="#E81E87"/>
<stop offset="1" stop-color="#F55F66"/>
</linearGradient>
<linearGradient id="paint2_linear_2_6555" x1="168.376" y1="11.7629" x2="168.376" y2="21.0609" gradientUnits="userSpaceOnUse">
<stop stop-color="#E81E87"/>
<stop offset="1" stop-color="#F55F66"/>
</linearGradient>
<linearGradient id="paint3_linear_2_6555" x1="196.226" y1="38.9587" x2="196.226" y2="44.3587" gradientUnits="userSpaceOnUse">
<stop stop-color="#E81E87"/>
<stop offset="1" stop-color="#F55F66"/>
</linearGradient>
<linearGradient id="paint4_linear_2_6555" x1="15.1212" y1="147.151" x2="18.6303" y2="152.236" gradientUnits="userSpaceOnUse">
<stop stop-color="#E91E59"/>
<stop offset="1" stop-color="#F55F66"/>
</linearGradient>
<linearGradient id="paint5_linear_2_6555" x1="6.79997" y1="160.918" x2="6.79997" y2="166.518" gradientUnits="userSpaceOnUse">
<stop stop-color="#E91E59"/>
<stop offset="1" stop-color="#F55F66"/>
</linearGradient>
<linearGradient id="paint6_linear_2_6555" x1="197.825" y1="125.176" x2="197.825" y2="238.107" gradientUnits="userSpaceOnUse">
<stop stop-color="#E91E59"/>
<stop offset="1" stop-color="#F55F66"/>
</linearGradient>
<linearGradient id="paint7_linear_2_6555" x1="63.1315" y1="71.4509" x2="63.1315" y2="109.76" gradientUnits="userSpaceOnUse">
<stop stop-color="#E91E59"/>
<stop offset="1" stop-color="#F55F66"/>
</linearGradient>
<linearGradient id="paint8_linear_2_6555" x1="105.508" y1="70.6558" x2="105.508" y2="108.966" gradientUnits="userSpaceOnUse">
<stop stop-color="#E91E59"/>
<stop offset="1" stop-color="#F55F66"/>
</linearGradient>
<linearGradient id="paint9_linear_2_6555" x1="62.2585" y1="118.89" x2="62.2585" y2="157.199" gradientUnits="userSpaceOnUse">
<stop stop-color="#E91E59"/>
<stop offset="1" stop-color="#F55F66"/>
</linearGradient>
<linearGradient id="paint10_linear_2_6555" x1="104.632" y1="118.09" x2="104.632" y2="156.399" gradientUnits="userSpaceOnUse">
<stop stop-color="#E91E59"/>
<stop offset="1" stop-color="#F55F66"/>
</linearGradient>
<linearGradient id="paint11_linear_2_6555" x1="104.632" y1="164.66" x2="104.632" y2="202.97" gradientUnits="userSpaceOnUse">
<stop stop-color="#E91E59"/>
<stop offset="1" stop-color="#F55F66"/>
</linearGradient>
<linearGradient id="paint12_linear_2_6555" x1="62.2585" y1="165.454" x2="62.2585" y2="203.764" gradientUnits="userSpaceOnUse">
<stop stop-color="#E91E59"/>
<stop offset="1" stop-color="#F55F66"/>
</linearGradient>
</defs>
</svg>
